<?xml version="1.0" encoding="UTF-8"?>
<svg id="_圖層_2" data-name=" 圖層 2" xmlns="http://www.w3.org/2000/svg" version="1.1" viewBox="0 0 470.2 412">
  <defs>
    <style>
      .cls-1 {
        fill: #000;
        stroke-width: 0px;
      }

      .cls-2 {
        fill: #fff;
      }

      .cls-2, .cls-3 {
        stroke: #000;
        stroke-linecap: round;
        stroke-linejoin: round;
        stroke-width: 20px;
      }

      .cls-3 {
        fill: none;
      }
    </style>
  </defs>
  <g id="_圖層_1-2" data-name=" 圖層 1-2">
    <rect class="cls-2" x="43" y="13.9" width="385" height="385"/>
    <line class="cls-3" x1="43" y1="80.5" x2="428" y2="80.5"/>
    <polyline class="cls-3" points="206.6 239.7 231.9 264.1 264.8 214.4"/>
    <path class="cls-3" d="M235.5,157.3h0l-73.6,30v67s0,25.7,22.6,39.8c21.3,13.2,49.9,27,51,27.5h0s0,0,0,0h0c1.1-.5,29.7-14.3,51-27.5,22.6-14,22.6-39.8,22.6-39.8v-67l-73.6-30h0Z"/>
    <path class="cls-3" d="M235.5,116.2h0s0,0,0,0h0s-110.4,45-110.4,45v100.5s0,38.6,33.9,59.6c31.9,19.8,74.9,40.5,76.5,41.2h0s0,0,0,0c0,0,0,0,0,0h0c1.6-.8,44.6-21.4,76.5-41.2,33.9-21,33.9-59.6,33.9-59.6v-100.5l-110.4-45h0Z"/>
    <circle class="cls-1" cx="76" cy="47.1" r="8.9"/>
    <circle class="cls-1" cx="108.9" cy="47.1" r="8.9"/>
    <circle class="cls-1" cx="141.8" cy="47.1" r="8.9"/>
    <rect class="cls-1" x="333.3" y="38.2" width="17.8" height="17.8"/>
    <rect class="cls-1" x="366.8" y="38.2" width="33.8" height="17.8"/>
  </g>
</svg>