<?xml version="1.0" encoding="UTF-8"?>
<svg id="_圖層_2" data-name=" 圖層 2" xmlns="http://www.w3.org/2000/svg" version="1.1" viewBox="0 0 470.2 412">
  <defs>
    <style>
      .cls-1 {
        fill: #000;
        stroke-width: 0px;
      }

      .cls-2 {
        fill: #fff;
      }

      .cls-2, .cls-3 {
        stroke: #000;
        stroke-linecap: round;
        stroke-linejoin: round;
        stroke-width: 20px;
      }

      .cls-3 {
        fill: none;
      }
    </style>
  </defs>
  <g id="_圖層_1-2" data-name=" 圖層 1-2">
    <line class="cls-3" x1="235.5" y1="11.4" x2="235.5" y2="60.1"/>
    <line class="cls-3" x1="123.7" y1="35.8" x2="152.3" y2="85.6"/>
    <line class="cls-3" x1="347.3" y1="35.8" x2="318.7" y2="85.6"/>
    <path class="cls-2" d="M110.4,348.4v-113.4c0-68.8,56.3-125.1,125.1-125.1h0c68.8,0,125.1,56.3,125.1,125.1v113.6"/>
    <path class="cls-1" d="M250.4,181.8c-1.8,26.4-3.6,52.7-5.4,79.1-.4,5.7-3.9,8.9-9.6,8.9-5.6,0-8.9-3.4-9.3-9.1-1.8-26.9-3.6-53.7-5.6-80.6-.7-9.5,5.3-16.1,14.9-16.2,9.4,0,15.5,6.2,15,15.7,0,.8,0,1.5-.1,2.2h0Z"/>
    <path class="cls-1" d="M247.5,299.7c0,6.5-5.3,12-11.8,12.1-6.6.1-12.2-5.5-12.2-12.1,0-6.7,5.5-12,12.3-12,6.6,0,11.8,5.4,11.8,12h0Z"/>
    <path class="cls-2" d="M385.5,401.4v-23.1c0-15.9-13-28.9-28.9-28.9H114.3c-15.9,0-28.9,13-28.9,28.9v23.1h300.1Z"/>
  </g>
</svg>