<?xml version="1.0" encoding="UTF-8"?>
<svg id="_圖層_2" data-name=" 圖層 2" xmlns="http://www.w3.org/2000/svg" version="1.1" viewBox="0 0 470.2 412">
  <defs>
    <style>
      .cls-1 {
        fill: #000;
        stroke-width: 0px;
      }

      .cls-2, .cls-3 {
        stroke-width: 15px;
      }

      .cls-2, .cls-3, .cls-4, .cls-5 {
        stroke: #000;
        stroke-linecap: round;
        stroke-linejoin: round;
      }

      .cls-2, .cls-4, .cls-5 {
        fill: #fff;
      }

      .cls-3 {
        fill: none;
      }

      .cls-4 {
        stroke-width: 14.3px;
      }

      .cls-5 {
        stroke-width: 10px;
      }
    </style>
  </defs>
  <g id="_圖層_1-2" data-name=" 圖層 1-2">
    <polygon class="cls-2" points="360.2 277.5 411 236 308.1 137.8 229.4 137.8 229.2 137.8 150.5 137.8 47.6 236 98.4 277.5 46.5 334.6 229.2 334.6 229.4 334.6 412.1 334.6 360.2 277.5"/>
    <path class="cls-2" d="M324.4,94.8l-29.2-75.7c-6.5-16.2-25.9-7.6-25.9-7.6l-40,22.7-40-22.7s-19.5-8.6-25.9,7.6l-29.2,75.7-41.6,47s1.1,11.9,13,11.9h247.5c11.9,0,13-11.9,13-11.9l-41.6-47h0Z"/>
    <line class="cls-3" x1="324.4" y1="95.9" x2="134.2" y2="95.9"/>
    <path class="cls-5" d="M173.1,170.5l37.8,10.8s-1.1,16.2-23.8,10.8c-22.7-5.4-14.1-21.6-14.1-21.6h0Z"/>
    <path class="cls-5" d="M229.3,194.9s-11.9,17.7-35.7,17.7h-37.2"/>
    <path class="cls-3" d="M135.6,153.7s-.4,41.6,32.1,77.3"/>
    <path class="cls-5" d="M285.1,170.5l-37.8,10.8s1.1,16.2,23.8,10.8c22.7-5.4,14.1-21.6,14.1-21.6h0Z"/>
    <path class="cls-5" d="M228.9,194.9s11.9,17.7,35.7,17.7h37.2"/>
    <path class="cls-3" d="M322.6,153.7s.4,41.6-32.1,77.3"/>
    <path class="cls-2" d="M345.8,365s11.9-92.1,11.9-111.6-23.6-21.1-23.6-21.1H124.5s-23.6.5-23.6,21.1,11.9,111.6,11.9,111.6"/>
    <path class="cls-2" d="M95.4,367.2v14.1c0,11.9,9.7,21.6,21.6,21.6h226.8c11.9,0,21.6-9.7,21.6-21.6v-14.1H95.4Z"/>
    <path class="cls-4" d="M384.6,301.2h-49.7s-49.7,32.3-32.4,77.3c0,0,8.6,25.4,57.3,25.4s57.3-25.4,57.3-25.4c17.3-45-32.4-77.3-32.4-77.3h0Z"/>
    <path class="cls-4" d="M389.7,265.5c-7.3,7.3-13.8.5-13.8.5,0,0-6.5-6.8-16.2-7.2-9.7.4-16.2,7.2-16.2,7.2,0,0-6.5,6.9-13.8-.5-11.1-11.1-16,2.3-16,2.3l21.2,33.4h49.7l21.2-33.4s-4.9-13.4-16-2.3h0Z"/>
    <path class="cls-1" d="M357.1,383.2v-7.8c-3.5,0-6.5-.4-9.3-1-2.7-.6-5.2-1.4-7.4-2.4v-10.3c2.2,1.1,4.8,2,7.9,2.9,3.1.9,6,1.4,8.8,1.6v-12.1c-4.1-1.6-7.4-3.2-9.8-4.7s-4.2-3.2-5.3-5.1-1.6-4.1-1.6-6.7.7-4.9,2.1-6.9c1.4-1.9,3.4-3.5,5.9-4.7,2.5-1.2,5.4-1.9,8.7-2.2v-6h5.3v5.8c3,.1,5.8.4,8.4,1s5.2,1.4,7.7,2.5l-3.7,9.1c-2.1-.9-4.3-1.6-6.4-2.1-2.1-.5-4.2-.8-6.1-1v11.5c2.9,1.1,5.6,2.2,8.2,3.5s4.7,2.8,6.3,4.8,2.5,4.4,2.5,7.6-1.4,7.1-4.2,9.7c-2.8,2.6-7.1,4.2-12.8,4.7v8h-5.3ZM357.1,342.8v-9.2c-1.1.2-2,.4-2.7.8-.8.3-1.3.8-1.7,1.3s-.6,1.2-.6,1.9.2,1.4.5,2,.9,1.1,1.6,1.6,1.7,1,2.9,1.5h0ZM362.5,365.9c1.8-.3,3.1-.8,4-1.6.9-.8,1.3-1.8,1.3-3s-.2-1.4-.6-1.9c-.4-.6-1-1.1-1.8-1.6-.8-.5-1.8-1-2.9-1.5v9.7h0Z"/>
  </g>
</svg>