<?xml version="1.0" encoding="UTF-8"?>
<svg id="_圖層_2" data-name=" 圖層 2" xmlns="http://www.w3.org/2000/svg" version="1.1" viewBox="0 0 470.2 412">
  <defs>
    <style>
      .cls-1 {
        fill: #000;
      }

      .cls-1, .cls-2 {
        stroke-width: 0px;
      }

      .cls-3 {
        stroke-width: 16.6px;
      }

      .cls-3, .cls-4 {
        fill: none;
        stroke: #000;
        stroke-linecap: round;
        stroke-linejoin: round;
      }

      .cls-4 {
        stroke-width: 15px;
      }

      .cls-2 {
        fill: #fff;
      }
    </style>
  </defs>
  <g id="_圖層_1-2" data-name=" 圖層 1-2">
    <path class="cls-1" d="M196,52.2v15.2c0,2-.2,3.6-.6,4.8-.4,1.2-1.1,2.3-2.2,3.3-1.1,1-2.4,1.9-4.1,2.8-4.8,2.6-9.4,4.5-13.8,5.7s-9.2,1.8-14.5,1.8-11.6-.9-16.6-2.8-9.3-4.6-12.8-8.1-6.2-7.9-8.1-12.9c-1.9-5.1-2.8-10.7-2.8-17s.9-11.8,2.7-16.9c1.8-5.1,4.5-9.4,8.1-13,3.6-3.6,7.9-6.3,13-8.2,5.1-1.9,10.9-2.8,17.4-2.8s10,.7,14.1,2.1c4.1,1.4,7.4,3.2,10,5.4s4.5,4.4,5.8,6.8,1.9,4.6,1.9,6.4-.7,3.7-2.2,5.1-3.3,2.1-5.4,2.1-2.3-.3-3.3-.8-2-1.3-2.7-2.3c-2-3.1-3.7-5.4-5-7s-3.2-2.9-5.5-4-5.3-1.6-8.9-1.6-7,.6-9.9,1.9c-2.9,1.3-5.4,3.1-7.5,5.6-2.1,2.4-3.7,5.4-4.7,8.9s-1.6,7.4-1.6,11.7c0,9.3,2.1,16.4,6.4,21.4,4.3,5,10.2,7.5,17.8,7.5s7.2-.5,10.4-1.5c3.2-1,6.5-2.4,9.9-4.2v-12.8h-12.4c-3,0-5.2-.4-6.8-1.3-1.5-.9-2.3-2.4-2.3-4.6s.6-3.2,1.9-4.4c1.3-1.1,3-1.7,5.2-1.7h18.2c2.2,0,4.1.2,5.7.6,1.5.4,2.8,1.3,3.7,2.6s1.4,3.4,1.4,6.1h0Z"/>
    <path class="cls-1" d="M246.1,3.9c8.2,0,15.2,1.7,21.1,5,5.9,3.3,10.3,8.1,13.3,14.2,3,6.1,4.5,13.3,4.5,21.6s-.8,11.7-2.5,16.7-4.1,9.3-7.4,13c-3.3,3.7-7.4,6.5-12.2,8.4s-10.3,2.9-16.6,2.9-11.7-1-16.6-3-9-4.8-12.2-8.4-5.7-8-7.4-13.1c-1.7-5.1-2.5-10.6-2.5-16.6s.9-11.6,2.6-16.7c1.7-5.1,4.3-9.4,7.6-12.9,3.3-3.6,7.3-6.3,12.1-8.2,4.7-1.9,10.1-2.8,16.2-2.8h0ZM268.8,44.6c0-5.8-.9-10.8-2.8-15-1.9-4.2-4.5-7.5-8-9.6-3.5-2.2-7.5-3.3-11.9-3.3s-6.2.6-8.9,1.8c-2.7,1.2-5.1,3-7,5.3-2,2.3-3.5,5.2-4.6,8.8-1.1,3.6-1.7,7.6-1.7,12s.6,8.6,1.7,12.2c1.1,3.6,2.7,6.6,4.8,9s4.4,4.2,7.1,5.4c2.7,1.2,5.6,1.8,8.8,1.8s7.9-1,11.3-3.1,6.2-5.2,8.2-9.5c2-4.3,3-9.5,3-15.8h0Z"/>
    <path class="cls-1" d="M333.5,3.9c8.2,0,15.2,1.7,21.1,5,5.9,3.3,10.3,8.1,13.3,14.2,3,6.1,4.5,13.3,4.5,21.6s-.8,11.7-2.5,16.7-4.1,9.3-7.4,13c-3.3,3.7-7.4,6.5-12.2,8.4s-10.3,2.9-16.6,2.9-11.7-1-16.6-3-9-4.8-12.2-8.4-5.7-8-7.4-13.1c-1.7-5.1-2.5-10.6-2.5-16.6s.9-11.6,2.6-16.7c1.7-5.1,4.3-9.4,7.6-12.9,3.3-3.6,7.3-6.3,12.1-8.2,4.7-1.9,10.1-2.8,16.2-2.8h0ZM356.3,44.6c0-5.8-.9-10.8-2.8-15-1.9-4.2-4.5-7.5-8-9.6-3.5-2.2-7.5-3.3-11.9-3.3s-6.2.6-8.9,1.8c-2.7,1.2-5.1,3-7,5.3-2,2.3-3.5,5.2-4.6,8.8-1.1,3.6-1.7,7.6-1.7,12s.6,8.6,1.7,12.2c1.1,3.6,2.7,6.6,4.8,9,2.1,2.4,4.4,4.2,7.1,5.4,2.7,1.2,5.6,1.8,8.8,1.8s7.9-1,11.3-3.1,6.2-5.2,8.2-9.5,3-9.5,3-15.8h0Z"/>
    <path class="cls-1" d="M396.1,5.2h20.9c5.4,0,10.1.5,14,1.5s7.4,2.9,10.6,5.7c8.2,7,12.3,17.8,12.3,32.1s-.4,9.1-1.2,13c-.8,3.9-2.1,7.5-3.8,10.6-1.7,3.1-3.9,6-6.6,8.4-2.1,1.9-4.4,3.4-7,4.6-2.5,1.1-5.2,2-8.1,2.4-2.9.5-6.2.7-9.8.7h-20.9c-2.9,0-5.1-.4-6.6-1.3-1.5-.9-2.4-2.1-2.9-3.7-.4-1.6-.7-3.7-.7-6.2V15.1c0-3.4.8-6,2.3-7.5,1.5-1.5,4-2.3,7.5-2.3h0ZM402.3,17.9v53.7h12.1c2.7,0,4.7,0,6.3-.2s3.1-.5,4.7-1.1c1.6-.6,3-1.4,4.2-2.4,5.4-4.5,8-12.3,8-23.4s-1.2-13.6-3.5-17.5-5.3-6.4-8.7-7.4c-3.4-1.1-7.6-1.6-12.5-1.6h-10.6,0Z"/>
    <path class="cls-1" d="M295,118.5v41.4c0,3.6-.1,6.7-.5,9.2-.3,2.5-1,5.1-2.1,7.7-1.8,4.4-4.8,7.7-8.9,10.2-4.1,2.4-9.2,3.6-15.1,3.6s-9.8-.8-13.4-2.5c-3.6-1.7-6.5-4.4-8.7-8.2-1.1-2-2.1-4.3-2.8-7s-1.1-5.1-1.1-7.5.7-4.4,2.1-5.8c1.4-1.3,3.2-2,5.4-2s3.7.6,4.8,1.8c1.1,1.2,1.9,3.1,2.5,5.7.6,2.8,1.2,5,1.8,6.6s1.6,3.1,3.1,4.3c1.4,1.2,3.5,1.8,6.1,1.8,7.1,0,10.6-5.2,10.6-15.6v-43.7c0-3.2.7-5.7,2.1-7.3,1.4-1.6,3.4-2.4,5.8-2.4s4.4.8,5.9,2.4c1.5,1.6,2.2,4,2.2,7.3h0Z"/>
    <path class="cls-1" d="M347.1,108.8c8.2,0,15.2,1.7,21.1,5,5.9,3.3,10.3,8.1,13.3,14.2,3,6.1,4.5,13.3,4.5,21.6s-.8,11.7-2.5,16.7c-1.7,5-4.1,9.3-7.4,13-3.3,3.7-7.4,6.5-12.2,8.4-4.8,1.9-10.3,2.9-16.6,2.9s-11.7-1-16.6-3c-4.9-2-9-4.8-12.2-8.4s-5.7-8-7.4-13.1c-1.7-5.1-2.5-10.6-2.5-16.6s.9-11.6,2.6-16.7c1.7-5.1,4.3-9.4,7.6-12.9,3.3-3.6,7.3-6.3,12.1-8.2s10.1-2.8,16.2-2.8h0ZM369.9,149.5c0-5.8-.9-10.8-2.8-15-1.9-4.2-4.5-7.5-8-9.6-3.5-2.2-7.5-3.3-11.9-3.3s-6.2.6-8.9,1.8c-2.7,1.2-5.1,3-7,5.3-2,2.3-3.5,5.2-4.6,8.8s-1.7,7.6-1.7,12,.6,8.6,1.7,12.2,2.7,6.6,4.8,9c2.1,2.4,4.4,4.2,7.1,5.4,2.7,1.2,5.6,1.8,8.8,1.8s7.9-1,11.3-3.1,6.2-5.2,8.2-9.5c2-4.3,3-9.5,3-15.8h0Z"/>
    <path class="cls-1" d="M433.6,189.2h-24.2c-3.5,0-6-.8-7.5-2.3s-2.2-4.1-2.2-7.5v-59.4c0-3.5.8-6,2.3-7.5,1.5-1.5,4-2.3,7.4-2.3h25.6c3.8,0,7,.2,9.8.7s5.2,1.4,7.4,2.7c1.9,1.1,3.5,2.5,5,4.2s2.5,3.6,3.3,5.7c.8,2.1,1.1,4.3,1.1,6.5,0,7.9-4,13.7-11.9,17.4,10.4,3.3,15.6,9.7,15.6,19.3s-1.1,8.4-3.4,11.9c-2.3,3.5-5.3,6.2-9.2,7.8-2.4,1-5.2,1.7-8.3,2.1-3.1.4-6.8.6-10.9.6h0ZM415.7,122.2v20.4h14.7c4,0,7.1-.4,9.2-1.1s3.8-2.2,5-4.3c.9-1.5,1.3-3.2,1.3-5.1,0-4-1.4-6.6-4.3-8-2.8-1.3-7.2-2-13-2h-13ZM432.4,154.1h-16.7v23.1h17.2c10.8,0,16.2-3.9,16.2-11.7s-1.4-6.9-4.2-8.7c-2.8-1.8-7-2.7-12.6-2.7Z"/>
    <path class="cls-2" d="M268.5,286.6h-.3c10.6,0,19.3-8.7,19.3-19.3h0c0-10.6-8.7-19.3-19.3-19.3h-114.3c26.5-37.6,17.7-90.6,17.7-90.6,0,0,.7-19.2-23.2-29.8-19.9-8.8-21,8.8-21,8.8v37.6c0,12.2-9.9,26.5-9.9,26.5,0,0-4.6,9.3-24.3,29.8-26.5,27.6-57.4,29.8-57.4,29.8H12.6v139.2h161.7c3.5,4,8.7,6.6,14.5,6.6h54.1c10.6,0,19.3-8.7,19.3-19.3s-8.7-19.3-19.3-19.3h19.9c10.6,0,19.3-8.7,19.3-19.3h0c0-10.6-8.7-19.3-19.3-19.3h5.8c11.1,0,20.1-9.1,20.1-20.1v-1.7c0-11.1-9.1-20.1-20.1-20.1h0Z"/>
    <rect class="cls-4" x="169.4" y="367.2" width="92.8" height="38.7" rx="19.3" ry="19.3"/>
    <path class="cls-4" d="M188.7,328.6h74c10.7,0,19.3,8.7,19.3,19.3h0c0,10.7-8.7,19.3-19.3,19.3h-74c-10.7,0-19.3-8.7-19.3-19.3h0c0-10.7,8.7-19.3,19.3-19.3Z"/>
    <rect class="cls-4" x="169.4" y="247.9" width="118.2" height="38.7" rx="19.3" ry="19.3"/>
    <rect class="cls-4" x="169.4" y="286.6" width="119.3" height="42" rx="20.1" ry="20.1"/>
    <path class="cls-2" d="M20.9,259.9h0c10.2,0,18.4,8.2,18.4,18.4v102.2c0,10.2-8.2,18.4-18.4,18.4h0c-10.2,0-18.4-8.2-18.4-18.4v-102.2c0-10.2,8.2-18.4,18.4-18.4Z"/>
    <path class="cls-3" d="M12.6,260.1h23.2s30.9-2.2,57.4-29.8c19.7-20.6,24.3-29.8,24.3-29.8,0,0,9.9-14.4,9.9-26.5v-37.6s1.1-17.7,21-8.8c23.9,10.6,23.2,29.8,23.2,29.8,0,0,8.8,53-17.7,90.6"/>
    <line class="cls-3" x1="12.6" y1="399.3" x2="141.8" y2="399.3"/>
  </g>
</svg>