<?xml version="1.0" encoding="UTF-8"?>
<svg id="_圖層_2" data-name=" 圖層 2" xmlns="http://www.w3.org/2000/svg" version="1.1" viewBox="0 0 470.2 412">
  <defs>
    <style>
      .cls-1 {
        stroke-width: 0px;
      }

      .cls-1, .cls-2 {
        fill: #000;
      }

      .cls-3 {
        fill: #fff;
        stroke-width: 15px;
      }

      .cls-3, .cls-2, .cls-4 {
        stroke: #000;
        stroke-linecap: round;
        stroke-linejoin: round;
      }

      .cls-2, .cls-4 {
        stroke-width: 10px;
      }

      .cls-4 {
        fill: none;
      }
    </style>
  </defs>
  <g id="_圖層_1-2" data-name=" 圖層 1-2">
    <rect class="cls-3" x="13" y="56.5" width="129.4" height="129.4" rx="13.2" ry="13.2"/>
    <path class="cls-1" d="M88.5,153h-13.3v-36.3c0-1,0-2.2,0-3.7,0-1.5,0-3,.1-4.6,0-1.6.1-3,.2-4.2-.3.4-1,1-1.9,1.9-1,.9-1.9,1.7-2.7,2.4l-7.2,5.8-6.4-8,20.2-16.1h10.9v62.8Z"/>
    <rect class="cls-3" x="170.8" y="56.5" width="129.4" height="129.4" rx="13.2" ry="13.2"/>
    <path class="cls-1" d="M257.4,153h-43.9v-9.2l15.8-15.9c3.2-3.3,5.7-6,7.7-8.2s3.3-4.2,4.2-6c.9-1.8,1.3-3.7,1.3-5.8s-.7-4.4-2.1-5.6c-1.4-1.2-3.2-1.9-5.6-1.9s-4.8.6-7.1,1.7-4.7,2.7-7.2,4.8l-7.2-8.5c1.8-1.5,3.7-3,5.7-4.4s4.4-2.5,7-3.3,5.9-1.3,9.6-1.3,7.7.7,10.6,2.2c3,1.5,5.2,3.5,6.9,6.1s2.4,5.5,2.4,8.7-.7,6.6-2.1,9.5c-1.4,2.9-3.4,5.7-6,8.5-2.6,2.8-5.8,5.9-9.5,9.3l-8.1,7.6v.6h27.4v11.2h0Z"/>
    <rect class="cls-3" x="328.6" y="56.5" width="129.4" height="129.4" rx="13.2" ry="13.2"/>
    <path class="cls-1" d="M412.7,104.3c0,2.9-.6,5.4-1.8,7.5-1.2,2.1-2.8,3.9-4.9,5.2-2,1.3-4.3,2.3-6.9,3v.3c5,.6,8.9,2.2,11.5,4.6,2.6,2.5,3.9,5.8,3.9,9.9s-.9,6.9-2.7,9.8-4.5,5.2-8.3,6.8c-3.7,1.7-8.5,2.5-14.4,2.5s-6.7-.3-9.7-.8c-3-.6-5.8-1.4-8.4-2.6v-11.3c2.7,1.4,5.5,2.4,8.5,3.1,3,.7,5.7,1.1,8.2,1.1,4.8,0,8.1-.8,10-2.5,1.9-1.6,2.9-4,2.9-6.9s-.4-3.2-1.3-4.4-2.4-2.1-4.6-2.7c-2.2-.6-5.2-.9-9.2-.9h-4.8v-10.2h4.9c3.9,0,6.8-.4,8.8-1.1,2-.7,3.4-1.7,4.1-3,.7-1.3,1.1-2.7,1.1-4.4s-.7-4-2.1-5.2-3.7-1.9-6.9-1.9-3.8.3-5.5.7c-1.6.5-3.1,1.1-4.5,1.8-1.3.7-2.5,1.4-3.5,2l-6.1-9.2c2.5-1.8,5.3-3.3,8.7-4.4,3.3-1.2,7.3-1.8,11.8-1.8,6.5,0,11.6,1.3,15.4,3.9,3.8,2.6,5.7,6.3,5.7,11h0Z"/>
    <rect class="cls-3" x="13" y="226.9" width="129.4" height="129.4" rx="13.2" ry="13.2"/>
    <path class="cls-1" d="M101,310.4h-7.6v13h-13v-13h-26.8v-9.2l27.5-40.5h12.2v39.5h7.6v10.3h0ZM80.5,300v-10.7c0-1,0-2.2,0-3.6s0-2.7.1-4.1c0-1.4.1-2.6.2-3.7,0-1.1.1-1.8.1-2.3h-.3c-.5,1.2-1.1,2.3-1.7,3.4-.6,1.1-1.3,2.3-2.1,3.5l-11.5,17.4h15.1,0Z"/>
    <rect class="cls-3" x="170.8" y="226.9" width="129.4" height="129.4" rx="13.2" ry="13.2"/>
    <rect class="cls-3" x="328.6" y="226.9" width="129.4" height="129.4" rx="13.2" ry="13.2"/>
    <rect class="cls-2" x="204.1" y="286.3" width="62.9" height="40.9"/>
    <path class="cls-4" d="M250,285.6v-17.2c0-7.3-5.9-13.2-13.2-13.2h-1.3c-7.3,0-13.2,5.9-13.2,13.2v17.2"/>
    <rect class="cls-2" x="362.5" y="286.3" width="62.9" height="40.9"/>
    <path class="cls-4" d="M408.5,285.6v-17.2c0-7.3-5.9-13.2-13.2-13.2h-1.3c-7.3,0-13.2,5.9-13.2,13.2v17.2"/>
  </g>
</svg>