<?xml version="1.0" encoding="UTF-8"?>
<svg id="_圖層_2" data-name=" 圖層 2" xmlns="http://www.w3.org/2000/svg" version="1.1" viewBox="0 0 470.2 412">
  <defs>
    <style>
      .cls-1 {
        fill: #000;
        stroke-width: 0px;
      }

      .cls-2 {
        fill: #fff;
      }

      .cls-2, .cls-3 {
        stroke: #000;
        stroke-linecap: round;
        stroke-linejoin: round;
        stroke-width: 15px;
      }

      .cls-3 {
        fill: none;
      }
    </style>
  </defs>
  <g id="_圖層_1-2" data-name=" 圖層 1-2">
    <path class="cls-2" d="M317,304.7h119.1c20.3,0,18.5-22.5,18.5-22.5v-46c0-41.8-38.2-68.9-38.2-68.9h-198.9s-38.2,27.1-38.2,68.9v46s-1.8,22.5,18.5,22.5h119.1"/>
    <line class="cls-3" x1="227.7" y1="238.5" x2="227.7" y2="304.7"/>
    <path class="cls-2" d="M358.8,215.9c36.1-19.6,79.8-73.5,79.8-73.5C357.7,5.1,317,11.9,317,11.9h0s-40.7-6.8-121.7,130.4c0,0,43.7,53.9,79.8,73.5"/>
    <path class="cls-2" d="M317,101.3s96.2,4.1,121.7,41"/>
    <path class="cls-2" d="M317,199.8s58.4-15.4,58.4-46v-43.2"/>
    <path class="cls-3" d="M406,224.1v44h-99.9s-16.1-.2-16.1,20.2c0,0,1.1,16.4,15.4,16.4"/>
    <path class="cls-2" d="M325.2,272s9.1,15.6-1,32.7"/>
    <path class="cls-3" d="M85,272l11.2-56.1s-.7-17.3,21.3-24.9,31.8-9.6,31.8-9.6c0,0,19.6-6,32.2,8.5l116.7,114.8"/>
    <circle class="cls-2" cx="81.5" cy="335.7" r="65.2"/>
    <path class="cls-1" d="M77.4,384.5v-11.8c-5.2-.1-9.8-.6-13.9-1.5s-7.8-2.1-11.2-3.5v-15.5c3.3,1.6,7.3,3.1,11.9,4.4,4.6,1.3,9,2.1,13.2,2.4v-18.2c-6.2-2.4-11.1-4.8-14.8-7.1-3.7-2.3-6.4-4.8-8-7.6s-2.4-6.1-2.4-10.1,1.1-7.4,3.2-10.4c2.1-2.9,5.1-5.2,8.9-7,3.8-1.8,8.2-2.9,13.1-3.3v-9h8v8.7c4.5.2,8.8.7,12.7,1.6,3.9.9,7.8,2.2,11.6,3.8l-5.5,13.7c-3.2-1.3-6.4-2.4-9.6-3.1-3.2-.7-6.3-1.2-9.1-1.5v17.3c4.3,1.6,8.5,3.3,12.4,5.2,3.9,1.9,7.1,4.3,9.6,7.2,2.5,2.9,3.7,6.7,3.7,11.4s-2.1,10.7-6.4,14.7c-4.2,4-10.7,6.3-19.3,7.1v12h-8,0ZM77.4,323.7v-13.8c-1.6.2-3,.6-4.1,1.1-1.1.5-2,1.2-2.6,2-.6.8-.9,1.8-.9,2.9s.3,2.1.8,3c.5.9,1.4,1.7,2.5,2.4,1.1.7,2.6,1.5,4.3,2.3h0ZM85.4,358.5c2.7-.5,4.8-1.3,6-2.4s1.9-2.7,1.9-4.5-.3-2.1-.9-2.9c-.6-.9-1.5-1.7-2.7-2.4-1.2-.8-2.7-1.5-4.4-2.3v14.6h0Z"/>
    <path class="cls-2" d="M317.1,101.3s-96.2,4.1-121.7,41"/>
    <path class="cls-2" d="M317.1,199.8s-58.4-15.4-58.4-46v-43.2"/>
  </g>
</svg>