<?xml version="1.0" encoding="UTF-8"?>
<svg id="_圖層_2" data-name=" 圖層 2" xmlns="http://www.w3.org/2000/svg" version="1.1" viewBox="0 0 470.2 412">
  <defs>
    <style>
      .cls-1 {
        fill: #000;
      }

      .cls-1, .cls-2 {
        stroke-width: 0px;
      }

      .cls-3, .cls-4 {
        stroke: #000;
        stroke-linecap: round;
        stroke-linejoin: round;
        stroke-width: 20px;
      }

      .cls-3, .cls-2 {
        fill: #fff;
      }

      .cls-4 {
        fill: none;
      }
    </style>
  </defs>
  <g id="_圖層_1-2" data-name=" 圖層 1-2">
    <line class="cls-4" x1="56.1" y1="34.1" x2="90.1" y2="53.2"/>
    <line class="cls-4" x1="66.7" y1="138.1" x2="46.6" y2="138.1"/>
    <line class="cls-4" x1="56.1" y1="241.4" x2="90.1" y2="222.1"/>
    <line class="cls-4" x1="414.9" y1="34.1" x2="380.9" y2="53.2"/>
    <line class="cls-4" x1="404.3" y1="138.1" x2="424.4" y2="138.1"/>
    <line class="cls-4" x1="414.9" y1="241.4" x2="380.9" y2="222.1"/>
    <path class="cls-2" d="M184.8,297.3c-1.1-8.5,1.1-24.4-27.6-48.8-32.2-27.4-41.4-61.6-41.4-61.6,0,0-25.5-84.9,30.8-138,0,0,25.1-27.9,57.9-34,0,0,66.4-16.5,119.9,34,56.2,53.1,30.8,138,30.8,138,0,0-9.2,34.2-41.4,61.6-28.6,24.4-26.5,40.3-27.6,48.8"/>
    <path class="cls-4" d="M204.5,15s66.4-16.5,119.9,34c56.2,53.1,30.8,138,30.8,138,0,0-9.2,34.1-41.4,61.6-28.6,24.4-26.5,40.3-27.6,48.8"/>
    <path class="cls-4" d="M146.6,48.9c-56.2,53.1-30.8,138-30.8,138,0,0,9.2,34.1,41.4,61.6,28.6,24.4,26.5,40.3,27.6,48.8"/>
    <path class="cls-3" d="M184,297.3h102.9c10.3,0,18.6,8.3,18.6,18.6h0c0,10.3-8.3,18.6-18.6,18.6h-102.9c-10.3,0-18.6-8.3-18.6-18.6h0c0-10.3,8.3-18.6,18.6-18.6Z"/>
    <path class="cls-3" d="M286.4,336.5v44.6c0,11.7-9.6,21.2-21.2,21.2h-59.4c-11.7,0-21.2-9.5-21.2-21.2v-44.6"/>
    <circle class="cls-1" cx="167.9" cy="30.4" r="9"/>
    <line class="cls-4" x1="175.5" y1="368.4" x2="295.4" y2="368.4"/>
    <path class="cls-1" d="M290.7,117.9c0,10.1-3.7,18.3-11.1,24.5-4,3.4-10.3,8.3-21.6,16.3-2.9,1.2-4.3,3.5-4.3,4.9v6.8c0,4.3-1.8,7.6-5.4,10.1-3.5,2.5-7.6,3.7-12.4,3.7s-9-1.2-12.2-3.5c-3.8-2.5-5.6-5.9-5.4-10.3l.2-12.8c.1-8.8,3.3-15.2,9.5-19.1,1.2-.8,6.9-4,17.1-7.7,6.1-2.1,9.1-9.6,9.1-14,0-8.3-5.9-12.4-17.7-12.4s-8.4.9-11.1,2.7c-2.7,1.8-5.2,5.2-7.4,10.3-3.4,7.8-9.2,11.7-17.5,11.7s-9.1-1.6-12.8-4.7c-3.6-2.8-5.4-6.6-5.4-11.3,0-13,6.3-23.6,18.9-31.9,10.9-7.3,22.7-10.9,35.6-10.9s27.2,4,37.3,12.1c11.1,8.9,16.7,20.7,16.7,35.4h0ZM261.2,221.5c0,6.1-2.4,11.3-7.2,15.7-4.8,4.3-10.6,6.4-17.3,6.4s-12.5-2.2-17.3-6.6c-4.7-4.3-7-9.5-7-15.6s2.4-11.3,7.2-15.7c4.7-4.3,10.4-6.4,17.1-6.4s12.5,2.2,17.3,6.6c4.8,4.3,7.2,9.5,7.2,15.6Z"/>
  </g>
</svg>