<?xml version="1.0" encoding="UTF-8"?>
<svg id="_圖層_2" data-name=" 圖層 2" xmlns="http://www.w3.org/2000/svg" version="1.1" viewBox="0 0 470.2 412">
  <defs>
    <style>
      .cls-1 {
        fill: #000;
        stroke-width: 0px;
      }

      .cls-2 {
        fill: #fff;
        stroke: #000;
        stroke-linecap: round;
        stroke-linejoin: round;
        stroke-width: 15px;
      }
    </style>
  </defs>
  <g id="_圖層_1-2" data-name=" 圖層 1-2">
    <path class="cls-2" d="M117,274.1l-21.3,1.7c-11.9,1-22.5-8-23.4-19.9l-3.1-38.2c-1-11.9,8-22.5,20-23.4l16.5-1.3"/>
    <path class="cls-2" d="M354,274.1l21.3,1.7c11.9,1,22.5-8,23.4-19.9l3.1-38.2c1-11.9-8-22.5-20-23.4l-16.5-1.3"/>
    <path class="cls-2" d="M345,89.4l-109.4-18.5-109.4,18.5-20.5,87,1.1,54.1s4,72.3,59.8,113.8c0,0,32.8,25.2,68.9,25.2s68.9-25.2,68.9-25.2c55.8-41.6,59.9-113.8,59.9-113.8l1.1-54.1-20.5-87h0Z"/>
    <path class="cls-2" d="M162.7,183.5s21.5-23.9,42.7,1.1"/>
    <path class="cls-1" d="M184,202.1h0c4.5,0,8.2,3.7,8.2,8.2v10.9c0,4.5-3.7,8.2-8.2,8.2h0c-4.5,0-8.2-3.7-8.2-8.2v-10.9c0-4.5,3.7-8.2,8.2-8.2Z"/>
    <path class="cls-2" d="M381.1,133.9c0-45.9-19.4-71.7-19.4-71.7-38-50.1-86.5-48.8-86.5-48.8h-79.4s-48.5-1.3-86.5,48.8c0,0-19.4,25.8-19.4,71.7,0,0-.7,41.1,26.5,41.1h11s23.6-.9,23.6-19.4v-24.4s1.1-24.4,24.8-24.4h119.4c23.7,0,24.8,24.4,24.8,24.4v24.4c0,18.5,23.6,19.4,23.6,19.4h11c27.1,0,26.5-41.1,26.5-41.1h0Z"/>
    <path class="cls-2" d="M308.3,183.5s-21.4-23.9-42.7,1.1"/>
    <path class="cls-1" d="M287,229.4h0c-4.5,0-8.2-3.7-8.2-8.2v-10.9c0-4.5,3.7-8.2,8.2-8.2h0c4.5,0,8.2,3.7,8.2,8.2v10.9c0,4.5-3.7,8.2-8.2,8.2Z"/>
    <path class="cls-2" d="M218.7,399.4v-129.2s-.9-13.1,12.3-13.2c14.9,0,14.2,11.7,14.2,11.7v46.3h35.3c0,0,16.7,1,13.6,16.6-2.8,13.7-20.9,67.8-20.9,67.8h-54.4,0Z"/>
  </g>
</svg>