<?xml version="1.0" encoding="UTF-8"?>
<svg id="_圖層_2" data-name=" 圖層 2" xmlns="http://www.w3.org/2000/svg" version="1.1" viewBox="0 0 470.2 412">
  <defs>
    <style>
      .cls-1 {
        fill: #000;
        stroke-width: 0px;
      }

      .cls-2 {
        fill: #fff;
      }

      .cls-2, .cls-3 {
        stroke: #000;
        stroke-linecap: round;
        stroke-linejoin: round;
        stroke-width: 20px;
      }

      .cls-3 {
        fill: none;
      }
    </style>
  </defs>
  <g id="_圖層_1-2" data-name=" 圖層 1-2">
    <path class="cls-2" d="M261.7,154H87.4c-24,0-43.6,19.6-43.6,43.6v202.4l37.5-35c2,.3,4,.4,6,.4h174.3c24,0,43.6-19.6,43.6-43.6v-124.2c0-24-19.6-43.6-43.6-43.6h0Z"/>
    <line class="cls-3" x1="85.9" y1="212.9" x2="198.3" y2="212.9"/>
    <line class="cls-3" x1="85.9" y1="257.5" x2="250.2" y2="257.5"/>
    <line class="cls-3" x1="85.9" y1="302" x2="250.2" y2="302"/>
    <path class="cls-2" d="M320.7,12.9h-18.1c-58.6,0-106.5,47.9-106.5,106.5h0c0,58.6,47.9,106.5,106.5,106.5h18.1c11.1,0,21.8-1.7,31.9-4.9l34.1,34.1v-52.3c24.6-19.6,40.5-49.7,40.5-83.4h0c0-58.6-47.9-106.5-106.5-106.5h0Z"/>
    <path class="cls-1" d="M270.4,91.2c0-5.2,1.7-10.6,5.1-16s8.3-9.9,14.8-13.4,14-5.3,22.6-5.3,15.1,1.5,21.2,4.4c6.1,3,10.9,7,14.2,12.1,3.4,5.1,5,10.6,5,16.6s-1,8.8-2.9,12.4c-1.9,3.5-4.2,6.6-6.8,9.2-2.6,2.6-7.3,6.9-14.1,13-1.9,1.7-3.4,3.2-4.5,4.5-1.1,1.3-2,2.5-2.5,3.6s-1,2.2-1.3,3.2c-.3,1.1-.8,3-1.4,5.7-1,5.8-4.3,8.6-9.9,8.6s-5.3-.9-7.3-2.8c-2-1.9-3-4.7-3-8.4s.7-8.7,2.2-12.1,3.4-6.4,5.7-9,5.6-5.6,9.6-9.2c3.5-3.1,6.1-5.4,7.7-7s2.9-3.3,4-5.3c1.1-1.9,1.6-4,1.6-6.3,0-4.4-1.6-8.2-4.9-11.2-3.3-3-7.5-4.6-12.7-4.6s-10.6,1.5-13.4,4.6c-2.9,3.1-5.3,7.6-7.3,13.6-1.9,6.2-5.4,9.4-10.7,9.4s-5.7-1.1-7.8-3.3c-2.1-2.2-3.2-4.6-3.2-7.1h0ZM310.8,182.2c-3.4,0-6.3-1.1-8.8-3.3-2.5-2.2-3.8-5.2-3.8-9.2s1.2-6.4,3.6-8.8,5.4-3.6,9-3.6,6.4,1.2,8.8,3.6c2.4,2.4,3.6,5.3,3.6,8.8s-1.2,6.9-3.7,9.1c-2.5,2.2-5.4,3.3-8.6,3.3h0Z"/>
  </g>
</svg>