<?xml version="1.0" encoding="UTF-8"?><svg id="_圖層_2" xmlns="http://www.w3.org/2000/svg" viewBox="0 0 466.3 406.76"><defs><style>.cls-1{fill:#fff;stroke-width:22px;}.cls-1,.cls-2{stroke:#000;stroke-linecap:round;stroke-linejoin:round;}.cls-2{fill:none;stroke-width:30px;}</style></defs><g id="_圖層_1-2"><path class="cls-1" d="M416.56,11H49.73c-21.3,0-38.73,17.43-38.73,38.73v249.19c0,21.3,17.43,38.73,38.73,38.73h126.42l1.92.28,55.62,57.82,55.62-57.82,1.92-.28h125.32c21.3,0,38.73-17.43,38.73-38.73V49.73c0-21.3-17.43-38.73-38.73-38.73Z"/><path class="cls-2" d="M235.2,103.77l14.15-14.15c17.83-17.83,47-17.83,64.82,0h0c17.83,17.83,17.83,47,0,64.82l-31.5,31.5c-17.83,17.83-47,17.83-64.82,0h0"/><path class="cls-2" d="M231.09,238.43l-14.15,14.15c-17.83,17.83-47,17.83-64.82,0h0c-17.83-17.83-17.83-47,0-64.82l31.5-31.5c17.83-17.83,47-17.83,64.82,0h0"/></g></svg>