<?xml version="1.0" encoding="UTF-8"?>
<svg id="_圖層_2" data-name=" 圖層 2" xmlns="http://www.w3.org/2000/svg" version="1.1" viewBox="0 0 470.2 412">
  <defs>
    <style>
      .cls-1 {
        fill: #000;
        stroke-width: 0px;
      }

      .cls-2 {
        fill: #fff;
        stroke: #000;
        stroke-linecap: round;
        stroke-linejoin: round;
        stroke-width: 17px;
      }
    </style>
  </defs>
  <g id="_圖層_1-2" data-name=" 圖層 1-2">
    <circle class="cls-2" cx="129.6" cy="99.7" r="85.8"/>
    <path class="cls-1" d="M164,148.5h-67.9v-14.3l24.4-24.6c4.9-5,8.9-9.3,11.9-12.7,3-3.4,5.2-6.5,6.5-9.3s2-5.8,2-9-1.1-6.7-3.2-8.7-5-2.9-8.6-2.9-7.4.9-11,2.6c-3.5,1.7-7.2,4.2-11.1,7.4l-11.2-13.2c2.8-2.4,5.7-4.6,8.9-6.8s6.8-3.8,10.9-5.1,9.1-2,14.9-2,11.9,1.2,16.4,3.5c4.6,2.3,8.1,5.4,10.6,9.4,2.5,4,3.7,8.4,3.7,13.4s-1.1,10.3-3.2,14.7-5.2,8.8-9.3,13.2c-4.1,4.3-8.9,9.1-14.6,14.4l-12.5,11.8v.9h42.3v17.3h0Z"/>
    <circle class="cls-2" cx="341.4" cy="100.2" r="85.8"/>
    <path class="cls-1" d="M372,73.7c0,4.5-.9,8.3-2.8,11.6-1.9,3.3-4.4,6-7.5,8-3.2,2.1-6.7,3.6-10.7,4.6v.4c7.8,1,13.7,3.4,17.8,7.2,4.1,3.8,6.1,8.9,6.1,15.3s-1.4,10.7-4.2,15.2c-2.8,4.5-7,8-12.8,10.6-5.8,2.6-13.2,3.9-22.2,3.9s-10.4-.4-15-1.3-9-2.2-13.1-4v-17.5c4.2,2.1,8.5,3.7,13.1,4.8,4.6,1.1,8.8,1.6,12.8,1.6,7.3,0,12.5-1.3,15.4-3.8,2.9-2.5,4.4-6.1,4.4-10.7s-.7-5-2.1-6.8c-1.4-1.9-3.8-3.3-7.1-4.3s-8.1-1.5-14.2-1.5h-7.4v-15.7h7.5c6,0,10.5-.6,13.6-1.7,3.1-1.1,5.2-2.7,6.4-4.6s1.7-4.2,1.7-6.7-1.1-6.1-3.2-8.1c-2.1-1.9-5.7-2.9-10.6-2.9s-5.9.4-8.5,1.2-4.8,1.7-6.9,2.8-3.8,2.1-5.4,3.1l-9.5-14.1c3.8-2.7,8.3-5,13.4-6.8,5.1-1.8,11.2-2.7,18.3-2.7s17.9,2,23.8,6c5.8,4,8.8,9.7,8.8,17.1h0Z"/>
    <circle class="cls-2" cx="129.6" cy="312.6" r="85.8"/>
    <path class="cls-1" d="M131.5,299.4c5.9,0,11.2,1.1,15.8,3.4,4.6,2.3,8.3,5.6,10.9,10s4,9.8,4,16.2-1.5,13-4.3,18.1c-2.9,5.1-7.2,9-13,11.7-5.7,2.7-12.9,4.1-21.4,4.1s-9.9-.4-14.4-1.3c-4.5-.9-8.4-2.2-11.8-4v-17.7c3.4,1.8,7.4,3.3,12.1,4.5,4.7,1.2,9.1,1.8,13.3,1.8s7.5-.5,10.3-1.6,4.9-2.8,6.3-5,2.2-5.2,2.2-8.7-1.6-8.4-4.8-10.9-8.1-3.8-14.7-3.8-5.1.2-7.9.7c-2.7.5-5,1-6.8,1.5l-8.2-4.4,3.7-49.5h52.7v17.4h-34.7l-1.8,19.1c1.5-.3,3.1-.6,4.9-.9,1.8-.3,4.3-.5,7.4-.5h0Z"/>
    <circle class="cls-2" cx="341.4" cy="313.1" r="85.8"/>
    <path class="cls-1" d="M317.6,361.9l36.5-79.8h-47.9v-17.3h69.7v12.9l-36.7,84.2h-21.5Z"/>
  </g>
</svg>