<?xml version="1.0" encoding="UTF-8"?>
<svg id="_圖層_2" data-name=" 圖層 2" xmlns="http://www.w3.org/2000/svg" version="1.1" viewBox="0 0 470.2 412">
  <defs>
    <style>
      .cls-1 {
        fill: #fff;
      }

      .cls-1, .cls-2 {
        stroke: #000;
        stroke-linecap: round;
        stroke-linejoin: round;
        stroke-width: 20px;
      }

      .cls-2 {
        fill: none;
      }
    </style>
  </defs>
  <g id="_圖層_1-2" data-name=" 圖層 1-2">
    <path class="cls-1" d="M142.6,202.1h-31.3c-13.4,0-24.4-11-24.4-24.4h0c0-13.4,11-24.4,24.4-24.4h15.5"/>
    <path class="cls-1" d="M328.4,202.1h31.3c13.4,0,24.4-11,24.4-24.4h0c0-13.4-11-24.4-24.4-24.4h-15.5"/>
    <ellipse class="cls-1" cx="235.5" cy="89.3" rx="85.3" ry="76.3"/>
    <path class="cls-1" d="M375.4,399.8v-31.4c0-51.3-42-93.3-93.3-93.3h-93.3c-51.3,0-93.3,42-93.3,93.3v31.4h279.8Z"/>
    <line class="cls-2" x1="146.5" y1="350.6" x2="146.5" y2="397.3"/>
    <line class="cls-2" x1="324.5" y1="351.2" x2="324.5" y2="397.8"/>
    <path class="cls-1" d="M351.3,63.3c-62.8,26.9-110.1,26.6-115.5,26.4h0s0,0-.3,0h-.3c-5.4.2-52.8.5-115.5-26.4,0,0-18,166.9,115.5,242.9v.3c0,0,.2-.1.3-.1,0,0,.2.1.3.1v-.3c133.5-76,115.5-242.9,115.5-242.9Z"/>
    <line class="cls-2" x1="176.4" y1="142.3" x2="204" y2="155"/>
    <line class="cls-2" x1="294.6" y1="142.3" x2="267.1" y2="155"/>
    <path class="cls-2" d="M267.2,211.2c-8.2,12.5-19.4,20.1-31.7,20.1s-23.5-7.7-31.7-20.1"/>
  </g>
</svg>