<?xml version="1.0" encoding="UTF-8"?>
<svg id="_圖層_2" data-name=" 圖層 2" xmlns="http://www.w3.org/2000/svg" version="1.1" viewBox="0 0 470.2 412">
  <defs>
    <style>
      .cls-1 {
        fill: #000;
        stroke-width: 0px;
      }

      .cls-2 {
        fill: #fff;
      }

      .cls-2, .cls-3 {
        stroke: #000;
        stroke-linecap: round;
        stroke-linejoin: round;
        stroke-width: 20px;
      }

      .cls-3 {
        fill: none;
      }
    </style>
  </defs>
  <g id="_圖層_1-2" data-name=" 圖層 1-2">
    <polyline class="cls-2" points="220.1 120.2 266.2 74.2 329.4 137.3 283.3 183.4"/>
    <circle class="cls-2" cx="155.8" cy="248.5" r="141.8"/>
    <path class="cls-3" d="M297.8,105.7l15.3-15.3s18.7-20.4,33.6-5.6c13.7,13.7,10.3,10.3,10.3,10.3,0,0,12,14.3,30.3-4"/>
    <line class="cls-3" x1="389.8" y1="56.7" x2="389.8" y2="22.5"/>
    <line class="cls-3" x1="422.8" y1="93.4" x2="457" y2="93.4"/>
    <line class="cls-3" x1="389.7" y1="164.3" x2="389.7" y2="130.1"/>
    <path class="cls-1" d="M193,199.9c-11-2.1-20.9.7-29.3,8.2-2.2,2-4.2,4.2-6.3,6.3-.4.5-.8.6-1.1.6-.3,0-.7-.1-1.1-.6-2-2.2-4.1-4.3-6.3-6.3-8.4-7.5-18.3-10.3-29.3-8.2-17,3.2-27.8,18.6-27.5,35,.2,9,3.5,16.9,9.9,23.3,17,17.3,34,34.5,51.1,51.7,1.1,1.1,2.2,1.7,3.3,1.6,1.1,0,2.2-.5,3.3-1.6,17-17.2,34.1-34.5,51.1-51.7,6.3-6.5,9.8-14.3,9.9-23.3.3-16.4-10.5-31.8-27.5-35h0Z"/>
  </g>
</svg>