<?xml version="1.0" encoding="UTF-8"?><svg id="_圖層_2" xmlns="http://www.w3.org/2000/svg" viewBox="0 0 1058.82 292.42"><defs><style>.cls-1{fill:#c00;}.cls-1,.cls-2{stroke:#000;stroke-miterlimit:10;stroke-width:10px;}.cls-2{fill:#000;}.cls-3{fill:#fff;stroke-width:0px;}</style></defs><g id="_圖層_1-2"><rect class="cls-2" x="5" y="22.57" width="1048.82" height="264.85" rx="132.42" ry="132.42"/><rect class="cls-1" x="5" y="5" width="1048.82" height="264.85" rx="132.42" ry="132.42"/><path class="cls-3" d="M342.12,94.83c-3.42,10.89-7.83,20.61-13.68,29.07,1.89,4.77,4.05,7.56,6.48,7.56,1.8,0,2.7-3.6,3.15-12.96,2.16,2.25,5.67,4.5,8.1,5.49-1.53,14.13-4.59,17.73-12.24,17.73-5.31,0-9.36-3.33-12.6-8.91-3.24,3.6-6.75,6.75-10.71,9.63-.99-1.53-2.7-3.42-4.32-5.04h-26.64v3.69h-9.09v-29.25c-.72.72-1.44,1.44-2.16,2.07-1.53-1.62-5.04-4.59-7.02-6.03,5.67-4.68,10.98-12.15,13.95-19.62l8.91,2.43c-.81,1.98-1.8,3.96-2.88,5.94h8.1c-.9-1.71-1.89-3.51-2.88-4.95l7.92-3.24c1.8,2.43,3.6,5.67,4.68,8.19h9.36v7.92h-11.16v3.78h9.63v6.3h-9.63v3.96h9.63v6.3h-9.63v4.14h10.62v2.52c3.24-2.7,6.39-5.76,9.18-9.27-2.7-9.18-4.32-20.97-5.22-34.02h-48.15v-8.91h18.45v-5.31h-14.58v-8.73h14.58v-6.57h10.44v6.57h13.95v8.73h-13.95v5.31h18.81c-.27-6.66-.45-13.59-.45-20.52h10.62c-.18,7.02-.09,13.95.18,20.52h23.4v8.91h-22.95c.54,8.28,1.44,15.84,2.61,22.23,2.97-5.67,5.49-11.79,7.38-18.45l9.81,2.79ZM288.84,104.55h-9.18v3.78h9.18v-3.78ZM288.84,114.63h-9.18v3.96h9.18v-3.96ZM279.66,129.03h9.18v-4.14h-9.18v4.14ZM335.37,78.36c-2.07-3.78-7.11-9.27-11.34-13.14l7.47-5.13c4.41,3.51,9.72,8.73,12.06,12.42l-8.19,5.85Z"/><path class="cls-3" d="M433.11,61.62v81h-10.44v-3.15h-56.7v3.15h-9.9V61.62h77.04ZM422.67,130.74v-60.3h-56.7v60.3h56.7ZM419.97,90.33v5.85h-50.94v-5.85h20.52v-2.7h-13.23v-14.31h35.91v14.31h-13.68v2.7h21.42ZM373.17,98.79h42.21v28.98h-42.21v-28.98ZM381.36,121.83h25.38v-17.19h-25.38v17.19ZM384.78,82.32h18.45v-3.6h-18.45v3.6ZM385.05,107.25h18.27v11.97h-18.27v-11.97ZM390.72,114.72h6.48v-2.88h-6.48v2.88Z"/><path class="cls-3" d="M456.24,99.78c-2.97-2.79-9.09-6.39-14.04-8.64l5.85-7.83c4.95,1.89,11.34,5.04,14.4,7.83l-6.21,8.64ZM463.98,112.92c-2.97,9.63-6.93,19.98-10.62,28.8l-9.63-5.49c3.33-6.93,8.1-18.36,11.61-28.89l8.64,5.58ZM459.57,76.38c-2.88-2.88-9-6.84-13.95-9.09l6.03-7.92c4.86,2.07,11.16,5.67,14.22,8.37l-6.3,8.64ZM479.37,124.26c-2.97,6.84-7.83,14.22-12.15,18.72-1.98-1.62-6.03-4.23-8.37-5.49,4.23-4.05,8.37-10.08,10.8-15.93l9.72,2.7ZM494.31,120.84h-27.18v-58.68h27.18v58.68ZM484.95,71.43h-8.82v7.56h8.82v-7.56ZM484.95,87.54h-8.82v7.65h8.82v-7.65ZM484.95,103.83h-8.82v7.74h8.82v-7.74ZM490.35,120.84c3.33,4.14,7.56,9.99,9.45,13.77l-8.46,5.04c-1.71-3.78-5.76-9.81-9.09-14.31l8.1-4.5ZM508.08,119.76h-9.27v-52.02h9.27v52.02ZM523.38,58.74v71.91c0,5.49-.99,8.28-4.14,9.9-3.15,1.71-7.83,2.07-14.85,2.07-.36-2.79-1.71-7.29-3.06-10.26,4.59.18,8.91.18,10.35.18,1.53-.09,1.98-.54,1.98-1.89V58.74h9.72Z"/><path class="cls-3" d="M531.84,134.61c1.71-5.22,3.06-13.5,3.69-19.44l5.31,1.89c-.54,5.94-1.71,14.49-3.24,19.53l-5.76-1.98ZM585.66,116.52c-.54,2.34-1.17,4.68-1.89,6.93,3.24,1.98,6.66,4.59,8.46,6.57l-5.22,6.93c-1.44-1.53-3.87-3.69-6.39-5.58-2.16,4.5-4.77,8.37-7.74,11.43-1.35-1.53-4.68-4.23-6.75-5.76-.27.9-.54,1.53-.9,1.98-1.35,1.98-2.88,2.7-4.95,2.97-1.8.36-4.59.45-7.47.36-.09-2.43-.99-5.76-2.07-7.92,2.25.27,4.14.27,5.04.27.99,0,1.62-.09,2.25-.99.54-.9.9-3.06,1.26-7.74l-3.15,1.17c-.63-3.15-2.16-8.01-3.6-11.61l3.78-1.26c1.17,2.61,2.34,5.94,3.15,8.73.18-2.88.27-6.48.45-10.8h-23.49v-50.13h31.14v8.73h-9.18v5.94h7.74v2.07c9.54-5.31,18.27-13.5,23.04-21.33l9.54,3.33c-.54.99-1.17,1.89-1.8,2.79,5.4,4.77,13.23,9.54,20.16,12.15-1.53,2.43-3.33,7.11-3.96,9.81-2.79-1.44-5.58-3.06-8.37-4.95v5.94h-26.46v-4.5c-2.07,1.35-4.14,2.61-6.21,3.87-1.26-1.71-3.96-4.59-5.94-6.21v4.95h-7.74v5.31h8.01v7.83h-8.01v5.67h9.99s0,2.34-.09,3.42c-.45,16.74-.9,25.38-1.98,29.52,5.31-5.04,8.73-12.87,10.35-21.42l9,1.53ZM546.24,116.7c.45,5.13.72,11.88.72,16.38l-4.68.54c.18-4.5-.09-11.34-.45-16.56l4.41-.36ZM544.71,70.8v5.94h5.58v-5.94h-5.58ZM550.29,84.66h-5.58v5.31h5.58v-5.31ZM544.71,103.47h5.58v-5.67h-5.58v5.67ZM551.46,115.71c1.08,4.68,2.25,10.62,2.61,14.49l-4.5.9c-.27-3.96-1.35-10.08-2.43-14.67l4.32-.72ZM570.72,91.32h19.26v21.87h-19.26v-21.87ZM577.65,106.44h4.95v-8.46h-4.95v8.46ZM601.59,78.45c-3.51-2.61-6.93-5.31-9.99-8.1-2.52,2.88-5.49,5.58-8.64,8.1h18.63ZM608.16,116.16c-.63,3.6-1.44,7.11-2.52,10.44,3.78,2.52,8.1,5.67,10.44,7.92l-6.21,7.29c-1.71-1.89-4.77-4.41-7.83-6.75-1.53,2.88-3.33,5.58-5.31,7.74-1.53-1.62-5.49-4.59-7.74-5.94,5.22-5.13,8.28-13.32,9.63-22.32l9.54,1.62ZM592.86,91.32h19.98v21.87h-19.98v-21.87ZM599.79,106.44h5.67v-8.46h-5.67v8.46Z"/><path class="cls-3" d="M652.35,93.12c2.34,6.03,4.86,13.95,5.67,18.72l-8.1,2.88c-.18-1.26-.45-2.7-.81-4.14-18.18,2.52-21.42,3.33-23.49,4.32-.54-1.98-2.07-6.66-3.24-9.36,2.34-.54,4.23-2.52,7.11-5.76,1.17-1.26,3.42-3.96,5.94-7.56-7.11.81-9.18,1.35-10.44,1.98-.54-1.98-2.07-6.48-3.15-9.09,1.8-.45,3.24-2.16,5.13-4.86,1.98-2.61,7.83-12.6,11.25-22.14l9.45,3.96c-3.42,7.47-8.01,15.21-12.69,21.69l6.39-.45c2.16-3.6,4.41-7.56,6.21-11.34l8.73,5.49c-5.22,9-11.79,18.27-18.63,25.92l9.27-.99c-.63-2.43-1.44-4.77-2.16-6.93l7.56-2.34ZM634.26,119.13c-.72,8.1-2.16,16.74-4.05,22.23-1.8-.99-5.94-2.25-8.1-2.88,2.07-5.22,3.15-13.41,3.69-20.7l8.46,1.35ZM643.8,117.51c1.26,6.39,2.34,14.76,2.7,20.34l-8.1,1.62c-.18-5.49-1.17-14.04-2.25-20.52l7.65-1.44ZM652.89,114.81c2.07,5.67,4.23,12.78,5.04,17.64l-7.47,2.52c-.72-4.77-2.88-12.24-4.68-17.82l7.11-2.34ZM686.19,79.53v10.26h17.01v9.81h-43.65v-9.81h15.66v-10.26h-18.18v-9.9h18.18v-11.07h10.98v11.07h19.17v9.9h-19.17ZM661.17,106.53h39.87v35.82h-10.44v-3.51h-19.44v3.87h-9.99v-36.18ZM671.16,116.16v13.05h19.44v-13.05h-19.44Z"/><path class="cls-3" d="M768.09,115.53c7.92,6.39,18.9,12.15,29.16,15.12-2.43,2.16-5.67,6.39-7.2,9.09-10.44-3.96-21.42-10.98-29.79-19.17v22.14h-11.34v-21.69c-8.28,8.28-19.26,15.3-29.97,19.26-1.62-2.52-4.86-6.66-7.29-8.91,10.71-3.15,21.87-9.09,29.43-15.84h-26.64v-9.81h34.47v-5.31h-25.74v-37.62h63.18v37.62h-26.1v5.31h34.38v9.81h-26.55ZM734.43,77.46h14.49v-5.76h-14.49v5.76ZM748.92,91.5v-5.76h-14.49v5.76h14.49ZM774.57,71.7h-14.31v5.76h14.31v-5.76ZM774.57,85.74h-14.31v5.76h14.31v-5.76Z"/><path class="cls-3" d="M165.74,218.62v4.7h-44.75v-4.7h18.25v-38.1h5v14.85h18.05v4.65h-18.05v18.6h21.5Z"/><path class="cls-3" d="M209.59,211.27h6.75v3.7h-6.75v6.2c0,2.25-.45,3.4-2.15,3.95-1.65.65-4.25.65-7.95.65-.2-1.2-.8-2.8-1.35-3.95,2.7.1,5.25.1,6.05.05.7,0,.9-.2.9-.85v-6.05h-12.95c2.1,1.8,4.5,4.25,5.65,5.95l-3.6,2.45c-1.2-1.85-3.85-4.75-6.1-6.8l2.65-1.6h-7.5v-3.7h21.85v-2.75c-7.6.25-14.95.45-20.45.55l-.4-3.6c3.65,0,8.4-.05,13.55-.15v-2.6h-11.3v-13.4h11.3v-2.4h-13.3v-3.1c-1.15,2.75-2.5,5.45-3.95,8.05v33.75h-4.4v-26.85c-1.4,1.9-2.85,3.65-4.3,5.2-.45-1.1-1.8-3.6-2.55-4.7,4.7-4.65,9.15-11.95,11.85-19.25l4.35,1.3c-.25.7-.55,1.4-.85,2.1h13.15v-3.2h4.55v3.2h13.5v3.5h-13.5v2.4h11.75v13.4h-3.05c2.2,1.8,4.45,4,5.65,5.55l-3.3,2.05c-.45-.6-1-1.3-1.65-2.05l-2.15.1v2.9ZM190.74,194.67h7.05v-2.6h-7.05v2.6ZM197.79,199.97v-2.65h-7.05v2.65h7.05ZM202.34,192.07v2.6h7.25v-2.6h-7.25ZM209.59,199.97v-2.65h-7.25v2.65h7.25ZM202.34,205.27l6.25-.1c-.8-.75-1.6-1.45-2.4-2.1l.6-.35h-4.45v2.55Z"/><path class="cls-3" d="M265.69,219.57v4.35h-44.55v-4.35h19.65v-8.2h-15.2v-4.3h15.2v-5.75h4.85v5.75h15.7v4.3h-15.7v8.2h20.05ZM260.09,202.52c-.75-1-1.7-2.15-2.9-3.4-26.25,1.15-29.2,1.2-31.25,1.95-.25-.95-1-3.3-1.5-4.55,1-.2,2.1-1,3.4-2.3,1.15-.9,4.05-3.95,6.75-7.5h-12.25v-4.3h41.7v4.3h-23.45c-2.6,3.45-5.5,6.65-8.25,9.25l20.95-.7c-1.85-1.7-3.8-3.35-5.6-4.75l3.7-2.45c4.45,3.3,10.1,8.2,12.75,11.65l-4.05,2.8Z"/><path class="cls-3" d="M315.09,220.42v4h-43.4v-4h19.35v-4.6h-13.4v-3.65h13.4v-3.95h-11.45c-1.6,2-3.25,3.8-4.85,5.2-.9-.8-2.8-2.25-3.95-2.85,3.55-2.65,6.85-6.7,8.75-10.85h-2.85v-18h33.35v18h-29.75l3.9,1.15c-.55,1.15-1.25,2.3-1.9,3.45h8.75v-3.6h4.8v3.6h16.1v3.9h-16.1v3.95h13.95v3.65h-13.95v4.6h19.25ZM281.24,188.92h24v-3.55h-24v3.55ZM281.24,196.07h24v-3.7h-24v3.7Z"/><path class="cls-3" d="M329.99,194.32v2.35c0,8.55-.75,20.95-5.9,29.1-.9-.75-2.95-1.95-4.15-2.4,4.95-7.7,5.4-18.75,5.4-26.7v-14.55h37.55v12.2h-32.9ZM329.99,186.12v4.25h28.25v-4.25h-28.25ZM363.49,213.32c-2.2,1.65-4.9,3.3-7.25,4.5,2.8,1.9,6.15,3.25,10.1,4.05-1,.9-2.2,2.6-2.8,3.85-8.8-2.2-14.7-7.2-18.1-14.7h-6.05v9.15l9.7-2.05c-.2,1.2-.35,2.95-.3,3.9-11.8,2.7-13.4,3.15-14.4,3.8v.05c-.3-1.15-1.2-3-1.85-3.85,1-.55,2.55-1.85,2.55-4.15v-6.85h-4.95v-3.9h8.2v-4.45h-6.95v-3.95h6.95v-4.35h4.25v4.35h8.9v-4.35h4.35v4.35h7.85v3.95h-7.85v4.45h9.9v3.9h-5.6l3.35,2.3ZM342.59,207.12h8.9v-4.45h-8.9v4.45ZM349.89,211.02c.9,1.65,2.05,3.15,3.4,4.45,2.3-1.3,4.9-3.05,6.6-4.45h-10Z"/><path class="cls-3" d="M373.19,184.97h21.8v4.85h-16v11.25h13.6v4.85h-13.6v15.85h-5.8v-36.8Z"/><path class="cls-3" d="M401.49,184.97h11.4c7.55,0,13,2.4,13,9.05,0,3.5-1.95,6.85-5.25,7.95v.25c4.2.9,7.25,3.75,7.25,8.75,0,7.3-5.95,10.8-14.1,10.8h-12.3v-36.8ZM412.24,200.32c5.6,0,7.95-2.1,7.95-5.55,0-3.85-2.6-5.3-7.8-5.3h-5.1v10.85h4.95ZM413.14,217.22c5.75,0,9.05-2.05,9.05-6.55,0-4.15-3.2-5.95-9.05-5.95h-5.85v12.5h5.85Z"/><path class="cls-3" d="M441.39,202.82c-2.05-1.4-6.2-3.8-9.2-5.35l2.55-3.45c2.85,1.4,7.1,3.6,9.2,4.95l-2.55,3.85ZM433.19,221.97c2.65-3.75,6.5-10.15,9.4-15.8l3.35,3.1c-2.55,5.15-5.9,11.15-8.85,15.8l-3.9-3.1ZM443.74,189.32c-2.05-1.45-6.2-3.85-9.15-5.5l2.6-3.3c2.9,1.4,7.15,3.65,9.3,5.05l-2.75,3.75ZM464.54,198.77v7.4h10.3v19.25h-4.4v-1.85h-16.55v2.1h-4.25v-19.5h10.5v-7.4h-13.9v-4.45h13.9v-7.1c-3.5.55-7.1.95-10.4,1.2-.2-1.1-.8-2.85-1.35-3.9,8.55-.9,18.25-2.5,23.75-4.55l3.65,3.6c-3.2,1.2-7.1,2.15-11.25,2.9v7.85h13.25v4.45h-13.25ZM470.44,210.37h-16.55v9h16.55v-9Z"/><path class="cls-3" d="M526.89,191.22s-.05,1.6-.05,2.15c-.55,20.65-1,27.75-2.6,29.9-.95,1.5-2,1.9-3.55,2.15-1.5.2-3.8.2-6.15.05-.1-1.25-.6-3.15-1.3-4.4,2.3.2,4.35.2,5.25.2.85,0,1.3-.15,1.8-.8,1.1-1.4,1.6-7.75,2-24.95h-5.9c-.65,13.3-2.9,23.9-11.5,30.5-.7-1.05-2.25-2.7-3.35-3.45.3-.2.6-.45.9-.7-7.2.85-14.4,1.6-19.75,2.1l-.6-3.95c2.9-.2,6.5-.5,10.45-.85v-3.8h-9.1v-3.4h9.1v-2.55h-8.95v-15.05h8.95v-2.6h-10.3v-3.45h10.3v-2.8c-3.05.25-6.1.4-8.9.5-.15-.95-.65-2.45-1.1-3.35,7.4-.4,16.25-1.3,21.45-2.45l2.2,3.5c-2.65.55-5.95,1.05-9.4,1.4v3.2h10.1v2.9h5.25c.05-3.4.05-6.95.05-10.7h4.45c0,3.7-.05,7.3-.1,10.7h10.35ZM487.39,200.47h5.15v-3.05h-5.15v3.05ZM492.54,206.37v-3.05h-5.15v3.05h5.15ZM496.79,218.77c3.1-.3,6.3-.6,9.45-.95,4.1-5.65,5.35-13.2,5.75-22.3h-5.3v-3.75h-9.9v2.6h9.3v15.05h-9.3v2.55h9.4v3.4h-9.4v3.4ZM502.14,200.47v-3.05h-5.35v3.05h5.35ZM496.79,203.32v3.05h5.35v-3.05h-5.35Z"/><path class="cls-3" d="M537.04,209.72c3.85-1.45,6.1-3.75,6.35-6.75-.2.05-.45.05-.7.05-2.25,0-4.2-1.4-4.2-4s1.95-4,4.25-4c3.15,0,4.8,2.45,4.8,6.25,0,5.55-3.5,9.85-9.2,11.7l-1.3-3.25Z"/><path class="cls-3" d="M573.94,205.42c-1.95.6-3.85,1.15-5.75,1.7v13.5c0,2.35-.5,3.55-1.9,4.25-1.45.7-3.6.85-6.95.8-.15-1.1-.75-3-1.35-4.2,2.1.1,4.2.1,4.8.05.65,0,.95-.2.95-.95v-12.1c-2.15.6-4.15,1.2-6.05,1.75l-1.15-4.5c2-.5,4.5-1.15,7.2-1.85v-10h-6.5v-4.3h6.5v-9.7h4.45v9.7h5.2v4.3h-5.2v8.8l5.2-1.45.55,4.2ZM601.99,191.07v34.2h-4.65v-3.2h-18.05v3.55h-4.4v-34.55h11.1v-11.15h4.4v11.15h11.6ZM579.29,195.52v8.65h6.7v-8.65h-6.7ZM579.29,217.62h6.7v-9.15h-6.7v9.15ZM590.39,195.52v8.65h6.95v-8.65h-6.95ZM597.34,217.62v-9.15h-6.95v9.15h6.95Z"/><path class="cls-3" d="M621.29,218.57c2.9,1.1,6.55,1.4,11.1,1.4,3,.05,17.4.05,21.1-.1-.75,1.1-1.6,3.2-1.9,4.6h-19.15c-10,0-16-1.45-19.75-7.7-.5,3.5-1.35,6.5-2.6,8.95-.75-.55-2.7-1.65-3.75-2.1,2.75-4.95,3.15-12.8,3.25-21.45l4.15.3c-.05,2.4-.15,4.7-.25,6.95.9,2.85,2.05,5,3.65,6.5v-16.85h-9.45v-4.15h8.7v-5.45h-7.7v-4.05h7.7v-5.6h4.25v5.6h7.5v4.05h-7.5v5.45h8.45v1.75c3.9-2.35,6-5.85,6.8-10.9h-6.25v-3.95h21.8s0,1.15-.05,1.7c-.4,8.7-.9,12.2-2,13.5-.85.95-1.75,1.3-3.1,1.45-1.15.1-3.2.15-5.4.05-.1-1.2-.55-2.85-1.2-3.95,1.9.2,3.7.2,4.4.2s1.15-.1,1.5-.5c.6-.7.95-2.9,1.25-8.5h-6.55c-1.05,6.9-3.95,11.35-8.9,14.4-.5-.5-1.45-1.3-2.3-1.95v.85h-7.8v6.35h7.25v4.05h-7.25v9.1ZM631.14,200.92h19.2v15.45h-19.2v-15.45ZM635.49,212.57h10.25v-7.85h-10.25v7.85Z"/><path class="cls-3" d="M701.94,188.87h-29.2c1,1.7,2.25,3.95,2.9,5.3l-3.65,1.4h11.95c1.15-1.95,2.5-4.7,3.25-6.6l4.65,1c-1.1,1.9-2.3,3.9-3.5,5.6h11.05v25.4c0,2.3-.55,3.25-2.15,3.85-1.6.6-4.2.65-8.35.65-.2-1.1-.8-2.55-1.4-3.55,2.9.1,5.75.1,6.45.05.85,0,1.15-.25,1.15-1v-21.65h-9.1v2.4c0,1.1.1,1.5,1,1.5h3.55c.75,0,2.15-.05,2.85-.25.1,1.1.15,2.2.3,3.25-.65.2-1.95.25-3.05.25h-4.65c-3.45,0-4.1-1.55-4.1-4.8v-2.35h-4.75c-.75,4.9-3,7.65-9.85,9.15-.35-1-1.25-2.4-2.1-3.15v20.3h-4.4v-30.05h10.6c-.6-1.5-1.85-3.9-2.75-5.55l3.35-1.15h-13.8v-3.95h20.15c-.45-1.4-1.05-3-1.55-4.3l4.45-1.1c.7,1.7,1.5,3.8,2,5.4h18.7v3.95ZM665.19,205.27c5.45-1,7.25-2.7,7.85-5.95h-7.85v5.95ZM674.44,219.47v2.2h-3.9v-13.85h18.65v11.65h-14.75ZM674.44,211.17v4.95h10.95v-4.95h-10.95Z"/><path class="cls-3" d="M721.69,211.12c-.85-1.4-2.45-3.55-3.9-5.55v20.15h-4.2v-18.9c-1.6,1.8-3.3,3.35-4.95,4.65-.3-1.35-1.3-3.8-1.9-4.65,4.45-3.15,8.95-8.65,11.55-14.35h-10.55v-4.2h7.35c-.75-1.75-2.35-4.25-3.8-6.1l3.35-2.15c1.75,1.9,3.45,4.5,4.25,6.25l-2.95,2h4.6l.8-.2,2.4,1.65c-1.25,3.8-3.1,7.4-5.25,10.75,1.85,1.85,5.15,5.75,6.1,6.8l-2.9,3.85ZM752.89,221.27v3.55h-29.85v-3.55h8.6c-.5-1.4-1.15-3-1.7-4.35l3.55-1.05c.85,1.7,1.7,3.9,2.15,5.4h5.1c.75-1.7,1.75-3.9,2.2-5.45l4.15,1.15c-.85,1.5-1.75,3-2.55,4.3h8.35ZM752.34,204.02h-28.4v-3.45h28.4v3.45ZM750.84,198.42h-25.25v-14.6h7v-3.95h3.7v3.95h3.65v-3.95h3.7v3.95h7.2v14.6ZM727.09,215.77v-9.55h22.25v9.55h-22.25ZM729.39,189.67h3.8v-2.95h-3.8v2.95ZM729.39,195.47h3.8v-3h-3.8v3ZM730.99,212.82h14.35v-3.7h-14.35v3.7ZM739.94,189.67v-2.95h-3.65v2.95h3.65ZM736.29,192.47v3h3.65v-3h-3.65ZM746.94,186.72h-3.9v2.95h3.9v-2.95ZM746.94,192.47h-3.9v3h3.9v-3Z"/><path class="cls-3" d="M790.29,200.72c3.35,3.25,8.15,5.85,13.35,7.15-1.05.9-2.35,2.65-3,3.8-2.45-.75-4.8-1.8-7-3.1-.6,9.5-1.25,13.45-2.7,14.95-.95,1.05-2.05,1.45-3.55,1.6-1.45.15-3.95.15-6.6.05-.1-1.35-.55-3.25-1.35-4.4,2.45.25,4.8.3,5.75.25.85.05,1.35-.1,1.8-.5.8-.85,1.35-3.65,1.85-10.2h-11c-1.4,7.25-4.75,12.4-15.3,15.3-.45-1.2-1.7-3.05-2.6-3.95,9.1-2.15,11.85-5.95,13-11.35h-7.15v-1.95c-1.85,1.2-3.9,2.35-6.15,3.35-.5-1.15-1.85-2.95-2.9-3.85,4.55-1.9,8.3-4.35,11.3-7.15h-9.85v-4.15h13.65c1.05-1.4,1.95-2.8,2.75-4.3h-13.4v-4.1h7.75c-.85-1.7-2.3-3.95-3.6-5.7l3.65-1.75c1.6,1.85,3.45,4.4,4.15,6.15l-2.5,1.3h5.85c1.1-2.8,1.75-5.7,2.15-8.55l4.9.5c-.45,2.7-1.1,5.4-2,8.05h5.25c1.5-2.1,3.3-5.1,4.3-7.25l4.3,1.35c-1.25,2.1-2.75,4.2-4.05,5.9h7.25v4.1h-18.75c-.7,1.5-1.5,2.9-2.3,4.3h24.4v4.15h-11.65ZM790.09,206.12c-2-1.55-3.75-3.4-5.2-5.4h-10.4c-1.6,1.9-3.5,3.75-5.55,5.4h21.15Z"/><path class="cls-3" d="M806.34,217.52l2.75-3.75c2.1,2.1,4.75,3.95,8.6,3.95,4.15,0,7.3-2.95,7.3-7.85s-2.8-7.7-7-7.7c-2.35,0-3.75.7-5.9,2.1l-2.8-1.85,1.1-17.45h18.65v4.85h-13.65l-.85,9.45c1.55-.8,3.05-1.3,5.05-1.3,6.15,0,11.2,3.65,11.2,11.7s-5.95,12.75-12.4,12.75c-5.8,0-9.45-2.35-12.05-4.9Z"/><path class="cls-3" d="M835.84,203.22c0-12.75,4.65-18.95,11.9-18.95s11.9,6.25,11.9,18.95-4.7,19.2-11.9,19.2-11.9-6.4-11.9-19.2ZM854.14,203.22c0-10.55-2.65-14.4-6.4-14.4s-6.4,3.85-6.4,14.4,2.65,14.65,6.4,14.65,6.4-4,6.4-14.65Z"/><path class="cls-3" d="M864.34,203.22c0-12.75,4.65-18.95,11.9-18.95s11.9,6.25,11.9,18.95-4.7,19.2-11.9,19.2-11.9-6.4-11.9-19.2ZM882.64,203.22c0-10.55-2.65-14.4-6.4-14.4s-6.4,3.85-6.4,14.4,2.65,14.65,6.4,14.65,6.4-4,6.4-14.65Z"/><path class="cls-3" d="M931.69,220.47c1.85,0,2.15-1.3,2.35-8.7,1.1.85,3.1,1.65,4.35,2-.5,8.65-1.7,11.1-6.35,11.1h-6.65c-4.95,0-6.25-1.55-6.25-6.45v-16.7h-8.55c-.9,10.55-3.15,19.2-14.9,23.9-.5-1.2-1.85-2.85-2.9-3.75,10.45-3.9,12.15-11.35,12.85-20.15h-12.05v-4.5h43.95v4.5h-13.6v16.65c0,1.8.3,2.1,2.1,2.1h5.65ZM933.19,188.02h-35.2v-4.5h35.2v4.5Z"/></g></svg>