<?xml version="1.0" encoding="UTF-8"?><svg id="_圖層_2" xmlns="http://www.w3.org/2000/svg" viewBox="0 0 689.37 230.92"><defs><style>.cls-1{fill:#c00;}.cls-1,.cls-2{stroke:#000;stroke-miterlimit:10;stroke-width:11.08px;}.cls-3{fill:#fff;stroke-width:0px;}.cls-2{fill:#000;}</style></defs><g id="_圖層_1-2"><rect class="cls-2" x="16.11" y="19.94" width="667.72" height="205.44" rx="102.72" ry="102.72"/><rect class="cls-1" x="5.54" y="5.54" width="667.72" height="205.44" rx="102.72" ry="102.72"/><path class="cls-3" d="M141.07,101.33v59.62h-12.76V62.39h42.35v38.94h-29.59ZM141.07,71.74v5.61h17.27v-5.61h-17.27ZM158.34,91.87v-6.05h-17.27v6.05h17.27ZM190.57,136.2v22.66h-11.44v-22.66h-10.56c-1.1,7.59-4.73,18.26-14.08,24.64-1.87-2.31-5.83-5.72-8.36-7.48,7.04-4.4,10.12-11.55,11.22-17.16h-11.11v-10.67h11.55v-8.25h-10.01v-10.34h53.13v10.34h-10.34v8.25h12.1v10.67h-12.1ZM179.13,125.53v-8.25h-10.23v8.25h10.23ZM221.04,145.66c0,6.71-1.21,10.34-5.17,12.43-3.96,2.2-9.68,2.53-18.04,2.53-.44-3.63-2.2-9.57-3.96-12.98,4.95.22,10.34.22,11.99.11,1.76,0,2.31-.66,2.31-2.2v-44h-30.25v-39.16h43.12v83.27ZM190.35,71.74v5.61h17.82v-5.61h-17.82ZM208.17,92.09v-6.27h-17.82v6.27h17.82Z"/><path class="cls-3" d="M272.63,91.1c-.22,11.33-1.65,24.75-6.93,37.95,4.84,4.51,9.24,8.58,12.1,11.99l-8.03,10.23c-2.53-2.97-5.94-6.71-10.01-10.67-4.51,7.26-10.56,14.08-18.81,20.24-1.76-2.75-6.05-6.93-8.8-8.91,8.36-5.94,14.3-12.87,18.59-19.91-5.5-5.06-11-10.01-15.84-14.19,2.09-6.6,4.18-15.29,6.05-24.53l-7.15.44-1.21-11.66c3.19-.11,6.71-.22,10.45-.44,1.32-7.81,2.42-15.73,2.97-22.77l12.1.77c-.77,6.71-1.76,14.08-3.08,21.45l5.94-.33v-7.04h11.66v6.38l4.84-.22-.11,10.89-4.73.33ZM252.94,92.53c-1.54,7.59-3.3,14.96-4.95,21.45,2.64,2.09,5.28,4.4,7.92,6.71,3.63-10.01,4.73-20.13,4.95-28.71l-7.92.55ZM326.2,110.79c-.66-2.2-1.65-4.73-2.75-7.26-35.86,3.08-41.36,3.63-45.43,5.28-.77-2.53-2.75-8.8-4.18-12.21,2.31-.66,4.29-2.86,6.93-6.82,2.75-3.74,10.45-17.82,15.18-31.46l13.64,3.63c-4.73,11.22-11,22.66-17.05,31.9l24.86-1.76c-2.75-4.62-5.72-9.24-8.58-13.2l10.45-5.17c7.59,9.57,15.07,22.22,18.15,31.02l-11.22,6.05ZM278.68,114.97h51.48v45.87h-12.54v-4.29h-26.95v4.4h-11.99v-45.98ZM290.67,126.41v18.59h26.95v-18.59h-26.95Z"/><path class="cls-3" d="M359.97,108.48c-3.63-3.41-11.11-7.81-17.16-10.56l7.15-9.57c6.05,2.31,13.86,6.16,17.6,9.57l-7.59,10.56ZM369.43,124.54c-3.63,11.77-8.47,24.42-12.98,35.2l-11.77-6.71c4.07-8.47,9.9-22.44,14.19-35.31l10.56,6.82ZM364.04,79.88c-3.52-3.52-11-8.36-17.05-11.11l7.37-9.68c5.94,2.53,13.64,6.93,17.38,10.23l-7.7,10.56ZM388.24,138.4c-3.63,8.36-9.57,17.38-14.85,22.88-2.42-1.98-7.37-5.17-10.23-6.71,5.17-4.95,10.23-12.32,13.2-19.47l11.88,3.3ZM406.5,134.22h-33.22V62.5h33.22v71.72ZM395.06,73.83h-10.78v9.24h10.78v-9.24ZM395.06,93.52h-10.78v9.35h10.78v-9.35ZM395.06,113.43h-10.78v9.46h10.78v-9.46ZM401.66,134.22c4.07,5.06,9.24,12.21,11.55,16.83l-10.34,6.16c-2.09-4.62-7.04-11.99-11.11-17.49l9.9-5.5ZM423.33,132.9h-11.33v-63.58h11.33v63.58ZM442.03,58.32v87.89c0,6.71-1.21,10.12-5.06,12.1-3.85,2.09-9.57,2.53-18.15,2.53-.44-3.41-2.09-8.91-3.74-12.54,5.61.22,10.89.22,12.65.22,1.87-.11,2.42-.66,2.42-2.31V58.32h11.88Z"/><path class="cls-3" d="M452.37,151.05c2.09-6.38,3.74-16.5,4.51-23.76l6.49,2.31c-.66,7.26-2.09,17.71-3.96,23.87l-7.04-2.42ZM518.15,128.94c-.66,2.86-1.43,5.72-2.31,8.47,3.96,2.42,8.14,5.61,10.34,8.03l-6.38,8.47c-1.76-1.87-4.73-4.51-7.81-6.82-2.64,5.5-5.83,10.23-9.46,13.97-1.65-1.87-5.72-5.17-8.25-7.04-.33,1.1-.66,1.87-1.1,2.42-1.65,2.42-3.52,3.3-6.05,3.63-2.2.44-5.61.55-9.13.44-.11-2.97-1.21-7.04-2.53-9.68,2.75.33,5.06.33,6.16.33,1.21,0,1.98-.11,2.75-1.21.66-1.1,1.1-3.74,1.54-9.46l-3.85,1.43c-.77-3.85-2.64-9.79-4.4-14.19l4.62-1.54c1.43,3.19,2.86,7.26,3.85,10.67.22-3.52.33-7.92.55-13.2h-28.71v-61.27h38.06v10.67h-11.22v7.26h9.46v2.53c11.66-6.49,22.33-16.5,28.16-26.07l11.66,4.07c-.66,1.21-1.43,2.31-2.2,3.41,6.6,5.83,16.17,11.66,24.64,14.85-1.87,2.97-4.07,8.69-4.84,11.99-3.41-1.76-6.82-3.74-10.23-6.05v7.26h-32.34v-5.5c-2.53,1.65-5.06,3.19-7.59,4.73-1.54-2.09-4.84-5.61-7.26-7.59v6.05h-9.46v6.49h9.79v9.57h-9.79v6.93h12.21s0,2.86-.11,4.18c-.55,20.46-1.1,31.02-2.42,36.08,6.49-6.16,10.67-15.73,12.65-26.18l11,1.87ZM469.97,129.16c.55,6.27.88,14.52.88,20.02l-5.72.66c.22-5.5-.11-13.86-.55-20.24l5.39-.44ZM468.1,73.06v7.26h6.82v-7.26h-6.82ZM474.92,90h-6.82v6.49h6.82v-6.49ZM468.1,112.99h6.82v-6.93h-6.82v6.93ZM476.35,127.95c1.32,5.72,2.75,12.98,3.19,17.71l-5.5,1.1c-.33-4.84-1.65-12.32-2.97-17.93l5.28-.88ZM499.89,98.14h23.54v26.73h-23.54v-26.73ZM508.36,116.62h6.05v-10.34h-6.05v10.34ZM537.62,82.41c-4.29-3.19-8.47-6.49-12.21-9.9-3.08,3.52-6.71,6.82-10.56,9.9h22.77ZM545.65,128.5c-.77,4.4-1.76,8.69-3.08,12.76,4.62,3.08,9.9,6.93,12.76,9.68l-7.59,8.91c-2.09-2.31-5.83-5.39-9.57-8.25-1.87,3.52-4.07,6.82-6.49,9.46-1.87-1.98-6.71-5.61-9.46-7.26,6.38-6.27,10.12-16.28,11.77-27.28l11.66,1.98ZM526.95,98.14h24.42v26.73h-24.42v-26.73ZM535.42,116.62h6.93v-10.34h-6.93v10.34Z"/></g></svg>