<?xml version="1.0" encoding="UTF-8"?><svg id="_圖層_2" xmlns="http://www.w3.org/2000/svg" viewBox="0 0 289.61 137.1"><defs><style>.cls-1{fill:none;stroke:#464646;stroke-linecap:round;stroke-linejoin:round;stroke-width:9.08px;}.cls-2{fill:#fff;}.cls-2,.cls-3{stroke-width:0px;}.cls-3{fill:#ea8b92;}</style></defs><g id="_圖層_1-2"><path class="cls-3" d="M272.13,105.06H70.4l-37.02,27.5,5.77-27.5h-21.66c-7.15,0-12.95-5.77-12.95-12.89V17.43c0-7.12,5.8-12.89,12.95-12.89h254.64c7.15,0,12.95,5.77,12.95,12.89v74.74c0,7.12-5.8,12.89-12.95,12.89Z"/><path class="cls-1" d="M272.13,105.06H70.4l-37.02,27.5,5.77-27.5h-21.66c-7.15,0-12.95-5.77-12.95-12.89V17.43c0-7.12,5.8-12.89,12.95-12.89h254.64c7.15,0,12.95,5.77,12.95,12.89v74.74c0,7.12-5.8,12.89-12.95,12.89Z"/><path class="cls-2" d="M84.24,51.45c0,.86-.04,1.79-.12,2.73,2.53,8.35,7.78,14.1,17.12,16.18-.82.86-1.92,2.4-2.45,3.46-7.95-2.12-12.88-6.77-15.98-13.69-1.96,5.01-6.4,10.15-16.51,13.69-.45-.86-1.63-2.28-2.49-3.02,15.28-5.3,16.51-13.94,16.51-19.44v-2.61h3.91v2.69ZM73.56,46.56c-1.67,3.59-3.59,6.81-5.71,9.21-.73-.65-2.53-1.87-3.55-2.4,3.95-3.99,6.97-10.56,8.68-17.36l4.08.86c-.57,2.04-1.22,4.03-1.92,5.95h21.23l.69-.2,2.98,1.06c-1.47,4.44-3.55,9.29-5.62,12.47l-3.38-1.47c1.3-2.08,2.65-5.14,3.71-8.11h-21.19Z"/><path class="cls-2" d="M109.02,63.11c-.37,3.75-1.1,7.82-1.96,10.43-.61-.33-1.96-.77-2.73-.98.94-2.57,1.51-6.44,1.88-9.94l2.81.49ZM114.6,61.48c-.08-.61-.2-1.3-.33-2.04-6.64.98-7.82,1.3-8.56,1.67-.16-.65-.61-2.16-.98-2.98.77-.16,1.59-1.22,2.69-2.77.45-.69,1.47-2.24,2.61-4.32-3.22.37-4.03.61-4.61.86-.16-.65-.61-2.12-.98-2.89.65-.2,1.22-1.02,1.87-2.28.69-1.22,2.85-5.91,3.91-10.31l3.02,1.18c-1.22,3.63-2.89,7.46-4.65,10.6l3.06-.24c.9-1.79,1.75-3.71,2.45-5.58l2.81,1.59c-2.04,4.61-4.73,9.33-7.46,13.16l4.2-.53c-.29-1.35-.65-2.69-1.06-3.91l2.36-.57c.9,2.85,1.83,6.48,2.12,8.64l-2.49.73ZM112.52,62.58c.45,2.89.86,6.64.94,9.17l-2.73.49c0-2.57-.37-6.32-.82-9.29l2.61-.37ZM115.82,61.64c.65,2,1.39,4.65,1.71,6.36l-2.49.77c-.24-1.79-.94-4.44-1.59-6.48l2.36-.65ZM140.36,47.9c-.53,5.75-1.51,11.13-3.14,15.57,1.3,3.14,2.93,5.75,4.97,7.54-.82.61-1.92,1.87-2.49,2.81-1.63-1.67-3.02-3.91-4.12-6.44-1.35,2.61-3.06,4.81-5.09,6.44-.49-.69-1.43-1.63-2.12-2.28-.16.45-.37.73-.57.98-.57.65-1.18.9-2.08.98-.69.08-2,.12-3.3.04-.04-.86-.33-2.04-.77-2.81,1.14.12,2.12.12,2.57.12s.69-.04.98-.37c.41-.49.73-2.04,1.06-5.83h-3.42c-.69,3.99-2.16,7.09-5.5,9.21-.33-.73-1.3-1.83-2-2.36,3.91-2.45,4.69-6.48,4.93-12.06h-3.06v-3.02h5.26c-.33-.81-.69-1.71-1.06-2.44l3.1-.65c.49.98,1.06,2.12,1.47,3.1h4.24v3.02h-6.81c-.04.82-.08,1.63-.16,2.4h6.28s0,.86-.04,1.26c-.29,3.95-.57,6.36-.94,7.82,2.32-1.83,4.16-4.44,5.54-7.66-.94-2.93-1.63-6.15-2.16-9.54-.45.86-.94,1.67-1.47,2.4-.33-.69-1.26-2.28-1.87-3.02h-10.96v-13.33h3.71c.24-1.14.45-2.44.57-3.38l3.63.29c-.33,1.06-.69,2.12-.94,3.1h4.69v12.02c2.12-3.95,3.14-9.5,3.75-15.36l3.22.45c-.33,2.65-.73,5.22-1.3,7.62h7.01v3.38h-1.59ZM126.13,42.48h-5.54v2.69h5.54v-2.69ZM126.13,47.7h-5.54v2.73h5.54v-2.73ZM134.12,47.9c-.12.45-.24.86-.41,1.22.49,3.38,1.06,6.64,1.92,9.66.9-3.3,1.51-6.97,1.92-10.88h-3.42Z"/><path class="cls-2" d="M171.69,67.75c3.83,1.18,7.74,2.61,10.27,3.67l-2.81,2.32c-2.65-1.26-7.25-3.06-11.74-4.48l1.55-1.51h-10.8l2.93,1.3c-3.3,1.92-8.44,3.75-12.51,4.81-.57-.77-1.96-2.12-2.73-2.77,3.99-.69,8.6-1.96,11.45-3.34h-6.28v-12.47c-1.02.29-2.12.53-3.34.73-.33-.86-1.22-2.28-1.79-2.97,4.93-.77,7.87-1.96,9.58-3.34h-6.72c.45-1.91.86-4.65,1.1-6.89h7.91v-2h-9.62v-2.36h9.62v-2.04h3.42v2.04h5.54v-2.04h3.59v2.04h8.84v6.72h-8.84v2.16h11.41s-.04.69-.08,1.1c-.24,2.32-.49,3.59-1.06,4.24-.57.53-1.3.77-2.12.82-.24.04-.53.04-.9.04v14.22h-5.87ZM152.86,45.17c-.12.73-.24,1.47-.37,2.16h4.73c.29-.69.41-1.39.49-2.16h-4.85ZM173.73,54.71h-19.03v2.08h19.03v-2.08ZM173.73,58.99h-19.03v2.12h19.03v-2.12ZM154.7,65.47h19.03v-2.16h-19.03v2.16ZM160.08,49.7c-.57.98-1.35,1.88-2.45,2.69h9.09v-2.69h-6.64ZM166.72,45.17h-5.54c0,.77-.08,1.47-.24,2.16h5.79v-2.16ZM161.18,42.81h5.54v-2h-5.54v2ZM170.31,40.81v2h5.38v-2h-5.38ZM170.31,49.7v2.69h4.32c-.12-.49-.33-.94-.49-1.3,1.1.12,2.08.16,2.49.16.45,0,.69-.04.94-.29.16-.2.29-.53.41-1.26h-7.66Z"/><path class="cls-2" d="M220.59,69.06c0,2.2-.53,3.34-2,3.91-1.51.61-3.87.69-7.62.65-.16-1.02-.77-2.69-1.26-3.67,2.61.12,5.3.08,6.07.08.73,0,1.02-.24,1.02-1.02v-7.29h-9.86v11.66h-3.79v-11.66h-9.37c-.65,4.48-2.12,9.05-5.09,12.35-.57-.73-2.12-2.04-2.97-2.49,4.44-4.93,4.85-12.14,4.85-17.89v-14.51h30.04v29.87ZM203.15,58.13v-6.03h-8.84v1.63c0,1.39-.04,2.89-.16,4.4h9.01ZM194.31,42.81v5.75h8.84v-5.75h-8.84ZM216.8,42.81h-9.86v5.75h9.86v-5.75ZM216.8,58.13v-6.03h-9.86v6.03h9.86Z"/></g></svg>