<?xml version="1.0" encoding="UTF-8"?><svg id="_圖層_2" xmlns="http://www.w3.org/2000/svg" viewBox="0 0 333.71 154.91"><defs><style>.cls-1{fill:none;stroke:#464646;stroke-linecap:round;stroke-linejoin:round;stroke-width:9.08px;}.cls-2{fill:#fff;}.cls-2,.cls-3{stroke-width:0px;}.cls-3{fill:#ea8b92;}</style></defs><g id="_圖層_1-2"><path class="cls-3" d="M19.22,119.04h167.43l41.99,31.33-6.54-31.33h92.39c8.11,0,14.68-6.57,14.68-14.68V19.22c0-8.11-6.57-14.68-14.68-14.68H19.22c-8.11,0-14.68,6.57-14.68,14.68v85.14c0,8.11,6.57,14.68,14.68,14.68Z"/><path class="cls-1" d="M19.22,119.04h167.43l41.99,31.33-6.54-31.33h92.39c8.11,0,14.68-6.57,14.68-14.68V19.22c0-8.11-6.57-14.68-14.68-14.68H19.22c-8.11,0-14.68,6.57-14.68,14.68v85.14c0,8.11,6.57,14.68,14.68,14.68Z"/><path class="cls-2" d="M116.44,67.9c-2.18,3.17-5.16,5.68-8.8,7.67,4.73,1.14,9.99,1.89,15.57,2.27-.9,1.04-1.94,2.84-2.46,4.07-6.96-.62-13.3-1.85-18.79-3.79-5.68,2.03-12.16,3.22-18.89,3.98-.33-1.04-1.42-2.84-2.22-3.69,5.59-.43,11.08-1.23,15.86-2.51-2.18-1.14-4.31-2.41-6.15-3.88-1.94,1.14-3.88,2.08-5.82,2.94-.66-.8-2.13-2.23-3.03-2.94,1.99-.71,4.02-1.56,5.92-2.56-1.14-1.18-2.22-2.37-3.12-3.69l3.46-1.47c.9,1.18,1.89,2.22,2.98,3.22,1.99-1.28,3.74-2.7,5.16-4.26-1.94-.47-2.56-1.56-2.56-3.98v-4.02h4.07v3.98c0,.99.33,1.14,2.13,1.14h6.06c1.33,0,1.61-.33,1.8-2.7.8.52,2.32.99,3.41,1.23-.38,3.69-1.51,4.64-4.73,4.64h-6.06l.47.19c-.66.85-1.47,1.7-2.27,2.46h14.53l.76-.14,2.75,1.85ZM86.19,57.72h-4.17v-8.38h8.19c-.47-1.23-1.51-2.84-2.46-4.07l2.46-.99c-1.99.09-3.98.14-5.92.19-.09-.95-.52-2.41-.9-3.31,11.55-.28,25.47-1.18,33.04-2.75l2.93,3.03c-4.92.99-11.17,1.7-17.7,2.22,1.04,1.42,2.04,3.27,2.37,4.64l-2.89,1.04h8.09c1.32-1.94,3.03-4.73,3.98-6.77l4.26,1.52c-1.23,1.8-2.6,3.69-3.83,5.25h8.09v8.85h-4.35v-5.4h-15.67c1.85.9,3.69,1.99,4.83,2.89l-2.27,2.56c-1.51-1.23-4.4-3.03-6.86-4.12l1.28-1.32h-12.5v4.92ZM83.87,61.7c2.37-1.51,4.07-4.17,4.97-6.72l3.36,1.42c-.99,2.89-2.51,5.82-5.21,7.67l-3.12-2.37ZM100.68,43.71c-2.98.24-6.06.38-9.04.52,1.14,1.32,2.22,3.08,2.6,4.31l-1.89.8h7.86c-.33-1.37-1.33-3.22-2.22-4.64l2.7-.99ZM93.96,69.84c2.46,1.61,5.25,3.03,8.47,4.12,2.84-1.18,5.35-2.7,7.29-4.45h-15.29l-.47.33ZM113.03,54.55c2.75,2.13,5.92,5.06,7.43,7.29l-3.17,2.37c-1.37-2.18-4.54-5.35-7.24-7.48l2.98-2.18Z"/><path class="cls-2" d="M141.77,39.92c-1.28,3.36-2.89,6.72-4.69,9.94v32h-4.17v-25.47c-1.33,1.85-2.7,3.5-4.07,4.97-.43-1.09-1.7-3.46-2.41-4.45,4.45-4.4,8.66-11.31,11.22-18.22l4.12,1.23ZM158.34,51.33v25.47c0,2.27-.47,3.55-1.89,4.31-1.42.71-3.55.85-6.53.85-.19-1.23-.9-3.22-1.56-4.4,2.13.05,4.17.05,4.78,0,.62,0,.85-.14.85-.76v-25.47h-6.39c-1.42,2.98-2.93,5.63-4.54,7.76-.8-.8-2.56-2.22-3.6-2.89,3.55-4.17,6.25-10.84,7.86-17.51l4.35.95c-.66,2.6-1.47,5.16-2.41,7.62h17.89l.71-.14,3.08.62c-.62,3.6-1.47,7.76-2.08,10.41l-3.74-.71c.33-1.61.66-3.83.95-6.11h-7.72ZM150.57,59.76c-1.42,6.11-3.88,12.07-6.67,15.95-.8-.71-2.75-1.85-3.74-2.37,2.79-3.5,4.92-8.95,6.11-14.39l4.31.8ZM164.92,58.52c2.6,4.92,4.83,11.27,5.59,15.53l-4.21,1.51c-.66-4.26-2.84-10.84-5.3-15.76l3.93-1.28Z"/><path class="cls-2" d="M217.27,50.48c-.52,20.26-.95,26.74-2.27,28.73-.76,1.23-1.61,1.61-2.89,1.85-1.04.19-2.65.19-4.26.09-.05-1.04-.47-2.6-1.04-3.6,1.51.09,2.65.09,3.41.09.62,0,.99-.14,1.33-.8.9-1.28,1.42-7.29,1.85-24.38h-3.93c-.52,11.88-2.13,22.39-7.67,29.39-.66-.8-1.99-1.94-2.98-2.41,1.09-1.33,1.94-2.75,2.75-4.31l-1.99.57c-.09-.8-.28-1.8-.52-2.89-8.43,2.04-9.85,2.51-10.7,3.03-.19-.76-.85-2.65-1.37-3.69l.14-.05h-7.34v3.88h-3.46v-33.46h10.79v29.58c1.04-.43,1.94-1.7,3.27-3.74.9-1.28,2.98-4.97,5.06-9.42-4.69.52-5.77.8-6.48,1.14-.24-.8-.85-2.75-1.33-3.74.8-.24,1.51-1.42,2.32-3.17.8-1.7,3.31-8.14,4.5-14.15l4.07,1.23c-1.37,5.3-3.46,10.98-5.63,15.38l4.17-.38c.66-1.47,1.18-3.03,1.7-4.54l2.98,1.14v-3.31h4.07c.05-3.27.05-6.67.05-10.03h3.83c0,3.36-.05,6.77-.14,10.03h7.72v1.94ZM183.81,46.31h-4.02v22.01h4.02v-22.01ZM200.19,64.35c.9,2.65,1.8,5.96,2.37,8.52,2.13-5.68,2.89-12.73,3.17-20.4h-3.12c-2.65,6.39-6.01,12.83-9.47,18.03l5.16-1.09c-.38-1.47-.8-2.93-1.23-4.31l3.12-.76Z"/><path class="cls-2" d="M242.18,61.84c-2.32-2.32-4.21-3.69-7.57-3.69s-6.44,2.41-8.33,6.01l-4.17-2.27c3.08-5.59,7.53-8.47,12.54-8.47,4.4,0,7.62,1.75,10.93,5.11,2.32,2.32,4.21,3.69,7.57,3.69s6.44-2.41,8.33-6.01l4.17,2.27c-3.08,5.59-7.53,8.47-12.54,8.47-4.4,0-7.62-1.75-10.93-5.11Z"/></g></svg>