<?xml version="1.0" encoding="UTF-8"?><svg id="_圖層_2" xmlns="http://www.w3.org/2000/svg" viewBox="0 0 325.75 99.98"><defs><style>.cls-1{fill:none;stroke:#464646;stroke-linecap:round;stroke-linejoin:round;stroke-width:9.08px;}.cls-2{fill:#fff;}.cls-2,.cls-3{stroke-width:0px;}.cls-3{fill:#ea8b92;}</style></defs><g id="_圖層_1-2"><path class="cls-3" d="M309.5,4.54H51.12c-6.47,0-11.71,5.22-11.71,11.65v21.42l-34.87-2.4,34.87,21.61v26.96c0,6.44,5.24,11.65,11.71,11.65h258.39c6.46,0,11.71-5.22,11.71-11.65V16.2c0-6.44-5.24-11.65-11.71-11.65Z"/><path class="cls-1" d="M309.5,4.54H51.12c-6.47,0-11.71,5.22-11.71,11.65v21.42l-34.87-2.4,34.87,21.61v26.96c0,6.44,5.24,11.65,11.71,11.65h258.39c6.46,0,11.71-5.22,11.71-11.65V16.2c0-6.44-5.24-11.65-11.71-11.65Z"/><path class="cls-2" d="M96.11,49.87l-5.62,1.59v10.51c0,1.96-.45,2.98-1.63,3.55-1.26.65-3.02.73-5.87.73-.12-.98-.65-2.57-1.14-3.59,1.79.08,3.55.08,4.03.04.57,0,.77-.2.77-.77v-9.37l-5.01,1.39-1.06-3.75c1.71-.41,3.79-.94,6.07-1.55v-7.91h-5.71v-3.59h5.71v-7.91h3.83v7.91h5.18v3.59h-5.18v6.93l5.18-1.39.45,3.59ZM118,36.26h-6.93v25.1c0,2.4-.57,3.63-2.2,4.28-1.63.69-4.24.77-8.03.77-.2-1.14-.94-3.02-1.51-4.16,2.73.16,5.71.12,6.6.12.77-.04,1.06-.29,1.06-1.02v-25.1h-10.96v-3.79h21.97v3.79Z"/><path class="cls-2" d="M130.87,51.46v10.76c0,2-.41,2.97-1.55,3.55-1.22.61-2.97.69-5.71.69-.12-.94-.65-2.53-1.14-3.51,1.71.08,3.42.08,3.91.08.57-.04.77-.2.77-.77v-9.74l-4.97,1.39-.98-3.67c1.67-.41,3.71-.9,5.95-1.51v-8.07h-5.34v-3.5h5.34v-7.91h3.71v7.91h5.22v3.5h-5.22v7.05c1.67-.41,3.38-.9,5.05-1.39l.45,3.5-5.5,1.63ZM158.67,46.29h-6.4v20.13h-3.75v-20.13h-6.77c-.08,7.09-.9,14.18-5.01,20.34-.69-.82-2-1.83-3.06-2.45,3.87-5.91,4.36-12.63,4.36-18.79v-12.51c5.87-.73,12.72-1.96,16.91-3.34l2.28,3.22c-4.24,1.3-10.11,2.32-15.49,2.97v6.93h16.91v3.63Z"/><path class="cls-2" d="M199.54,57.05h-4.81v5.22c0,2.08-.49,3.18-1.96,3.75-1.47.61-3.75.65-7.21.65-.2-1.02-.82-2.65-1.39-3.59,2.49.08,5.14.04,5.79.04.77-.04,1.02-.24,1.02-.9v-5.18h-20.5v9.62h-3.75v-9.62h-4.69v-3.5h4.69v-15.08h11.98v-3.42h-15.12v-3.5h34.36v3.5h-15.49v3.42h12.27v15.08h4.81v3.5ZM170.48,41.89v4.16h8.23v-4.16h-8.23ZM170.48,53.54h8.23v-4.28h-8.23v4.28ZM182.46,41.89v4.16h8.52v-4.16h-8.52ZM190.98,53.54v-4.28h-8.52v4.28h8.52Z"/><path class="cls-2" d="M218.36,49.87l-5.62,1.59v10.51c0,1.96-.45,2.98-1.63,3.55-1.26.65-3.02.73-5.87.73-.12-.98-.65-2.57-1.14-3.59,1.79.08,3.55.08,4.03.04.57,0,.77-.2.77-.77v-9.37l-5.01,1.39-1.06-3.75c1.71-.41,3.79-.94,6.07-1.55v-7.91h-5.71v-3.59h5.71v-7.91h3.83v7.91h5.18v3.59h-5.18v6.93l5.18-1.39.45,3.59ZM240.25,36.26h-6.93v25.1c0,2.4-.57,3.63-2.2,4.28-1.63.69-4.24.77-8.03.77-.2-1.14-.94-3.02-1.51-4.16,2.73.16,5.71.12,6.6.12.77-.04,1.06-.29,1.06-1.02v-25.1h-10.96v-3.79h21.97v3.79Z"/><path class="cls-2" d="M253.12,51.46v10.76c0,2-.41,2.97-1.55,3.55-1.22.61-2.97.69-5.71.69-.12-.94-.65-2.53-1.14-3.51,1.71.08,3.42.08,3.91.08.57-.04.77-.2.77-.77v-9.74l-4.97,1.39-.98-3.67c1.67-.41,3.71-.9,5.95-1.51v-8.07h-5.34v-3.5h5.34v-7.91h3.71v7.91h5.22v3.5h-5.22v7.05c1.67-.41,3.38-.9,5.05-1.39l.45,3.5-5.5,1.63ZM280.92,46.29h-6.4v20.13h-3.75v-20.13h-6.77c-.08,7.09-.9,14.18-5.01,20.34-.69-.82-2-1.83-3.06-2.45,3.87-5.91,4.36-12.63,4.36-18.79v-12.51c5.87-.73,12.72-1.96,16.91-3.34l2.28,3.22c-4.24,1.3-10.11,2.32-15.49,2.97v6.93h16.91v3.63Z"/></g></svg>