<?xml version="1.0" encoding="UTF-8"?><svg id="_圖層_2" xmlns="http://www.w3.org/2000/svg" viewBox="0 0 1049.45 296.26"><defs><style>.cls-1{fill:#000;stroke:#000;stroke-linecap:round;stroke-linejoin:round;stroke-width:8.09px;}.cls-2{fill:#fff;stroke-width:0px;}</style></defs><g id="_圖層_1-2"><path class="cls-1" d="M188.23,77.83c-3.61.96-7.46,1.93-11.19,3.01v24.91c0,8.06-1.44,12.4-6.02,15.04-4.69,2.65-10.95,3.25-19.74,3.25-.48-4.57-2.77-11.79-4.93-16.25,4.21.12,9.27.12,10.83.12,1.69,0,2.29-.6,2.29-2.29v-20.34l-10.71,2.65-4.57-18.05c4.45-.84,9.63-1.93,15.28-3.13v-17.81h-13.96v-16.61h13.96V10.2h17.57v22.14h9.63v16.61h-9.63v13.72l9.03-2.29,2.17,17.45ZM258.51,102.98v17.09h-69.92v-17.09h5.66V33.42h-5.78v-17.09h68.36v17.09h-45.25v9.39h41.52v47.3h-41.52v12.88h46.93ZM211.57,58.94v15.04h24.43v-15.04h-24.43Z"/><path class="cls-1" d="M376.2,25.48v28.88h-17.33v-14.2h-73.41v14.2h-16.49v-28.88h14.2c-1.56-2.89-3.49-5.9-5.3-8.42l15.52-6.02c3.73,4.21,7.34,9.99,9.03,14.2l-.6.24h11.07v-15.28h17.69v15.28h11.67c2.65-4.33,5.54-10.11,7.1-14.56l18.77,5.17c-2.41,3.37-4.81,6.62-6.98,9.39h15.04ZM278,77.47h89.54v47.3h-17.45v-2.41h-55.36v2.41h-16.73v-47.3ZM354.54,44.37v29.24h-64.75v-29.24h64.75ZM294.73,89.87v4.21h18.65v-4.21h-18.65ZM313.38,109.96v-4.45h-18.65v4.45h18.65ZM337.21,56.53h-31.17v4.81h31.17v-4.81ZM350.08,89.87h-19.74v4.21h19.74v-4.21ZM350.08,109.96v-4.45h-19.74v4.45h19.74Z"/><path class="cls-1" d="M433.72,43.53h-47.78v-13.6h19.62c-1.93-4.45-4.57-9.75-6.86-13.96l13.48-6.38c3.25,5.17,6.86,11.91,8.66,16.49l-7.22,3.85h20.1v13.6ZM430.23,118.15h-24.67v4.81h-14.68v-42.24h39.35v37.43ZM471.27,45.7v9.87h25.63v15.65h-25.63v10.83h26.6v15.77h-26.6v26.84h-17.57V48.47c-3.25,5.78-6.86,10.83-10.47,14.92-2.89-2.77-9.27-7.34-13.72-10.23v6.98h-38.15v-13h38.15v2.77c8.91-9.75,16.13-24.91,20.1-40.08l18.53,4.21c-1.44,5.3-3.25,10.47-5.3,15.52h36.59v16.13h-28.16ZM429.51,76.75h-38.15v-13h38.15v13ZM405.56,94.44v9.87h9.75v-9.87h-9.75Z"/><path class="cls-1" d="M504.96,113.21c2.41-6.74,3.97-17.45,4.69-25.75l8.79,2.65c-.72,8.54-2.05,19.62-4.21,26.48l-9.27-3.37ZM552.73,70.37s-.12,3.13-.24,4.69c-1.32,28.64-2.89,39.71-5.78,43.32-1.93,2.65-3.97,3.61-6.74,3.97-2.29.36-5.54.48-9.03.36-.12-3.25-1.2-7.7-2.77-10.59,2.65.36,4.81.36,6.14.36s2.05-.24,3.01-1.44c.84-1.08,1.44-3.49,2.17-8.3l-3.49,1.2c-.6-4.21-2.29-10.59-3.97-15.52l4.69-1.32c1.2,3.25,2.41,7.1,3.25,10.59.36-3.73.72-8.54,1.08-14.32h-16.73v.12h-13.36V14.41h42.48v14.08h-10.83v6.02h9.03v12.64h-9.03v5.17h9.63v12.64h-9.63v5.42h10.11ZM524.69,89.62c.48,7.22.72,16.25.48,22.38l-6.02.48c.36-6.14.24-15.28-.24-22.38l5.78-.48ZM524.33,28.49v6.02h5.42v-6.02h-5.42ZM529.75,47.14h-5.42v5.17h5.42v-5.17ZM524.33,70.37h5.42v-5.42h-5.42v5.42ZM528.18,109.24c-.24-5.42-1.32-13.48-2.53-19.74l5.42-.72c1.2,6.26,2.41,14.2,2.77,19.5l-5.66.96ZM615.67,111.05c0,4.69-.36,7.58-2.89,9.39-2.53,1.81-5.3,1.93-8.79,1.93-.24-2.53-.96-6.02-1.93-8.79v6.38h-8.79v-19.26h-2.77v19.86h-8.67v-19.86h-3.01v22.5h-10.35v-36.71c-1.44,12.03-3.61,23.95-7.34,33.7-2.65-2.05-8.91-5.66-12.15-6.74,7.34-19.86,7.94-48.02,7.94-66.55v-25.87c18.05-1.08,39.23-3.49,51.99-6.74l7.94,9.99c-12.88,3.13-30.21,5.3-46.33,6.26v2.41h44.89v27.68h-45.13l-.12,3.61h45.49v46.81ZM570.55,44.49v4.57h30.21v-4.57h-30.21ZM581.86,87.34v-9.51h-3.01v9.51h3.01ZM593.29,87.34v-9.51h-2.77v9.51h2.77ZM602.08,77.83v9.51h2.89v-9.51h-2.89ZM602.08,111.89c.84.12,1.81.12,2.17.12.6,0,.72-.24.72-1.08v-10.23h-2.89v11.19Z"/><path class="cls-1" d="M672.35,104.67c0,7.46-.96,12.4-5.3,15.16-4.21,2.89-9.63,3.37-17.33,3.37-.36-4.69-2.41-12.52-4.57-16.97,3.61.24,7.82.24,9.27.24,1.32,0,1.81-.6,1.81-2.17v-22.87c-2.17,2.41-4.21,4.93-6.38,7.34l-2.89-5.42c-.96,14.8-3.13,30.21-7.82,41.4-3.13-2.53-10.23-6.38-14.2-7.82,6.86-16.73,7.22-41.52,7.22-59.57V12.36h40.2v92.31ZM647.8,57.37c0,4.21,0,8.91-.24,13.84,2.65-2.05,5.66-4.33,8.66-6.86v-6.86l-3.73,3.25c-1.08-1.68-2.77-3.85-4.69-6.02v2.65ZM647.8,28.13v14.56l3.25-2.53c1.68,1.44,3.49,3.13,5.17,4.81v-16.85h-8.42ZM717.24,105.15c5.78,0,6.74-3.73,7.82-19.74,3.97,2.77,10.95,5.78,15.64,6.74-1.93,21.3-6.86,29.48-21.78,29.48h-20.82c-16.13,0-21.3-4.93-21.3-24.67V14.41h59.21v63.9h-16.73v-5.66h-25.75v24.43c0,7.22.6,8.06,6.62,8.06h17.09ZM693.53,30.9v25.27h5.78v-25.27h-5.78ZM719.29,30.9h-5.66v25.27h5.66v-25.27Z"/><path class="cls-1" d="M858.04,99.97h-45.61v24.55h-18.65v-24.55h-44.65v-16.85h44.65v-10.11h-33.94v-16.73h33.94v-9.63h-39.35v-16.85h20.58c-1.81-4.45-4.81-9.99-7.58-14.32l16.13-5.66c3.73,5.17,7.94,12.15,9.75,16.97l-8.18,3.01h30.57c2.89-6.02,5.78-13.84,7.34-19.86l19.13,4.21c-2.77,5.54-5.66,10.95-8.42,15.65h19.38v16.85h-40.68v9.63h34.18v16.73h-34.18v10.11h45.61v16.85Z"/><path class="cls-1" d="M879.45,101.3c0-7.46,6.02-13.24,14.2-13.24s14.2,5.78,14.2,13.24-6.02,13.24-14.2,13.24-14.2-5.54-14.2-13.24ZM881.26,43.05l-.72-19.98h26.36l-.72,19.98-4.93,38.03h-15.04l-4.93-38.03Z"/><path class="cls-1" d="M182.27,72.28c-3.61.96-7.46,1.93-11.19,3.01v24.91c0,8.06-1.44,12.4-6.02,15.04-4.69,2.65-10.95,3.25-19.74,3.25-.48-4.57-2.77-11.79-4.93-16.25,4.21.12,9.27.12,10.83.12,1.68,0,2.29-.6,2.29-2.29v-20.34l-10.71,2.65-4.57-18.05c4.45-.84,9.63-1.93,15.28-3.13v-17.81h-13.96v-16.61h13.96V4.65h17.57v22.14h9.63v16.61h-9.63v13.72l9.03-2.29,2.17,17.45ZM252.55,97.43v17.09h-69.92v-17.09h5.66V27.87h-5.78V10.78h68.36v17.09h-45.25v9.39h41.52v47.3h-41.52v12.88h46.94ZM205.62,53.39v15.04h24.43v-15.04h-24.43Z"/><path class="cls-1" d="M370.24,19.93v28.88h-17.33v-14.2h-73.41v14.2h-16.49v-28.88h14.2c-1.56-2.89-3.49-5.9-5.3-8.42l15.52-6.02c3.73,4.21,7.34,9.99,9.03,14.2l-.6.24h11.07V4.65h17.69v15.28h11.67c2.65-4.33,5.54-10.11,7.1-14.56l18.77,5.17c-2.41,3.37-4.81,6.62-6.98,9.39h15.04ZM272.04,71.92h89.54v47.3h-17.45v-2.41h-55.36v2.41h-16.73v-47.3ZM348.58,38.82v29.24h-64.75v-29.24h64.75ZM288.77,84.31v4.21h18.65v-4.21h-18.65ZM307.42,104.41v-4.45h-18.65v4.45h18.65ZM331.25,50.98h-31.17v4.81h31.17v-4.81ZM344.13,84.31h-19.74v4.21h19.74v-4.21ZM344.13,104.41v-4.45h-19.74v4.45h19.74Z"/><path class="cls-1" d="M427.76,37.98h-47.78v-13.6h19.62c-1.93-4.45-4.57-9.75-6.86-13.96l13.48-6.38c3.25,5.17,6.86,11.91,8.66,16.49l-7.22,3.85h20.1v13.6ZM424.27,112.6h-24.67v4.81h-14.68v-42.24h39.35v37.43ZM465.31,40.15v9.87h25.63v15.65h-25.63v10.83h26.6v15.77h-26.6v26.84h-17.57V42.92c-3.25,5.78-6.86,10.83-10.47,14.92-2.89-2.77-9.27-7.34-13.72-10.23v6.98h-38.15v-13h38.15v2.77c8.91-9.75,16.13-24.91,20.1-40.08l18.53,4.21c-1.44,5.3-3.25,10.47-5.3,15.52h36.59v16.13h-28.16ZM423.55,71.2h-38.15v-13h38.15v13ZM399.6,88.89v9.87h9.75v-9.87h-9.75Z"/><path class="cls-1" d="M499,107.66c2.41-6.74,3.97-17.45,4.69-25.75l8.79,2.65c-.72,8.54-2.05,19.62-4.21,26.48l-9.27-3.37ZM546.78,64.82s-.12,3.13-.24,4.69c-1.32,28.64-2.89,39.71-5.78,43.32-1.93,2.65-3.97,3.61-6.74,3.97-2.29.36-5.54.48-9.03.36-.12-3.25-1.2-7.7-2.77-10.59,2.65.36,4.81.36,6.14.36s2.05-.24,3.01-1.44c.84-1.08,1.44-3.49,2.17-8.3l-3.49,1.2c-.6-4.21-2.29-10.59-3.97-15.52l4.69-1.32c1.2,3.25,2.41,7.1,3.25,10.59.36-3.73.72-8.54,1.08-14.32h-16.73v.12h-13.36V8.86h42.48v14.08h-10.83v6.02h9.03v12.64h-9.03v5.17h9.63v12.64h-9.63v5.42h10.11ZM518.74,84.07c.48,7.22.72,16.25.48,22.38l-6.02.48c.36-6.14.24-15.28-.24-22.38l5.78-.48ZM518.38,22.94v6.02h5.42v-6.02h-5.42ZM523.79,41.59h-5.42v5.17h5.42v-5.17ZM518.38,64.82h5.42v-5.42h-5.42v5.42ZM522.23,103.69c-.24-5.42-1.32-13.48-2.53-19.74l5.42-.72c1.2,6.26,2.41,14.2,2.77,19.5l-5.66.96ZM609.72,105.5c0,4.69-.36,7.58-2.89,9.39-2.53,1.81-5.29,1.93-8.79,1.93-.24-2.53-.96-6.02-1.93-8.79v6.38h-8.79v-19.26h-2.77v19.86h-8.66v-19.86h-3.01v22.5h-10.35v-36.71c-1.44,12.03-3.61,23.95-7.34,33.7-2.65-2.05-8.91-5.66-12.15-6.74,7.34-19.86,7.94-48.02,7.94-66.55V15.48c18.05-1.08,39.23-3.49,51.99-6.74l7.94,9.99c-12.88,3.13-30.21,5.3-46.33,6.26v2.41h44.89v27.68h-45.13l-.12,3.61h45.49v46.81ZM564.59,38.94v4.57h30.21v-4.57h-30.21ZM575.9,81.79v-9.51h-3.01v9.51h3.01ZM587.33,81.79v-9.51h-2.77v9.51h2.77ZM596.12,72.28v9.51h2.89v-9.51h-2.89ZM596.12,106.34c.84.12,1.81.12,2.17.12.6,0,.72-.24.72-1.08v-10.23h-2.89v11.19Z"/><path class="cls-1" d="M666.4,99.12c0,7.46-.96,12.4-5.3,15.16-4.21,2.89-9.63,3.37-17.33,3.37-.36-4.69-2.41-12.52-4.57-16.97,3.61.24,7.82.24,9.27.24,1.32,0,1.81-.6,1.81-2.17v-22.87c-2.17,2.41-4.21,4.93-6.38,7.34l-2.89-5.42c-.96,14.8-3.13,30.21-7.82,41.4-3.13-2.53-10.23-6.38-14.2-7.82,6.86-16.73,7.22-41.52,7.22-59.57V6.81h40.2v92.31ZM641.84,51.82c0,4.21,0,8.91-.24,13.84,2.65-2.05,5.66-4.33,8.67-6.86v-6.86l-3.73,3.25c-1.08-1.68-2.77-3.85-4.69-6.02v2.65ZM641.84,22.58v14.56l3.25-2.53c1.68,1.44,3.49,3.13,5.17,4.81v-16.85h-8.42ZM711.28,99.6c5.78,0,6.74-3.73,7.82-19.74,3.97,2.77,10.95,5.78,15.64,6.74-1.93,21.3-6.86,29.48-21.78,29.48h-20.82c-16.13,0-21.3-4.93-21.3-24.67V8.86h59.21v63.9h-16.73v-5.66h-25.75v24.43c0,7.22.6,8.06,6.62,8.06h17.09ZM687.58,25.34v25.27h5.78v-25.27h-5.78ZM713.33,25.34h-5.66v25.27h5.66v-25.27Z"/><path class="cls-1" d="M852.08,94.42h-45.61v24.55h-18.65v-24.55h-44.65v-16.85h44.65v-10.11h-33.94v-16.73h33.94v-9.63h-39.35v-16.85h20.58c-1.81-4.45-4.81-9.99-7.58-14.32l16.13-5.66c3.73,5.17,7.94,12.15,9.75,16.97l-8.18,3.01h30.57c2.89-6.02,5.78-13.84,7.34-19.86l19.13,4.21c-2.77,5.54-5.66,10.95-8.42,15.65h19.38v16.85h-40.68v9.63h34.18v16.73h-34.18v10.11h45.61v16.85Z"/><path class="cls-1" d="M873.5,95.75c0-7.46,6.02-13.24,14.2-13.24s14.2,5.78,14.2,13.24-6.02,13.24-14.2,13.24-14.2-5.54-14.2-13.24ZM875.3,37.5l-.72-19.98h26.36l-.72,19.98-4.93,38.03h-15.04l-4.93-38.03Z"/><path class="cls-2" d="M182.39,70.47l-12.52,3.49v27.92c0,7.1-1.44,10.59-5.54,12.76-3.97,2.29-9.87,2.77-18.41,2.77-.36-3.85-2.29-9.63-4.21-13.36,4.81.12,9.87.12,11.43.12,1.69,0,2.29-.6,2.29-2.29v-23.95l-12.27,3.25-3.97-14.8c4.69-.84,10.23-2.17,16.25-3.61v-20.7h-14.8v-13.6h14.8V5.73h14.44v22.75h10.95v13.6h-10.95v17.09c3.61-.96,7.1-1.93,10.71-2.89l1.81,14.2ZM251.59,99.36v13.96h-68.6v-13.96h6.02V26.07h-6.5v-14.08h67.39v14.08h-46.69v12.27h42.24v45.37h-42.24v15.65h48.38ZM203.21,51.58v18.89h28.28v-18.89h-28.28Z"/><path class="cls-2" d="M369.04,21.98v27.32h-14.2v-15.16h-77.02v15.16h-13.48v-27.32h15.89c-1.93-3.49-4.33-7.22-6.62-10.35l12.76-5.05c3.73,4.45,7.58,10.35,9.51,14.44l-2.17.96h14.92V5.61h14.32v16.37h14.2l-.72-.24c3.01-4.21,6.62-10.71,8.54-15.4l15.16,4.45c-2.89,4.09-5.78,7.94-8.42,11.19h17.33ZM273.12,72.52h87.61v45.61h-14.32v-2.77h-59.69v2.89h-13.6v-45.73ZM348.22,39.91v27.56h-63.66v-27.56h63.66ZM286.72,82.87v6.26h22.38v-6.26h-22.38ZM309.11,105.01v-6.26h-22.38v6.26h22.38ZM334.02,50.14h-36.1v7.1h36.1v-7.1ZM346.42,82.87h-23.47v6.26h23.47v-6.26ZM346.42,105.01v-6.26h-23.47v6.26h23.47Z"/><path class="cls-2" d="M427.16,36.78h-46.33v-11.31h20.82c-1.81-4.57-5.05-10.59-7.82-15.16l11.07-5.17c3.37,4.93,7.1,11.55,8.91,16.01l-7.94,4.33h21.3v11.31ZM423.79,111.39h-25.87v5.05h-12.03v-41.52h37.91v36.46ZM463.02,38.1v12.4h27.2v12.88h-27.2v13.6h28.16v13h-28.16v28.04h-14.44V38.1h-1.2c-3.85,7.22-7.94,13.48-12.4,18.41-2.53-2.17-8.18-6.5-11.91-8.79v5.3h-36.95v-10.83h36.95v4.33c9.15-9.99,16.85-25.63,20.94-41.16l15.16,3.37c-1.56,5.54-3.37,10.83-5.54,16.13h39.11v13.24h-29.73ZM423.07,69.15h-36.95v-10.83h36.95v10.83ZM397.92,86.36v13.48h13.48v-13.48h-13.48Z"/><path class="cls-2" d="M499.84,107.18c2.65-6.74,4.33-17.57,5.05-26l7.34,2.29c-.72,8.54-2.17,19.74-4.57,26.72l-7.82-3.01ZM546.78,65.66s-.12,2.89-.24,4.21c-1.2,28.76-2.65,39.35-5.42,42.84-1.68,2.41-3.61,3.25-6.38,3.61-2.17.24-5.42.36-8.91.24-.12-2.77-1.08-6.5-2.41-9.03,3.01.36,5.54.36,6.86.36s2.17-.12,2.89-1.32c.96-1.2,1.69-4.45,2.41-10.71l-3.61,1.32c-.84-4.33-3.01-10.71-5.05-15.65l4.21-1.32c1.81,3.97,3.61,9.15,4.69,13.12.48-4.45.84-9.87,1.2-16.85h-19.98v.12h-11.07V10.18h41.4v11.67h-12.28v7.94h10.47v10.59h-10.47v7.1h10.83v10.47h-10.83v7.7h11.67ZM518.5,83.23c.72,7.1,1.08,16.13.96,22.14l-5.42.48c.24-6.02,0-15.16-.72-22.14l5.17-.48ZM517.05,21.85v7.94h7.34v-7.94h-7.34ZM524.39,40.39h-7.34v7.1h7.34v-7.1ZM517.05,65.66h7.34v-7.7h-7.34v7.7ZM523.55,102.49c-.36-5.29-1.81-13.48-3.37-19.62l4.93-.72c1.56,6.14,3.13,14.2,3.61,19.38l-5.17.96ZM609.24,106.22c0,4.09-.36,6.62-2.65,8.18-2.29,1.56-5.05,1.68-8.79,1.68-.12-2.65-1.08-6.26-2.17-8.91,1.68.12,3.25.12,3.73.12.72,0,.84-.24.84-1.08v-13h-5.05v20.1h-7.46v-20.1h-5.17v20.58h-7.34v-20.58h-5.3v23.47h-8.79l-.12-37.43c-1.32,12.28-3.61,24.55-7.34,34.54-2.29-1.68-7.46-4.69-10.11-5.54,7.22-19.01,7.82-45.73,7.82-63.54v-28.04c17.81-1.08,38.75-3.73,51.03-7.1l6.98,8.3c-12.76,3.25-30.45,5.54-46.69,6.74v3.73h46.33v25.51h-46.45l-.12,4.69h46.81v47.66ZM562.66,37.98v6.26h34.18v-6.26h-34.18ZM575.18,82.15v-12.28h-5.3v12.28h5.3ZM587.7,82.15v-12.28h-5.17v12.28h5.17ZM600.21,82.15v-12.28h-5.05v12.28h5.05Z"/><path class="cls-2" d="M665.31,101.04c0,6.62-.96,10.59-4.93,12.88-3.73,2.41-8.91,2.77-16.61,2.77-.36-3.85-2.05-10.11-3.97-13.84,4.45.24,8.79.24,10.35.24,1.32-.12,1.93-.72,1.93-2.29v-27.68c-3.13,3.01-6.02,6.02-9.03,9.03l-3.25-6.02c-.96,14.92-3.25,30.57-8.06,42-2.53-2.05-8.42-5.29-11.67-6.5,7.1-16.73,7.58-41.16,7.58-59.21V8.26h37.67v92.79ZM640.52,52.54c0,4.93-.12,10.23-.24,16.01,3.49-2.41,7.46-5.42,11.79-8.66v-8.66l-3.97,3.37c-1.68-2.53-4.45-6.02-7.58-9.27v7.22ZM640.52,21.25v16.61l3.97-3.13c2.41,2.17,5.17,4.69,7.58,7.22v-20.7h-11.55ZM712.61,102.01c6.26,0,7.22-3.97,8.3-20.34,3.25,2.29,8.91,4.69,12.88,5.54-1.68,20.7-5.9,28.28-19.98,28.28h-22.75c-14.8,0-19.62-4.33-19.62-21.66V10.42h57.28v61.62h-13.72v-5.9h-29.85v27.8c0,6.98.84,8.06,7.34,8.06h20.1ZM685.17,23.9v28.64h9.15v-28.64h-9.15ZM715.02,23.9h-8.91v28.64h8.91v-28.64Z"/><path class="cls-2" d="M851.48,92.38h-46.57v25.75h-15.28v-25.75h-45.85v-13.84h45.85v-13.12h-34.66v-13.72h34.66v-12.4h-40.2v-13.72h22.02c-1.81-4.69-5.42-10.83-8.54-15.52l13.24-4.69c3.85,5.3,8.06,12.52,9.99,17.21l-7.82,3.01h32.61c3.01-6.02,6.38-14.2,8.18-20.22l15.52,3.49c-2.89,5.9-6.14,11.67-9.15,16.73h20.94v13.72h-41.52v12.4h34.66v13.72h-34.66v13.12h46.57v13.84Z"/><path class="cls-2" d="M875.18,96.83c0-6.86,5.42-11.91,12.52-11.91s12.52,5.05,12.52,11.91-5.42,11.79-12.52,11.79-12.52-4.81-12.52-11.79ZM877.23,35.45l-.48-17.93h22.02l-.6,17.93-4.21,41.16h-12.4l-4.33-41.16Z"/><path class="cls-1" d="M52.6,182.82c-3.01,7.94-6.74,16.25-10.95,24.19v84.36h-16.61v-58.49c-1.93,2.41-3.97,4.69-5.9,6.86-1.56-4.33-6.26-14.08-9.15-18.41,10.35-10.47,20.34-27.08,26.12-43.69l16.49,5.17ZM95.93,213.99v58.49c0,7.94-1.2,12.76-6.14,15.64-4.81,2.77-10.95,3.49-18.89,3.49-.72-5.05-3.37-12.88-5.9-17.57,4.69.12,9.75.12,11.43.12,1.56,0,2.17-.36,2.17-1.93v-58.25h-11.55c-3.49,6.62-7.34,12.52-11.19,17.21-3.13-3.13-10.11-8.91-14.08-11.55,9.27-9.75,16.85-26,20.94-42.12l17.21,3.97c-1.56,5.54-3.37,11.07-5.54,16.37h37.55l2.65-.48,12.4,2.17c-1.32,10.35-3.49,22.02-5.17,29.61l-14.92-2.65c.48-3.37,1.08-7.82,1.56-12.52h-12.52ZM75.59,235.89c-3.25,15.04-9.27,30.45-15.77,40.08-3.25-2.77-10.71-7.34-14.8-9.39,6.38-8.06,11.19-21.42,13.6-34.18l16.97,3.49ZM113.38,230.96c5.9,12.28,10.59,28.04,12.15,38.75l-16.85,5.9c-.96-10.59-5.54-27.08-10.95-39.35l15.64-5.29Z"/><path class="cls-1" d="M200.26,273.44c2.29,0,4.69.12,7.22.12,7.82.12,29.97,0,39.95-.36-2.41,3.85-4.93,11.55-5.78,16.61h-35.26c-20.94,0-35.5-2.77-45.73-15.52-4.33,7.1-9.63,13-16.01,17.45-2.65-3.25-9.27-9.63-13.12-12.27,12.03-7.1,19.14-19.5,21.78-34.78l17.45,2.53c-.72,3.61-1.68,7.1-2.77,10.47,3.25,6.62,8.3,10.47,14.56,12.76v-27.44h-45.85v-15.28h106.75v15.28h-43.2v6.5h35.62v15.04h-35.62v8.91ZM232.87,223.98h-85.81v-43.2h85.81v43.2ZM215.06,192.81h-51.03v3.97h51.03v-3.97ZM215.06,207.97h-51.03v3.97h51.03v-3.97Z"/><path class="cls-1" d="M328.3,212.18c-.12,4.09-.24,8.18-.48,12.03h32.01s-.12,4.81-.12,6.98c-1.08,34.18-2.17,48.38-5.78,53.19-3.13,4.09-6.14,5.42-10.35,6.14-3.61.84-9.15.84-15.16.72-.24-5.18-2.29-12.52-5.17-17.33,4.57.48,8.79.6,11.19.6,1.81,0,2.89-.48,4.09-1.81,1.81-2.29,2.77-11.19,3.49-32.73h-15.64c-3.01,22.14-10.71,39.59-31.89,51.15-2.17-4.33-7.1-10.47-11.07-13.6,25.51-13.24,27.08-34.78,27.68-65.35h-13.24v-13.84c-2.41,8.54-5.05,17.45-7.34,24.19,6.86,9.03,7.94,17.21,7.94,23.95,0,8.79-1.81,13.84-6.02,16.85-2.05,1.56-4.57,2.41-7.34,2.89-2.17.36-5.05.36-7.94.36-.12-3.85-.96-9.27-2.77-13.48v38.51h-16.25v-109.27h28.16l2.41-.6,11.91,6.74-2.05,7.46h26.48c-.84-4.45-2.77-10.95-4.33-15.89l16.01-4.09c2.05,5.29,4.57,12.52,5.66,16.97l-10.59,3.01h34.42v16.25h-37.91ZM274.39,251.05c1.32.12,2.29.12,3.25.12,1.2,0,2.29-.24,3.25-.96,1.2-.96,1.81-2.89,1.81-6.14,0-5.05-1.32-12.28-7.22-19.74,1.93-7.22,4.21-17.93,5.9-26.48h-6.98v53.19Z"/><path class="cls-1" d="M421.92,210.5h-47.78v-13.6h19.62c-1.93-4.45-4.57-9.75-6.86-13.96l13.48-6.38c3.25,5.17,6.86,11.91,8.66,16.49l-7.22,3.85h20.1v13.6ZM418.43,285.11h-24.67v4.81h-14.68v-42.24h39.35v37.43ZM459.47,212.66v9.87h25.63v15.65h-25.63v10.83h26.6v15.77h-26.6v26.84h-17.57v-76.18c-3.25,5.78-6.86,10.83-10.47,14.92-2.89-2.77-9.27-7.34-13.72-10.23v6.98h-38.15v-13h38.15v2.77c8.91-9.75,16.13-24.91,20.1-40.08l18.53,4.21c-1.44,5.3-3.25,10.47-5.3,15.52h36.59v16.13h-28.16ZM417.71,243.71h-38.15v-13h38.15v13ZM393.76,261.4v9.87h9.75v-9.87h-9.75Z"/><path class="cls-1" d="M530.11,209.41c-4.09,18.41-10.47,41.28-20.1,54.64-4.33-3.13-12.4-7.22-17.21-9.15,9.15-12.03,15.04-33.34,17.33-48.86l19.98,3.37ZM560.92,178.85v91.46c0,10.11-2.17,14.8-8.3,17.69-6.26,2.77-15.04,3.37-26.96,3.25-.96-5.05-4.21-13.36-6.98-18.17,7.46.48,16.61.48,19.26.36,2.77,0,3.73-.84,3.73-3.25v-91.34h19.26ZM587.75,204.6c9.51,17.09,19.26,38.99,22.26,54.4l-19.26,7.58c-2.29-14.8-11.07-37.67-20.22-55.6l17.21-6.38Z"/><path class="cls-1" d="M656.47,182.7c-3.01,7.34-6.62,15.04-10.71,22.38v86.05h-16.61v-61.02c-2.65,3.37-5.42,6.38-8.18,9.15-1.44-4.21-6.02-13.84-8.91-18.17,11.07-10.47,21.9-27.08,28.16-43.69l16.25,5.3ZM687.76,272.96c-6.38,7.34-16.85,14.8-25.27,19.26-3.73-3.49-11.19-8.79-15.52-11.31,8.91-3.25,17.93-8.66,22.87-14.08l17.93,6.14ZM707.25,266.46c6.98,4.45,17.09,11.31,22.26,16.01l-16.13,9.39c-4.45-4.69-14.32-12.15-21.54-17.21l14.56-8.18h-49.94v-61.98h22.62v-27.32h17.69v7.34h28.52v14.68h-28.52v5.3h24.31v61.98h-13.84ZM703.4,217.24h-30.09v4.21h30.09v-4.21ZM703.4,233.36h-30.09v4.21h30.09v-4.21ZM703.4,249.49h-30.09v4.33h30.09v-4.33Z"/><path class="cls-1" d="M772.23,242.87c-3.01,1.08-6.02,2.17-9.15,3.25v26.36c0,7.58-1.2,11.91-5.29,14.68-4.09,2.65-9.75,3.37-17.57,3.25-.36-4.33-2.29-11.55-4.33-16.25,3.85.24,7.82.24,9.27.24s1.93-.48,1.93-2.05v-20.94l-8.54,2.89-3.85-16.73c3.61-.84,7.82-2.05,12.4-3.37v-19.01h-10.59v-16.01h10.59v-22.02h16.01v22.02h7.1v16.01h-7.1v14.2l6.38-2.05,2.77,15.52ZM824.94,252.74c6.5,7.46,15.28,14.2,24.07,18.53-3.73,3.13-9.15,9.39-11.67,13.6-7.94-4.93-15.64-12.28-22.02-20.58v27.2h-17.21v-25.39c-6.02,8.06-13.24,15.04-21.54,19.74-2.41-3.97-7.46-9.99-11.07-13.12,9.39-4.33,17.93-11.67,23.95-19.98h-16.73v-15.52h25.39v-11.31h17.21v11.31h30.09v15.52h-20.46ZM806.89,200.03c-.84,16.85-4.57,26.72-29.48,31.53-1.32-3.97-5.17-10.35-8.3-13.48,19.74-2.65,21.42-7.34,22.02-18.05h15.77ZM788.36,208.45h-16.13v-26.36h73.05v25.63h-16.97v-10.95h-39.95v11.67ZM825.54,199.79v10.47c0,2.77.36,3.85,2.29,3.85h9.03c2.53,0,6.02-.36,8.06-.96.36,3.97.72,10.71,1.2,14.44-2.17.84-5.54.96-8.91.96h-9.03c-14.68,0-18.05-4.69-18.05-18.41v-10.35h15.4Z"/><path class="cls-1" d="M874.04,258.88v9.15h-15.4v-80.75h36.34v71.61h-20.94ZM874.04,203.4v39.35h5.3v-39.35h-5.3ZM887.4,282.1c4.33-6.86,6.98-17.33,8.18-27.32l12.76,3.61c-1.32,10.59-3.61,22.38-8.42,29.73l-12.52-6.02ZM967.91,237.21s-.12,4.09-.24,5.9c-1.08,27.2-2.41,38.63-5.42,42.72-2.53,3.25-5.05,4.33-8.3,4.93-2.89.6-7.22.72-12.15.72-.24-4.57-1.81-10.83-3.97-14.8,3.13.36,5.78.36,7.46.36,1.44,0,2.41-.24,3.37-1.56.72-.84,1.2-2.89,1.69-6.5l-8.91,3.13c-.72-4.69-3.13-11.79-5.66-17.09l9.15-3.01c2.41,4.45,4.57,10.11,5.78,14.56.36-3.61.72-8.42.96-14.92h-51.15v-70.16h64.14v14.92h-21.9v4.57h17.93v13.36h-17.93v4.69h17.93v13.36h-17.93v4.81h25.15ZM920.49,255.63c1.81,8.06,2.77,18.29,2.53,25.15l-11.79,1.93c.48-6.74-.36-17.21-1.93-25.27l11.19-1.81ZM916.88,196.42v4.57h9.87v-4.57h-9.87ZM926.75,214.35h-9.87v4.69h9.87v-4.69ZM916.88,237.21h9.87v-4.81h-9.87v4.81ZM932.89,253.7c2.77,6.74,4.81,15.65,5.42,21.42l-10.95,3.25c-.24-5.9-2.29-14.92-4.69-21.78l10.23-2.89Z"/><path class="cls-1" d="M1024.95,215.55c0-6.62-5.66-9.63-13.6-9.63-6.86,0-12.4,3.13-17.21,8.67l-11.79-10.83c7.46-9.15,18.77-15.16,31.53-15.16,17.69,0,31.53,7.82,31.53,25.03s-24.91,18.53-23.83,34.42h-18.77c-1.93-18.29,22.14-21.9,22.14-32.49ZM1012.19,255.02c8.3,0,14.2,5.42,14.2,13.12s-5.9,13.36-14.2,13.36-14.2-5.66-14.2-13.36,5.9-13.12,14.2-13.12Z"/><path class="cls-1" d="M46.65,177.27c-3.01,7.94-6.74,16.25-10.95,24.19v84.36h-16.61v-58.49c-1.93,2.41-3.97,4.69-5.9,6.86-1.56-4.33-6.26-14.08-9.15-18.41,10.35-10.47,20.34-27.08,26.12-43.69l16.49,5.17ZM89.97,208.44v58.49c0,7.94-1.2,12.76-6.14,15.64-4.81,2.77-10.95,3.49-18.89,3.49-.72-5.05-3.37-12.88-5.9-17.57,4.69.12,9.75.12,11.43.12,1.56,0,2.17-.36,2.17-1.93v-58.25h-11.55c-3.49,6.62-7.34,12.52-11.19,17.21-3.13-3.13-10.11-8.91-14.08-11.55,9.27-9.75,16.85-26,20.94-42.12l17.21,3.97c-1.56,5.54-3.37,11.07-5.54,16.37h37.55l2.65-.48,12.4,2.17c-1.32,10.35-3.49,22.02-5.17,29.61l-14.92-2.65c.48-3.37,1.08-7.82,1.56-12.52h-12.52ZM69.63,230.34c-3.25,15.04-9.27,30.45-15.77,40.08-3.25-2.77-10.71-7.34-14.8-9.39,6.38-8.06,11.19-21.42,13.6-34.18l16.97,3.49ZM107.42,225.41c5.9,12.28,10.59,28.04,12.15,38.75l-16.85,5.9c-.96-10.59-5.54-27.08-10.95-39.35l15.64-5.29Z"/><path class="cls-1" d="M194.3,267.89c2.29,0,4.69.12,7.22.12,7.82.12,29.97,0,39.95-.36-2.41,3.85-4.93,11.55-5.78,16.61h-35.26c-20.94,0-35.5-2.77-45.73-15.52-4.33,7.1-9.63,13-16.01,17.45-2.65-3.25-9.27-9.63-13.12-12.27,12.03-7.1,19.14-19.5,21.78-34.78l17.45,2.53c-.72,3.61-1.69,7.1-2.77,10.47,3.25,6.62,8.3,10.47,14.56,12.76v-27.44h-45.85v-15.28h106.75v15.28h-43.2v6.5h35.62v15.04h-35.62v8.91ZM226.92,218.43h-85.81v-43.2h85.81v43.2ZM209.11,187.26h-51.03v3.97h51.03v-3.97ZM209.11,202.42h-51.03v3.97h51.03v-3.97Z"/><path class="cls-1" d="M322.35,206.63c-.12,4.09-.24,8.18-.48,12.03h32.01s-.12,4.81-.12,6.98c-1.08,34.18-2.17,48.38-5.78,53.19-3.13,4.09-6.14,5.42-10.35,6.14-3.61.84-9.15.84-15.16.72-.24-5.18-2.29-12.52-5.17-17.33,4.57.48,8.79.6,11.19.6,1.81,0,2.89-.48,4.09-1.81,1.81-2.29,2.77-11.19,3.49-32.73h-15.65c-3.01,22.14-10.71,39.59-31.89,51.15-2.17-4.33-7.1-10.47-11.07-13.6,25.51-13.24,27.08-34.78,27.68-65.35h-13.24v-13.84c-2.41,8.54-5.05,17.45-7.34,24.19,6.86,9.03,7.94,17.21,7.94,23.95,0,8.79-1.81,13.84-6.02,16.85-2.05,1.56-4.57,2.41-7.34,2.89-2.17.36-5.05.36-7.94.36-.12-3.85-.96-9.27-2.77-13.48v38.51h-16.25v-109.27h28.16l2.41-.6,11.91,6.74-2.05,7.46h26.48c-.84-4.45-2.77-10.95-4.33-15.89l16.01-4.09c2.05,5.29,4.57,12.52,5.66,16.97l-10.59,3.01h34.42v16.25h-37.91ZM268.43,245.5c1.32.12,2.29.12,3.25.12,1.2,0,2.29-.24,3.25-.96,1.2-.96,1.81-2.89,1.81-6.14,0-5.05-1.32-12.28-7.22-19.74,1.93-7.22,4.21-17.93,5.9-26.48h-6.98v53.19Z"/><path class="cls-1" d="M415.97,204.95h-47.78v-13.6h19.62c-1.93-4.45-4.57-9.75-6.86-13.96l13.48-6.38c3.25,5.17,6.86,11.91,8.66,16.49l-7.22,3.85h20.1v13.6ZM412.48,279.56h-24.67v4.81h-14.68v-42.24h39.35v37.43ZM453.52,207.11v9.87h25.63v15.64h-25.63v10.83h26.6v15.77h-26.6v26.84h-17.57v-76.18c-3.25,5.78-6.86,10.83-10.47,14.92-2.89-2.77-9.27-7.34-13.72-10.23v6.98h-38.15v-13h38.15v2.77c8.91-9.75,16.13-24.91,20.1-40.08l18.53,4.21c-1.44,5.3-3.25,10.47-5.3,15.52h36.59v16.13h-28.16ZM411.76,238.16h-38.15v-13h38.15v13ZM387.81,255.85v9.87h9.75v-9.87h-9.75Z"/><path class="cls-1" d="M524.15,203.86c-4.09,18.41-10.47,41.28-20.1,54.64-4.33-3.13-12.4-7.22-17.21-9.15,9.15-12.03,15.04-33.34,17.33-48.86l19.98,3.37ZM554.96,173.3v91.46c0,10.11-2.17,14.8-8.3,17.69-6.26,2.77-15.04,3.37-26.96,3.25-.96-5.05-4.21-13.36-6.98-18.17,7.46.48,16.61.48,19.26.36,2.77,0,3.73-.84,3.73-3.25v-91.34h19.26ZM581.8,199.05c9.51,17.09,19.26,38.99,22.26,54.4l-19.26,7.58c-2.29-14.8-11.07-37.67-20.22-55.6l17.21-6.38Z"/><path class="cls-1" d="M650.51,177.15c-3.01,7.34-6.62,15.04-10.71,22.38v86.05h-16.61v-61.02c-2.65,3.37-5.42,6.38-8.18,9.15-1.44-4.21-6.02-13.84-8.91-18.17,11.07-10.47,21.9-27.08,28.16-43.69l16.25,5.3ZM681.8,267.41c-6.38,7.34-16.85,14.8-25.27,19.26-3.73-3.49-11.19-8.79-15.52-11.31,8.91-3.25,17.93-8.66,22.87-14.08l17.93,6.14ZM701.3,260.91c6.98,4.45,17.09,11.31,22.26,16.01l-16.13,9.39c-4.45-4.69-14.32-12.15-21.54-17.21l14.56-8.18h-49.94v-61.98h22.62v-27.32h17.69v7.34h28.52v14.68h-28.52v5.3h24.31v61.98h-13.84ZM697.44,211.69h-30.09v4.21h30.09v-4.21ZM697.44,227.81h-30.09v4.21h30.09v-4.21ZM697.44,243.94h-30.09v4.33h30.09v-4.33Z"/><path class="cls-1" d="M766.28,237.32c-3.01,1.08-6.02,2.17-9.15,3.25v26.36c0,7.58-1.2,11.91-5.29,14.68-4.09,2.65-9.75,3.37-17.57,3.25-.36-4.33-2.29-11.55-4.33-16.25,3.85.24,7.82.24,9.27.24s1.93-.48,1.93-2.05v-20.94l-8.54,2.89-3.85-16.73c3.61-.84,7.82-2.05,12.4-3.37v-19.01h-10.59v-16.01h10.59v-22.02h16.01v22.02h7.1v16.01h-7.1v14.2l6.38-2.05,2.77,15.52ZM818.99,247.19c6.5,7.46,15.28,14.2,24.07,18.53-3.73,3.13-9.15,9.39-11.67,13.6-7.94-4.93-15.64-12.28-22.02-20.58v27.2h-17.21v-25.39c-6.02,8.06-13.24,15.04-21.54,19.74-2.41-3.97-7.46-9.99-11.07-13.12,9.39-4.33,17.93-11.67,23.95-19.98h-16.73v-15.52h25.39v-11.31h17.21v11.31h30.09v15.52h-20.46ZM800.94,194.48c-.84,16.85-4.57,26.72-29.48,31.53-1.32-3.97-5.17-10.35-8.3-13.48,19.74-2.65,21.42-7.34,22.02-18.05h15.77ZM782.4,202.9h-16.13v-26.36h73.05v25.63h-16.97v-10.95h-39.95v11.67ZM819.59,194.24v10.47c0,2.77.36,3.85,2.29,3.85h9.03c2.53,0,6.02-.36,8.06-.96.36,3.97.72,10.71,1.2,14.44-2.17.84-5.54.96-8.91.96h-9.03c-14.68,0-18.05-4.69-18.05-18.41v-10.35h15.4Z"/><path class="cls-1" d="M868.08,253.33v9.15h-15.4v-80.75h36.34v71.61h-20.94ZM868.08,197.85v39.35h5.29v-39.35h-5.29ZM881.44,276.55c4.33-6.86,6.98-17.33,8.18-27.32l12.76,3.61c-1.32,10.59-3.61,22.38-8.42,29.73l-12.52-6.02ZM961.95,231.66s-.12,4.09-.24,5.9c-1.08,27.2-2.41,38.63-5.42,42.72-2.53,3.25-5.05,4.33-8.3,4.93-2.89.6-7.22.72-12.15.72-.24-4.57-1.81-10.83-3.97-14.8,3.13.36,5.78.36,7.46.36,1.44,0,2.41-.24,3.37-1.56.72-.84,1.2-2.89,1.69-6.5l-8.91,3.13c-.72-4.69-3.13-11.79-5.66-17.09l9.15-3.01c2.41,4.45,4.57,10.11,5.78,14.56.36-3.61.72-8.42.96-14.92h-51.15v-70.16h64.14v14.92h-21.9v4.57h17.93v13.36h-17.93v4.69h17.93v13.36h-17.93v4.81h25.15ZM914.54,250.08c1.81,8.06,2.77,18.29,2.53,25.15l-11.79,1.93c.48-6.74-.36-17.21-1.93-25.27l11.19-1.81ZM910.92,190.87v4.57h9.87v-4.57h-9.87ZM920.79,208.8h-9.87v4.69h9.87v-4.69ZM910.92,231.66h9.87v-4.81h-9.87v4.81ZM926.93,248.15c2.77,6.74,4.81,15.64,5.42,21.42l-10.95,3.25c-.24-5.9-2.29-14.92-4.69-21.78l10.23-2.89Z"/><path class="cls-1" d="M1018.99,210c0-6.62-5.66-9.63-13.6-9.63-6.86,0-12.4,3.13-17.21,8.67l-11.79-10.83c7.46-9.15,18.77-15.16,31.53-15.16,17.69,0,31.53,7.82,31.53,25.03s-24.91,18.53-23.83,34.42h-18.77c-1.93-18.29,22.14-21.9,22.14-32.49ZM1006.23,249.47c8.3,0,14.2,5.42,14.2,13.12s-5.9,13.36-14.2,13.36-14.2-5.66-14.2-13.36,5.9-13.12,14.2-13.12Z"/><path class="cls-2" d="M45.8,177.27c-3.13,8.3-6.98,16.73-11.43,24.67v82.8h-13.72v-61.5c-2.65,3.61-5.42,6.86-8.06,9.75-1.32-3.61-5.3-11.43-7.7-14.92,10.83-10.83,21.3-27.92,27.32-45.01l13.6,4.21ZM88.41,207.35v61.62c0,6.86-1.2,10.83-5.54,13.24-4.21,2.29-9.99,2.89-17.69,2.89-.6-4.21-2.77-10.59-4.93-14.44,5.05.12,10.11.12,11.79.12,1.56,0,2.17-.48,2.17-2.05v-61.38h-13.96c-3.37,6.98-7.34,13.36-11.31,18.41-2.53-2.53-8.3-7.22-11.55-9.39,9.15-10.23,16.37-26.84,20.46-43.32l13.96,3.13c-1.56,6.14-3.49,12.03-5.66,17.93h41.4l2.29-.48,10.11,1.93c-1.44,9.75-3.49,20.94-5.17,27.92l-12.16-2.05c.6-3.73,1.32-8.79,1.93-14.08h-16.13ZM68.43,229.02c-3.49,15.28-9.63,30.45-16.37,40.2-2.77-2.29-8.79-5.9-12.27-7.7,6.86-8.42,11.91-22.02,14.68-35.38l13.96,2.89ZM105.5,224.92c6.26,12.4,11.43,28.4,13.12,39.23l-13.72,4.69c-1.32-10.71-6.38-27.2-12.15-39.59l12.76-4.33Z"/><path class="cls-2" d="M192.5,269.45c3.13.24,6.38.36,9.63.36,6.74,0,29.85,0,38.39-.36-1.93,3.25-4.09,9.51-4.81,13.72h-34.3c-22.02,0-36.95-3.13-47.06-17.09-4.33,7.94-9.87,14.32-16.85,19.14-2.05-2.65-7.58-7.94-10.83-9.99,12.28-7.58,19.62-20.34,22.38-36.46l14.32,2.17c-.84,3.85-1.81,7.46-2.77,10.95,3.73,8.18,9.63,12.64,17.33,15.04v-30.57h-46.94v-12.64h106.15v12.64h-44.65v9.03h37.07v12.4h-37.07v11.67ZM225.71,218.43h-83.64v-41.76h83.64v41.76ZM211.15,186.65h-55.12v6.14h55.12v-6.14ZM211.15,202.18h-55.12v6.26h55.12v-6.26Z"/><path class="cls-2" d="M293.46,182.8c-3.25,10.59-7.46,23.95-11.07,33.46,7.7,9.51,9.15,17.81,9.15,24.79,0,7.94-1.69,12.88-5.66,15.77-1.81,1.44-4.21,2.29-6.98,2.65-2.29.36-5.29.36-8.06.36-.12-3.73-1.2-9.27-3.25-12.88,2.17.24,3.97.24,5.3.12,1.32,0,2.53-.24,3.61-.96,1.44-1.08,2.05-3.49,2.05-6.98,0-5.54-1.69-13.24-8.67-21.42,2.65-7.7,5.3-18.77,7.22-27.2h-10.59v94.47h-13.36v-107.23h28.52l2.05-.6,9.75,5.66ZM320.42,205.07c-.24,4.93-.36,9.63-.72,14.32h33.1s-.12,4.21-.12,6.02c-1.2,35.02-2.41,48.86-6.02,53.43-2.77,3.61-5.54,4.81-9.51,5.42-3.49.6-9.39.6-15.52.36-.24-4.21-1.93-10.11-4.33-14.2,5.42.6,10.23.72,12.64.72,1.93,0,3.13-.48,4.09-1.81,2.17-2.41,3.37-12.28,4.09-36.95h-19.62c-3.01,22.62-10.47,40.56-31.53,52.23-1.81-3.49-5.9-8.42-9.15-11.07,25.87-13.6,27.68-37.31,28.4-68.48h-15.4v-13.24h29.24c-.96-4.57-3.01-11.43-4.81-16.73l13.12-3.13c2.17,5.29,4.69,12.64,5.66,16.97l-9.87,2.89h35.14v13.24h-38.87Z"/><path class="cls-2" d="M415.37,203.74h-46.33v-11.31h20.82c-1.81-4.57-5.05-10.59-7.82-15.16l11.07-5.17c3.37,4.93,7.1,11.55,8.91,16.01l-7.94,4.33h21.3v11.31ZM412,278.36h-25.87v5.05h-12.03v-41.52h37.91v36.46ZM451.23,205.07v12.4h27.2v12.88h-27.2v13.6h28.16v13h-28.16v28.04h-14.44v-79.91h-1.2c-3.85,7.22-7.94,13.48-12.4,18.41-2.53-2.17-8.18-6.5-11.91-8.79v5.3h-36.95v-10.83h36.95v4.33c9.15-9.99,16.85-25.63,20.94-41.16l15.16,3.37c-1.56,5.54-3.37,10.83-5.54,16.13h39.11v13.24h-29.73ZM411.27,236.12h-36.95v-10.83h36.95v10.83ZM386.12,253.33v13.48h13.48v-13.48h-13.48Z"/><path class="cls-2" d="M522.47,204.46c-4.09,17.93-10.59,40.32-20.58,53.55-3.61-2.41-10.23-5.78-13.96-7.46,9.63-12.16,15.64-33.22,18.17-48.86l16.37,2.77ZM553.16,174.26v92.79c0,8.79-2.05,12.76-7.34,15.04-5.66,2.29-13.84,2.77-25.51,2.77-.84-4.21-3.49-10.95-5.66-14.92,7.82.36,16.73.36,19.38.24,2.65,0,3.61-.84,3.61-3.13v-92.79h15.52ZM580.35,200.37c9.75,17.09,19.62,38.87,22.62,53.92l-15.64,6.14c-2.41-14.56-11.55-37.19-21.06-54.76l14.08-5.3Z"/><path class="cls-2" d="M649.19,177.15c-3.13,7.7-6.86,15.64-11.19,23.23v84.24h-13.6v-63.54c-3.25,4.21-6.62,7.94-9.99,11.31-1.32-3.37-5.05-11.19-7.46-14.56,11.43-10.83,22.5-27.92,29-45.01l13.24,4.33ZM679.15,266.92c-6.62,7.1-17.21,14.2-25.75,18.65-3.01-2.89-9.03-7.22-12.64-9.27,9.03-3.49,18.53-8.91,23.71-14.56l14.68,5.17ZM713.93,260.55h-63.54v-60.41h23.59v-27.56h14.44v8.42h30.45v12.15h-30.45v6.98h25.51v60.41ZM699.49,210.72h-35.26v6.5h35.26v-6.5ZM699.49,227.09h-35.26v6.38h35.26v-6.38ZM699.49,243.58h-35.26v6.5h35.26v-6.5ZM699.01,261.39c7.46,4.45,17.93,11.43,23.23,16.25l-13.24,7.7c-4.57-4.69-14.56-12.03-22.26-17.09l12.28-6.86Z"/><path class="cls-2" d="M765.91,236c-3.25,1.2-6.5,2.53-9.87,3.61v29.12c0,6.62-1.08,10.11-4.69,12.52-3.61,2.17-8.79,2.77-16.25,2.65-.36-3.61-2.05-9.51-3.73-13.36,4.21.24,8.18.24,9.63.24s1.93-.48,1.93-2.05v-24.43c-3.37,1.2-6.62,2.29-9.75,3.37l-3.37-13.72c3.73-.96,8.18-2.29,13.12-3.85v-21.54h-11.43v-13.24h11.43v-22.75h13.12v22.75h8.18v13.24h-8.18v17.21l7.58-2.53,2.29,12.76ZM815.98,245.02c6.74,8.79,16.61,17.09,26.36,21.66-3.13,2.65-7.58,7.82-9.75,11.19-8.91-5.42-17.69-13.96-24.67-23.59v30.81h-14.08v-29.48c-6.62,9.63-14.92,17.93-24.43,23.11-2.05-3.37-6.26-8.18-9.15-10.83,10.35-4.81,19.86-13.24,26.24-22.87h-19.26v-12.76h26.6v-11.91h14.08v11.91h31.29v12.76h-23.23ZM799.49,193.51c-.96,16.97-5.17,26.6-28.16,31.53-1.2-3.37-4.33-8.54-6.98-11.07,19.01-3.01,21.42-8.54,22.14-20.46h13ZM780.36,202.66h-13.24v-24.55h71.12v23.83h-13.96v-11.67h-43.93v12.4ZM831.02,210c2.17,0,5.54-.36,7.46-.84.36,3.25.72,8.79,1.08,11.91-1.93.72-5.17.72-8.3.72h-10.71c-12.4,0-15.28-3.97-15.28-15.89v-12.52h12.64v12.64c0,2.89.36,3.97,2.41,3.97h10.71Z"/><path class="cls-2" d="M866.28,251.88v9.87h-12.64v-78.59h34.54v68.72h-21.9ZM866.28,196.4v42.24h9.15v-42.24h-9.15ZM882.52,276.19c4.57-6.74,7.34-17.45,8.54-27.08l10.59,3.01c-1.44,10.23-3.85,21.9-8.91,29l-10.23-4.93ZM960.51,232.99s-.12,3.49-.24,5.17c-1.08,27.08-2.53,38.03-5.54,41.88-2.29,2.89-4.69,3.85-7.82,4.33-2.77.48-7.46.6-12.52.48-.12-3.85-1.44-8.91-3.37-12.27,3.97.48,7.22.48,9.03.48,1.56,0,2.65-.24,3.61-1.44,1.56-1.93,2.65-8.91,3.49-26.72h-52.23v-67.63h62.34v12.4h-22.75v6.86h19.38v11.19h-19.38v6.98h19.38v11.07h-19.38v7.22h26ZM913.57,249.96c2.05,7.82,3.01,17.93,2.77,24.55l-9.87,1.56c.48-6.62-.48-16.73-2.17-24.55l9.27-1.56ZM908.4,189.66v6.86h13v-6.86h-13ZM921.39,207.71h-13v6.98h13v-6.98ZM908.4,232.99h13v-7.22h-13v7.22ZM926.09,248.15c2.89,6.62,5.29,15.28,6.02,20.82l-9.15,2.89c-.48-5.78-2.77-14.68-5.42-21.3l8.54-2.41ZM937.04,265.72c-.96-4.69-3.61-11.67-6.38-16.85l7.58-2.65c3.13,5.05,5.9,11.91,7.1,16.37l-8.3,3.13Z"/><path class="cls-2" d="M1021.28,208.68c0-7.22-5.78-11.31-15.16-11.31-7.46,0-13.72,3.25-19.26,9.51l-9.87-9.15c7.58-8.91,18.17-14.68,31.05-14.68,17.45,0,30.21,8.06,30.21,24.07,0,17.69-26.24,19.74-24.43,36.47h-15.52c-2.53-18.89,22.99-23.23,22.99-34.9ZM1006.11,251.88c7.22,0,12.52,4.81,12.52,11.79s-5.3,11.91-12.52,11.91-12.52-4.93-12.52-11.91,5.3-11.79,12.52-11.79Z"/></g></svg>