<?xml version="1.0" encoding="UTF-8"?><svg id="_圖層_2" xmlns="http://www.w3.org/2000/svg" viewBox="0 0 331.84 107.28"><defs><style>.cls-1{fill:none;stroke:#464646;stroke-linecap:round;stroke-linejoin:round;stroke-width:9.08px;}.cls-2{fill:#fff;}.cls-2,.cls-3{stroke-width:0px;}.cls-3{fill:#ea8b92;}</style></defs><g id="_圖層_1-2"><path class="cls-3" d="M16.83,4.54h266.83c6.79,0,12.29,5.64,12.29,12.59v35.68l31.34-2.12-31.34,21.22v18.24c0,6.95-5.5,12.59-12.29,12.59H16.83c-6.79,0-12.29-5.64-12.29-12.59V17.13c0-6.95,5.5-12.59,12.29-12.59Z"/><path class="cls-1" d="M16.83,4.54h266.83c6.79,0,12.29,5.64,12.29,12.59v35.68l31.34-2.12-31.34,21.22v18.24c0,6.95-5.5,12.59-12.29,12.59H16.83c-6.79,0-12.29-5.64-12.29-12.59V17.13c0-6.95,5.5-12.59,12.29-12.59Z"/><path class="cls-2" d="M81.28,65.3v6.52h-3.46v-6.52h-6.15v-3.22h6.15v-2.89h-4.93v-14.67h5.05v-2.73h-5.87v-3.22h5.87v-4.12h3.22v4.12h5.83v3.22h-5.83v2.73h5.18v14.67h-5.05v2.89h5.83v3.22h-5.83ZM75.73,50.51h2.53v-3.22h-2.53v3.22ZM75.73,56.46h2.53v-3.3h-2.53v3.3ZM83.35,47.29h-2.49v3.22h2.49v-3.22ZM83.35,53.16h-2.49v3.3h2.49v-3.3ZM98.27,68.24c0,1.39-.24,2.24-1.18,2.73-.86.49-2.16.57-3.99.57-.12-.82-.57-2.08-.98-2.85,1.3.08,2.49.04,2.81.04.41-.04.53-.12.53-.53v-4.28h-4.48c-.33,2.77-1.02,5.67-2.4,7.91-.53-.57-1.75-1.47-2.45-1.75,2.08-3.5,2.28-8.23,2.28-11.86v-8.56h9.86v18.58ZM100.43,35.27c-.2.41-.45.86-.65,1.26,2.65,3.59,5.87,5.99,9.62,7.95-.82.73-1.79,1.79-2.2,2.73-1.34-.82-2.53-1.67-3.71-2.53v2.24h-10.64v-2.12c-1.22.98-2.49,1.92-3.83,2.73-.53-.86-1.51-2-2.36-2.69,4.36-2.28,8.56-6.23,10.72-10.68l3.06,1.1ZM95.46,61.19v-3.14h-4.16v.2c0,.9,0,1.92-.08,2.93h4.24ZM91.3,52.34v3.02h4.16v-3.02h-4.16ZM102.75,44.03c-1.67-1.39-3.26-3.02-4.65-4.93-1.26,1.83-2.77,3.46-4.4,4.93h9.05ZM102.83,64.98h-2.61v-14.59h2.61v14.59ZM104.91,48.92h2.77v19.11c0,1.55-.29,2.36-1.34,2.85-.98.49-2.57.53-4.93.53-.12-.82-.57-2-.94-2.81,1.79.04,3.34.04,3.87.04.45-.04.57-.16.57-.61v-19.11Z"/><path class="cls-2" d="M133.44,36.86c0,7.29.9,22.29,16.26,31.38-.86.73-2.28,2.45-2.85,3.38-9.21-5.58-13.53-13.86-15.57-21.31-3.06,9.86-8.15,16.99-15.73,21.52-.65-.82-2.4-2.41-3.42-3.14,8.72-4.48,13.69-12.47,16.06-23.56l2.08.37c-.29-1.71-.45-3.34-.57-4.81h-9.66v-3.83h13.41Z"/><path class="cls-2" d="M153.73,53.53c0-9.66,5.34-15.45,13.04-15.45s13.08,5.79,13.08,15.45-5.38,15.65-13.08,15.65-13.04-5.99-13.04-15.65ZM175,53.53c0-7.05-3.26-11.33-8.23-11.33s-8.19,4.28-8.19,11.33,3.22,11.53,8.19,11.53,8.23-4.48,8.23-11.53Z"/><path class="cls-2" d="M191.05,42.6h-8.8v-3.95h22.37v3.95h-8.84v26.04h-4.73v-26.04Z"/><path class="cls-2" d="M209.8,38.65h9.09c6.68,0,11.45,2.28,11.45,9.05s-4.77,9.58-11.29,9.58h-4.52v11.37h-4.73v-30ZM218.6,53.48c4.81,0,7.09-1.83,7.09-5.79s-2.49-5.26-7.25-5.26h-3.91v11.04h4.08Z"/></g></svg>