<?xml version="1.0" encoding="UTF-8"?>
<svg id="_圖層_2" data-name=" 圖層 2" xmlns="http://www.w3.org/2000/svg" version="1.1" viewBox="0 0 778 748">
  <defs>
    <style>
      .cls-1 {
        fill: #000;
      }

      .cls-1, .cls-2, .cls-3, .cls-4, .cls-5 {
        stroke-width: 0px;
      }

      .cls-2 {
        fill: #dcdcdc;
      }

      .cls-6, .cls-7, .cls-8 {
        stroke: #000;
        stroke-linecap: round;
        stroke-linejoin: round;
        stroke-width: 8px;
      }

      .cls-6, .cls-5 {
        fill: #f0f0f0;
      }

      .cls-7 {
        fill: none;
      }

      .cls-3 {
        fill: #ff4b3e;
      }

      .cls-4 {
        fill: #c00;
      }

      .cls-8 {
        fill: #828282;
      }
    </style>
  </defs>
  <g id="_圖層_1-2" data-name=" 圖層 1-2">
    <path class="cls-2" d="M233.9,553l-82.8-12.1,53.6-328.2s4.1-46.4,40.9-70c0,0,4.6-12.4,13.1-17.5s74.1-42.9,74.1-42.9l8.6-1.3h96.4l25.9,14.2,54,32.1,7.5,9.5,1.7,5.9,11,7.4,14.2,16.4,11.2,22.3,5.5,21.3,6.4,39.7,47.6,291.2-83.5,12.1,13.8,114.8H221.9l12-114.8h0Z"/>
    <polygon class="cls-5" points="159.9 494.6 237.7 505.6 234 553.9 151.1 540.9 159.9 494.6"/>
    <polygon class="cls-5" points="615.1 494.6 537.3 505.6 541 553.9 623.9 540.9 615.1 494.6"/>
    <path class="cls-6" d="M330.5,83.2l-71.8,42c-24.5,17.5-3.5,39.4-3.5,39.4l35,35-24.5,19.3s-19.3,19.3,6.1,38.5c25.4,19.3,115.1,84.8,115.1,84.8l-56.5-259Z"/>
    <path class="cls-6" d="M386.9,342.2s89.7-65.6,115.1-84.8c25.4-19.3,6.1-38.5,6.1-38.5l-24.5-19.3,35-35s21-21.9-3.5-39.4l-71.8-42-56.4,259h0Z"/>
    <path class="cls-7" d="M363.8,667.8v-278.8s-4.4-30.1,33.3-53.7"/>
    <polyline class="cls-7" points="256.1 345.7 221.9 667.8 553.2 667.8 517.6 345.7"/>
    <circle class="cls-1" cx="405.8" cy="445.9" r="11.4" transform="translate(-99.4 775.1) rotate(-80.8)"/>
    <circle class="cls-1" cx="405.8" cy="517.7" r="11.4" transform="translate(-170.2 835.3) rotate(-80.8)"/>
    <circle class="cls-1" cx="405.8" cy="589.5" r="11.4" transform="translate(-241 895.6) rotate(-80.8)"/>
    <line class="cls-7" x1="314.3" y1="529.1" x2="236.5" y2="529.1"/>
    <line class="cls-7" x1="537.9" y1="529.5" x2="460.1" y2="529.5"/>
    <path class="cls-7" d="M233.9,553l-82.8-12.1,53.6-328.2s4.1-46.4,40.9-70"/>
    <line class="cls-7" x1="159" y1="494.5" x2="239.5" y2="505.9"/>
    <path class="cls-7" d="M540.9,553l81.9-12.1-53.6-328.2s-4.1-46.4-40.9-70"/>
    <line class="cls-7" x1="615" y1="494.5" x2="535.3" y2="505.9"/>
    <path class="cls-8" d="M316.1,128.2v-13c0-18.8,6.6-34.2,25.4-34.2h92.7c18.8,0,25.4,15.4,25.4,34.2v13"/>
    <polyline class="cls-1" points="316.5 129.6 387 342.2 459.2 129.6"/>
    <line class="cls-7" x1="458.3" y1="127.8" x2="317.4" y2="127.8"/>
    <path class="cls-4" d="M39.2,297.1c1,2.7,1.2,5.2.6,7.6-.6,2.4-1.9,4.7-3.9,6.6s-4.9,3.6-8.4,4.9c-1.6.6-3.1,1-4.7,1.4-1.6.3-3.1.6-4.6.7s-3,0-4.4,0l-3.3-8.8c2.5.2,5,.2,7.6,0,2.6,0,5-.6,7.2-1.4,1.6-.6,2.7-1.2,3.5-2s1.3-1.6,1.4-2.5c.2-.9,0-1.8-.3-2.7-.4-1.1-1.2-1.9-2.2-2.5-1.1-.5-2.4-.9-3.9-1.1-1.6-.2-3.3-.4-5.3-.6-1.2-.1-2.6-.3-4.1-.5-1.5-.2-3-.7-4.5-1.3-1.5-.6-2.8-1.5-4.1-2.7s-2.2-2.8-3-4.9c-1-2.7-1.2-5.2-.7-7.6s1.7-4.5,3.6-6.3c1.9-1.9,4.4-3.4,7.5-4.5,2.3-.9,4.7-1.4,7-1.7,2.3-.2,4.8-.3,7.5-.1l-.3,8.5c-2.4,0-4.5,0-6.3.1-1.8.2-3.6.5-5.3,1.2-1.2.4-2.1,1-2.8,1.7-.7.7-1.1,1.5-1.3,2.3-.2.8,0,1.7.2,2.6.4,1.1,1,1.8,1.9,2.3s2.1.8,3.6,1.1,3.4.4,5.6.6c2.7.2,5.1.6,7.1,1.2,2.1.6,3.8,1.5,5.3,2.7,1.5,1.3,2.6,3.1,3.5,5.4h0Z"/>
    <path class="cls-4" d="M79.4,296.3l-7.2-9.5-16.3,6.1.7,11.9-10.2,3.8-.9-50.9,11.6-4.3,32.6,39.1-10.2,3.8ZM67,279.8l-7.1-9.2c-.5-.6-1.1-1.4-1.8-2.4-.7-1-1.5-2-2.3-3-.8-1-1.4-1.9-1.9-2.7.1.9.2,2.1.3,3.4.1,1.4.2,2.7.3,3.9,0,1.2.1,2.1.2,2.6l.7,11.6,11.7-4.3h0Z"/>
    <path class="cls-4" d="M95.3,290.4l-16.7-44.8,9.5-3.5,13.8,37,18.2-6.8,2.9,7.9s-27.7,10.3-27.7,10.3Z"/>
    <path class="cls-4" d="M156.6,267.6l-25.8,9.6-16.7-44.8,25.8-9.6,2.9,7.8-16.3,6.1,3.7,9.8,15.2-5.6,2.9,7.8-15.2,5.6,4.3,11.6,16.3-6.1,2.9,7.9h0Z"/>
    <path class="cls-3" d="M775.3,523.7l-90.7,72.7-15.4-6.3,90.7-72.7,15.4,6.3ZM709.1,495c7.4,3,11.9,7.9,13.6,14.6,1.7,6.7.7,14.7-3.2,24s-8.6,15.8-14.3,19.6c-5.7,3.8-12.5,4-20.3.8-7.2-3-11.7-7.8-13.3-14.6s-.5-14.8,3.3-24.1c3.8-9.3,8.5-15.8,14.2-19.5,5.6-3.7,12.3-4,20-.8h0ZM703.7,508.5c-2.1-.9-4.2-.2-6.3,2.1s-4.2,6.1-6.4,11.5c-2.2,5.4-3.4,9.7-3.5,12.8-.1,3.1.9,5.1,3,6,2.1.9,4.2.2,6.3-2.1,2.1-2.3,4.3-6.1,6.5-11.6,2.2-5.4,3.4-9.6,3.4-12.7,0-3.1-.9-5-3-5.9h0ZM759.6,559.5c7.4,3,11.9,7.9,13.6,14.6,1.7,6.7.7,14.7-3.2,24-3.8,9.3-8.6,15.8-14.3,19.5-5.7,3.8-12.5,4-20.3.8-7.2-3-11.7-7.8-13.3-14.6-1.6-6.8-.6-14.8,3.2-24.1,3.8-9.3,8.5-15.8,14.2-19.5,5.6-3.7,12.3-4,20-.8h0ZM754.2,573c-2.1-.9-4.2-.2-6.3,2.1s-4.2,6.1-6.4,11.5-3.4,9.7-3.5,12.8c-.1,3.1.9,5.1,3,6,2.1.9,4.2.2,6.3-2.1,2.1-2.3,4.3-6.1,6.5-11.6,2.2-5.4,3.4-9.6,3.4-12.7s-.9-5-3-5.9h0Z"/>
  </g>
</svg>