<?xml version="1.0" encoding="UTF-8"?>
<svg id="_圖層_2" data-name=" 圖層 2" xmlns="http://www.w3.org/2000/svg" version="1.1" viewBox="0 0 778 748">
  <defs>
    <style>
      .cls-1 {
        fill: #828282;
      }

      .cls-1, .cls-2, .cls-3, .cls-4 {
        stroke: #000;
        stroke-linecap: round;
        stroke-linejoin: round;
      }

      .cls-1, .cls-4 {
        stroke-width: 8px;
      }

      .cls-2 {
        stroke-width: 8px;
      }

      .cls-2, .cls-3, .cls-4 {
        fill: #f0f0f0;
      }

      .cls-3 {
        stroke-width: 8px;
      }
    </style>
  </defs>
  <g id="_圖層_1-2" data-name=" 圖層 1-2">
    <path class="cls-3" d="M344.4,126.7S227.2-28.9,53.3,70.5c0,0-34.8,19.9,8.3,43,0,0,16.5,9.9,41.5-1.7,0,0-23.1,26.5-1.7,49.7,21.6,23.1,49.7,4.9,49.7,4.9,0,0-24.8,29.8,3.3,46.4,28.2,16.5,104.4-4.9,104.4-4.9"/>
    <path class="cls-3" d="M571.5,407s128.1,148.3,0,302.3c0,0-23.7,18.1-33.6-8.4s0-55.6,0-55.6c0,0-82.8,42.4-41.5-53.7,0,0-86.1,52.6-25.7-85.5"/>
    <path class="cls-3" d="M499.7,34.9l225.3,278.3s-130.9,59.7-215.4,149.1c0,0-48.1,54.7-77.9,96.2-29.8,41.5-63.3,82.5-143.1,134.4L58.2,411.8s67.9-43,101-82.8c33.1-39.8,96.1-116,96.1-116,0,0,92.8-117.6,244.4-178.1h0Z"/>
    <path class="cls-3" d="M510.5,110.3l132.6,162.4s-19.9,21.6-6.6,44.7c0,0-69.6,29.8-157.4,120.9,0,0-122.4,151.4-157.4,178.9,0,0-24.8-21.6-46.4-4.9l-137.5-167.3s19.9-16.5,6.6-46.4c0,0,41.5-36.4,94.4-104.4,53-67.9,125.1-131.8,125.1-131.8,0,0,52.1-43.8,96.9-62,0,0,18.2,21.6,49.7,9.9h0Z"/>
    <ellipse class="cls-1" cx="378.9" cy="346.3" rx="89.9" ry="101" transform="translate(-114.2 203.7) rotate(-26.3)"/>
    <ellipse class="cls-4" cx="257.3" cy="473.8" rx="26.5" ry="29.7" transform="translate(-183.3 163) rotate(-26.3)"/>
    <ellipse class="cls-2" cx="514.3" cy="232.8" rx="26.5" ry="29.7" transform="translate(-49.9 252.9) rotate(-26.4)"/>
  </g>
</svg>