<?xml version="1.0" encoding="UTF-8"?>
<svg id="_圖層_2" data-name=" 圖層 2" xmlns="http://www.w3.org/2000/svg" version="1.1" viewBox="0 0 778 748">
  <defs>
    <style>
      .cls-1 {
        fill: #000;
      }

      .cls-1, .cls-2 {
        stroke-width: 0px;
      }

      .cls-3 {
        fill: #f0f0f0;
      }

      .cls-3, .cls-4, .cls-5 {
        stroke: #000;
        stroke-linecap: round;
        stroke-linejoin: round;
        stroke-width: 8px;
      }

      .cls-4 {
        fill: #e6e6e6;
      }

      .cls-2 {
        fill: #fff;
      }

      .cls-5 {
        fill: #828282;
      }
    </style>
  </defs>
  <g id="_圖層_1-2" data-name=" 圖層 1-2">
    <rect class="cls-3" x="185.7" y="9.9" width="415.5" height="729" rx="49.3" ry="49.3"/>
    <rect class="cls-5" x="209.3" y="83.6" width="368.2" height="573.8" rx="25.4" ry="25.4"/>
    <circle class="cls-4" cx="393.5" cy="697.7" r="24.5"/>
    <path class="cls-1" d="M342.9,52.6c0,3.3-2.6,5.9-5.9,5.9s-5.9-2.6-5.9-5.9,2.6-5.9,5.9-5.9,5.9,2.6,5.9,5.9Z"/>
    <path class="cls-1" d="M455.8,52.6c0,3.1-2.6,5.6-5.8,5.6h-90.2c-3.2,0-5.8-2.5-5.8-5.6h0c0-3.1,2.6-5.6,5.8-5.6h90.2c3.2,0,5.8,2.5,5.8,5.6h0Z"/>
    <rect class="cls-1" x="382.9" y="445.9" width="289.2" height="123.4" rx="39.1" ry="39.1"/>
    <polygon class="cls-1" points="399.5 548.7 367.7 569.3 423.8 569.3 399.5 548.7"/>
    <circle class="cls-2" cx="457.3" cy="507.4" r="16.7"/>
    <circle class="cls-2" cx="527.3" cy="507.4" r="16.7"/>
    <circle class="cls-2" cx="597.2" cy="507.4" r="16.7"/>
    <path class="cls-2" d="M156.5,382.7c-23.5,0-42.5-19.1-42.5-42.5v-111.5c0-23.5,19.1-42.5,42.5-42.5h230c23.5,0,42.5,19.1,42.5,42.5v111.5c0,8.4-2.4,16.4-7,23.3l21,13.6c1.1.7,1.7,2.1,1.3,3.4-.4,1.3-1.6,2.2-2.9,2.2H156.5Z"/>
    <path class="cls-1" d="M386.5,189.2c21.7,0,39.5,17.8,39.5,39.5v111.5c0,9.1-3.1,17.5-8.3,24.2l23.7,15.3H156.5c-21.7,0-39.5-17.8-39.5-39.5v-111.5c0-21.7,17.8-39.5,39.5-39.5h230M386.5,183.1h-230c-25.2,0-45.6,20.5-45.6,45.6v111.5c0,25.2,20.5,45.6,45.6,45.6h284.8c2.7,0,5.1-1.8,5.9-4.4s-.3-5.4-2.5-6.9l-18.5-12c3.9-6.8,5.9-14.4,5.9-22.4v-111.5c0-25.2-20.5-45.6-45.6-45.6h0Z"/>
    <path class="cls-1" d="M245.2,345.2h-25v-68.4c0-1.9,0-4.2,0-7s.1-5.6.2-8.6.2-5.6.3-8c-.6.7-1.8,1.9-3.6,3.6s-3.5,3.2-5.1,4.6l-13.6,10.9-12-15,38.1-30.3h20.5v118.3h0Z"/>
    <path class="cls-1" d="M360.8,345.2h-82.7v-17.4l29.7-30c6-6.1,10.8-11.3,14.4-15.4,3.6-4.1,6.3-7.9,7.9-11.3s2.5-7,2.5-10.9-1.3-8.2-3.9-10.6c-2.6-2.3-6.1-3.5-10.5-3.5s-9,1.1-13.3,3.2c-4.3,2.1-8.8,5.1-13.5,9l-13.6-16.1c3.4-2.9,7-5.7,10.8-8.3s8.2-4.7,13.3-6.3,11.1-2.4,18.2-2.4,14.4,1.4,20,4.2c5.6,2.8,9.9,6.6,12.9,11.4,3,4.8,4.5,10.3,4.5,16.4s-1.3,12.5-3.9,17.9c-2.6,5.4-6.4,10.7-11.3,16-4.9,5.3-10.9,11.1-17.8,17.6l-15.2,14.3v1.1h51.5v21h0Z"/>
  </g>
</svg>