<?xml version="1.0" encoding="UTF-8"?>
<svg id="_圖層_2" data-name=" 圖層 2" xmlns="http://www.w3.org/2000/svg" version="1.1" viewBox="0 0 778 748">
  <defs>
    <style>
      .cls-1 {
        stroke: #828282;
        stroke-width: 15px;
      }

      .cls-1, .cls-2, .cls-3, .cls-4 {
        stroke-linecap: round;
        stroke-linejoin: round;
      }

      .cls-1, .cls-3, .cls-4 {
        fill: none;
      }

      .cls-5 {
        fill: #000;
        stroke-width: 0px;
      }

      .cls-2 {
        fill: #f0f0f0;
      }

      .cls-2, .cls-3 {
        stroke-width: 8px;
      }

      .cls-2, .cls-3, .cls-4 {
        stroke: #000;
      }

      .cls-4 {
        stroke-width: 20px;
      }
    </style>
  </defs>
  <g id="_圖層_1-2" data-name=" 圖層 1-2">
    <path class="cls-2" d="M673.3,269l-30.9-67.1c-22.5,6-46.7-4.8-56.9-26.8-10.1-21.9-2.6-47.4,16.6-60.7l-31.6-68.6c-25.4,11.4-55.3.3-66.9-25L89.1,211.9c11.7,25.5.7,55.5-24.8,67.3,0,0-.3,0-.4.2l31.6,68.6c22.5-6,46.7,4.8,56.9,26.8,10.1,21.9,2.6,47.4-16.6,60.7l30.9,67.1c0,0,.3,0,.4-.2,25.5-11.7,55.5-.7,67.3,24.8l414.4-191.1c-11.6-25.3-.8-55.3,24.4-67.1h0Z"/>
    <polygon class="cls-5" points="225.8 221.2 264.4 252.3 311.9 238.2 294.1 284.5 322.1 325.3 272.7 322.7 242.5 362 229.7 314.2 183 297.7 224.5 270.7 225.8 221.2"/>
    <line class="cls-3" x1="257.4" y1="426.5" x2="361.5" y2="378.6"/>
    <line class="cls-1" x1="415.6" y1="171.8" x2="519.6" y2="123.8"/>
    <line class="cls-1" x1="436" y1="216.2" x2="540.1" y2="168.2"/>
    <line class="cls-1" x1="456.4" y1="260.6" x2="560.5" y2="212.6"/>
    <line class="cls-1" x1="477" y1="304.9" x2="581" y2="257"/>
    <line class="cls-3" x1="336.5" y1="98.9" x2="354.1" y2="137.1"/>
    <line class="cls-3" x1="368.3" y1="167.9" x2="385.9" y2="206.2"/>
    <line class="cls-3" x1="400.1" y1="236.9" x2="417.7" y2="275.2"/>
    <line class="cls-3" x1="431.9" y1="306" x2="449.6" y2="344.2"/>
    <line class="cls-3" x1="464.6" y1="374.7" x2="482.2" y2="412.9"/>
    <path class="cls-2" d="M713.8,647.8v-86.2c-26.8-4.6-47.2-28-47.2-56.1s20.3-51.5,47.2-56.1v-88.2c-32.5-.3-58.7-26.6-58.7-59.1H122.8c0,32.6-26.5,59.1-59.1,59.1h-.5v88.2c26.8,4.6,47.2,28,47.2,56.1s-20.3,51.5-47.2,56.1v86.2h.5c32.6,0,59.1,26.5,59.1,59.1h532.3c0-32.5,26.2-58.9,58.7-59.1h0Z"/>
    <polygon class="cls-5" points="263.2 378.5 288.8 430.3 345.9 438.6 304.6 479 314.3 535.8 263.2 509 212 535.8 221.8 479 180.4 438.6 237.6 430.3 263.2 378.5"/>
    <line class="cls-4" x1="196.3" y1="611.5" x2="330" y2="611.5"/>
    <line class="cls-1" x1="488.2" y1="418.9" x2="621.9" y2="418.9"/>
    <line class="cls-1" x1="488.2" y1="475.9" x2="621.9" y2="475.9"/>
    <line class="cls-1" x1="488.2" y1="532.9" x2="621.9" y2="532.9"/>
    <line class="cls-1" x1="488.2" y1="589.9" x2="621.9" y2="589.9"/>
    <line class="cls-3" x1="440.1" y1="303" x2="440.1" y2="352.1"/>
    <line class="cls-3" x1="440.1" y1="391.6" x2="440.1" y2="440.8"/>
    <line class="cls-3" x1="440.1" y1="480.4" x2="440.1" y2="529.5"/>
    <line class="cls-3" x1="440.1" y1="569" x2="440.1" y2="618.1"/>
    <line class="cls-3" x1="441.1" y1="657.7" x2="441.1" y2="706.9"/>
  </g>
</svg>