<?xml version="1.0" encoding="UTF-8"?>
<svg id="_圖層_2" data-name=" 圖層 2" xmlns="http://www.w3.org/2000/svg" version="1.1" viewBox="0 0 778 748">
  <defs>
    <style>
      .cls-1 {
        fill: #000;
      }

      .cls-1, .cls-2 {
        stroke-width: 0px;
      }

      .cls-3 {
        fill: none;
        stroke: #ff4b3e;
        stroke-width: 20px;
      }

      .cls-3, .cls-4, .cls-5, .cls-6 {
        stroke-linecap: round;
        stroke-linejoin: round;
      }

      .cls-4 {
        fill: #f0f0f0;
      }

      .cls-4, .cls-5, .cls-6 {
        stroke: #000;
        stroke-width: 8px;
      }

      .cls-5 {
        fill: #e6e6e6;
      }

      .cls-2 {
        fill: #fff;
      }

      .cls-6 {
        fill: #828282;
      }
    </style>
  </defs>
  <g id="_圖層_1-2" data-name=" 圖層 1-2">
    <rect class="cls-4" x="182.6" y="11.2" width="410.2" height="719.6" rx="48.6" ry="48.6"/>
    <rect class="cls-6" x="206" y="84" width="363.5" height="566.4" rx="25.1" ry="25.1"/>
    <circle class="cls-5" cx="387.7" cy="690.2" r="24.2"/>
    <path class="cls-1" d="M337.8,53.4c0,3.2-2.6,5.8-5.8,5.8s-5.8-2.6-5.8-5.8,2.6-5.8,5.8-5.8,5.8,2.6,5.8,5.8Z"/>
    <path class="cls-1" d="M449.3,53.4c0,3.1-2.6,5.6-5.7,5.6h-89.1c-3.2,0-5.7-2.5-5.7-5.6h0c0-3.1,2.6-5.6,5.7-5.6h89.1c3.2,0,5.7,2.5,5.7,5.6h0Z"/>
    <path class="cls-1" d="M593.7,741.5c-75.8,0-137.5-61.7-137.5-137.4,0-75.7,61.9-137.5,137.5-137.4,75.6,0,137.5,62.2,137.3,137.7-.2,75.5-61.9,137.1-137.4,137.1ZM612.6,532.9h0c0-1,.1-1.9.2-2.9.6-12.1-7.1-20.1-19.1-20-12.3,0-19.9,8.5-19,20.6,2.5,34.2,4.8,68.4,7.1,102.7.5,7.4,4.7,11.6,11.8,11.6,7.2,0,11.7-4,12.2-11.3,2.3-33.6,4.6-67.2,6.9-100.8h0ZM608.9,683c0-8.5-6.6-15.2-15-15.3-8.6-.1-15.6,6.7-15.7,15.2,0,8.4,7.2,15.6,15.5,15.5,8.3-.1,15.1-7,15.1-15.4h0Z"/>
    <path class="cls-2" d="M612.6,532.9c-2.3,33.6-4.6,67.2-6.9,100.8-.5,7.3-5,11.4-12.2,11.3-7.1,0-11.3-4.3-11.8-11.6-2.3-34.2-4.6-68.4-7.1-102.7-.9-12.1,6.7-20.6,19-20.6,12,0,19.7,8,19.1,20,0,1-.1,1.9-.2,2.9h0,0Z"/>
    <path class="cls-2" d="M608.9,683c0,8.3-6.8,15.2-15.1,15.4-8.3.1-15.6-7.1-15.5-15.5,0-8.5,7.1-15.4,15.7-15.2,8.4.1,15,6.9,15,15.3h0Z"/>
    <path class="cls-4" d="M483.8,429.3c0,3.5-1,6.8-3.2,9.4-6.2,7.2-12.4,14.3-18.9,21.3-2.9,3.1-6.7,3.9-10.9,3.1-18.8-3.9-36.1-11.6-52.3-21.5-35-21.5-63.4-49.7-84.9-84.7-10.1-16.4-17.8-33.8-21.8-52.7-.9-4.3,0-8.1,3.3-11,6.9-6.3,13.7-12.6,20.9-18.5,7.2-5.8,16.9-4.3,22.3,3.3,7.4,10.2,14.6,20.5,21.9,30.9,4,5.7,4.2,11.8.8,18-3.2,5.7-6.4,11.3-9.8,16.9-.8,1.3-.7,2.2.2,3.4,16.1,21.5,34.9,40.3,56.4,56.5,1.4,1,2.4,1.1,3.8.2,5.3-3.2,10.7-6.2,16-9.3,6.5-3.8,12.8-3.6,19,.8,10.1,7.1,20.1,14.2,30.1,21.3,4.5,3.2,6.9,7.5,7,13.1h0Z"/>
    <path class="cls-3" d="M648,244.4c38,38,38,99.5,0,137.5"/>
    <path class="cls-3" d="M712.7,189.4c68.4,68.4,68.4,179.2,0,247.5"/>
    <path class="cls-3" d="M680.4,216.9c53.2,53.2,53.2,139.4,0,192.5"/>
    <path class="cls-3" d="M129,244.4c-38,38-38,99.5,0,137.5"/>
    <path class="cls-3" d="M64.3,189.4c-68.4,68.4-68.4,179.2,0,247.5"/>
    <path class="cls-3" d="M96.6,216.9c-53.2,53.2-53.2,139.4,0,192.5"/>
  </g>
</svg>