<?xml version="1.0" encoding="UTF-8"?><svg id="_圖層_2" xmlns="http://www.w3.org/2000/svg" viewBox="0 0 777.96 748"><defs><style>.cls-1{fill:#000;}.cls-1,.cls-2,.cls-3,.cls-4{stroke-width:0px;}.cls-5{fill:#f0f0f0;}.cls-5,.cls-6,.cls-7{stroke:#000;stroke-linecap:round;stroke-linejoin:round;stroke-width:8px;}.cls-6{fill:#e6e6e6;}.cls-2{fill:#ff4b3e;}.cls-3{fill:#c00;}.cls-4{fill:#fff;}.cls-7{fill:#828282;}</style></defs><g id="_圖層_1-2"><rect class="cls-5" x="180.44" y="4" width="421.81" height="740" rx="50" ry="50"/><rect class="cls-7" x="204.45" y="78.79" width="373.79" height="582.42" rx="25.81" ry="25.81"/><rect class="cls-1" x="265.28" y="104.16" width="405.33" height="111.46" rx="25.81" ry="25.81"/><polygon class="cls-1" points="276.26 202 255.26 215.62 292.26 215.62 276.26 202"/><rect class="cls-1" x="265.28" y="329.5" width="355.33" height="81.46" rx="25.81" ry="25.81"/><polygon class="cls-1" points="276.26 397.34 255.26 410.96 292.26 410.96 276.26 397.34"/><path class="cls-4" d="M140.55,307.55c-15.33,0-27.81-12.47-27.81-27.81v-13.84c0-15.33,12.47-27.81,27.81-27.81h350.71c15.33,0,27.81,12.47,27.81,27.81v13.84c0,5.48-1.58,10.71-4.59,15.25l13.7,8.88c.74.48,1.08,1.4.83,2.25-.25.85-1.03,1.43-1.92,1.43H140.55Z"/><path class="cls-1" d="M491.26,240.09c14.19,0,25.81,11.61,25.81,25.81v13.84c0,5.93-2.03,11.41-5.43,15.78l15.46,10.02H140.55c-14.19,0-25.81-11.61-25.81-25.81v-13.84c0-14.19,11.61-25.81,25.81-25.81h350.71M491.26,236.09H140.55c-16.44,0-29.81,13.37-29.81,29.81v13.84c0,16.44,13.37,29.81,29.81,29.81h386.54c1.77,0,3.33-1.17,3.84-2.87s-.17-3.53-1.66-4.49l-12.06-7.82c2.54-4.45,3.86-9.43,3.86-14.63v-13.84c0-16.44-13.37-29.81-29.81-29.81h0Z"/><path class="cls-4" d="M249.55,561.43c-15.33,0-27.81-12.47-27.81-27.81v-72.84c0-15.33,12.47-27.81,27.81-27.81h241.71c15.33,0,27.81,12.47,27.81,27.81v72.84c0,5.48-1.58,10.71-4.59,15.25l13.7,8.88c.74.48,1.08,1.4.83,2.25s-1.03,1.43-1.92,1.43H249.55Z"/><path class="cls-1" d="M491.26,434.98c14.19,0,25.81,11.61,25.81,25.81v72.84c0,5.93-2.03,11.41-5.43,15.78l15.46,10.02H249.55c-14.19,0-25.81-11.61-25.81-25.81v-72.84c0-14.19,11.61-25.81,25.81-25.81h241.71M491.26,430.98h-241.71c-16.44,0-29.81,13.37-29.81,29.81v72.84c0,16.44,13.37,29.81,29.81,29.81h277.54c1.77,0,3.33-1.17,3.84-2.87s-.17-3.53-1.66-4.49l-12.06-7.82c2.54-4.45,3.86-9.43,3.86-14.63v-72.84c0-16.44-13.37-29.81-29.81-29.81h0Z"/><rect class="cls-1" x="265.28" y="583.14" width="170.33" height="52.46" rx="25.81" ry="25.81"/><polygon class="cls-1" points="276.26 621.98 255.26 635.6 292.26 635.6 276.26 621.98"/><circle class="cls-6" cx="391.34" cy="702.21" r="24.91" transform="translate(-381.99 921.75) rotate(-76.72)"/><path class="cls-1" d="M339.98,47.32c0,3.3-2.68,5.98-5.98,5.98s-5.98-2.68-5.98-5.98,2.68-5.98,5.98-5.98,5.98,2.68,5.98,5.98Z"/><path class="cls-1" d="M454.66,47.33c0,3.16-2.64,5.72-5.9,5.72h-91.59c-3.26,0-5.9-2.56-5.9-5.72h0c0-3.16,2.64-5.73,5.9-5.73h91.59c3.26,0,5.9,2.56,5.9,5.73h0Z"/><path class="cls-3" d="M43.5,166.81L0,69.76l33.63-12.51,30.53,101.87-20.66,7.69ZM73.88,216.85c-5.13,1.91-9.99,1.87-14.57-.11-4.63-2.12-7.93-5.81-9.89-11.08-1.96-5.27-1.88-10.22.24-14.85,2.12-4.63,5.74-7.9,10.88-9.81,5.13-1.91,10.01-1.8,14.65.31,4.63,2.12,7.93,5.81,9.89,11.08,1.96,5.27,1.88,10.22-.24,14.85-2.17,4.5-5.82,7.7-10.95,9.61Z"/><path class="cls-2" d="M679.06,637.13c-6.38-2.61-10.83-6.79-13.37-12.53-2.48-5.91-2.37-12.13.31-18.67,2.68-6.54,6.97-11.05,12.89-13.52,5.91-2.47,12.05-2.41,18.42.2,6.37,2.61,10.79,6.87,13.27,12.78,2.47,5.91,2.37,12.13-.31,18.67-2.68,6.54-6.98,11.05-12.88,13.52-5.84,2.31-11.95,2.15-18.32-.46ZM693.65,564.96l42.55-126.8,41.76,17.11-58.65,120.21-25.66-10.51Z"/></g></svg>