<?xml version="1.0" encoding="UTF-8"?>
<svg id="_圖層_2" data-name=" 圖層 2" xmlns="http://www.w3.org/2000/svg" version="1.1" viewBox="0 0 778 748">
  <defs>
    <style>
      .cls-1 {
        fill: #000;
      }

      .cls-1, .cls-2, .cls-3 {
        stroke-width: 0px;
      }

      .cls-4 {
        fill: #f0f0f0;
      }

      .cls-4, .cls-5, .cls-6, .cls-7 {
        stroke: #000;
        stroke-linecap: round;
        stroke-linejoin: round;
      }

      .cls-4, .cls-7 {
        stroke-width: 8px;
      }

      .cls-2 {
        fill: #ff4b3e;
      }

      .cls-5 {
        stroke-width: 20px;
      }

      .cls-5, .cls-6 {
        fill: none;
      }

      .cls-3 {
        fill: #c00;
      }

      .cls-6 {
        stroke-width: 10px;
      }

      .cls-7 {
        fill: #828282;
      }
    </style>
  </defs>
  <g id="_圖層_1-2" data-name=" 圖層 1-2">
    <path class="cls-3" d="M86.5,237.6l-6.9-18.5c-8.2,2.9-15.8,4.8-22.8,5.8-6.9,1-13.5,1.3-19.6,1l-9.1-24.3c6.2.6,13.3.5,21.3,0,8-.6,15.4-2,22.1-4l-10.6-28.6c-11.1-.2-20.3-1-27.4-2.4-7.2-1.4-12.8-3.9-17-7.3-4.2-3.4-7.4-8.2-9.7-14.4-2.3-6.3-2.7-12.3-1-18.1,1.7-5.8,4.9-11.2,9.9-16.2,4.9-5,11.2-9.3,18.7-12.8l-5.2-14.1,12.6-4.7,5.1,13.7c7.2-2.4,14.2-4.1,20.9-5,6.7-.9,13.5-1.2,20.5-.7l-.6,24.8c-5.8-.2-11.5,0-17,.8-5.5.7-10.6,1.7-15.2,3l10.1,27.2c7.8,0,15.3.3,22.5,1,7.2.7,13.7,2.5,19.2,5.7,5.6,3.1,9.7,8.4,12.5,15.7,3.4,9.2,2.9,18.1-1.4,26.8-4.4,8.7-13.1,16.2-26.1,22.4l7,18.9-12.6,4.7h0ZM50.9,142l-8.1-21.7c-2.4,1.3-4.3,2.7-5.8,4.2-1.5,1.5-2.4,3.1-2.9,4.7s-.3,3.3.3,5.1,1.7,3.2,3,4.2,3.1,1.8,5.3,2.3c2.2.5,4.9.9,8.1,1.1h0ZM83.9,192.1c4-2.3,6.7-4.8,8.1-7.4,1.4-2.6,1.5-5.3.4-8.2-.6-1.7-1.7-3.1-3.1-4.1s-3.3-1.8-5.6-2.3-5.1-.8-8.3-1.1l8.6,23h0Z"/>
    <path class="cls-2" d="M642.7,632.2l9.4-23c-10.1-4.4-18.7-9.1-26-14.1-7.3-5-13.6-10.3-19-15.9l12.4-30.2c5.2,5.8,11.8,11.8,19.7,18.1,8,6.2,15.9,11.3,23.9,15.2l14.5-35.5c-10.1-9.7-17.9-18.2-23.3-25.7-5.4-7.4-8.6-14.5-9.5-21.3-.9-6.8.2-13.9,3.3-21.6,3.2-7.8,8-13.7,14.5-17.7,6.5-4,14.1-6.2,23-6.6,8.8-.4,18.2,1,28.3,4.1l7.2-17.5,15.7,6.4-7,17.1c8.7,3.9,16.6,8.3,23.6,13.2s13.5,10.5,19.5,16.8l-21.7,22.4c-5.2-5.2-10.6-9.8-16.4-13.8-5.7-4-11.3-7.4-16.6-10.2l-13.8,33.8c7.2,6.6,13.9,13.3,20,20.1,6.1,6.8,10.4,14,12.9,21.6,2.5,7.6,1.9,16-1.9,25.2-4.7,11.4-12.7,19.2-24.2,23.5-11.4,4.3-25.9,3.8-43.3-1.6l-9.6,23.5-15.7-6.4h0ZM679.2,587.9c5.7,1.3,10.3,1.3,13.7,0s5.9-3.6,7.4-7.2c.9-2.1,1.1-4.3.6-6.4-.5-2.1-1.5-4.4-3.3-6.9s-4-5.1-6.8-8.1l-11.7,28.5h0ZM691.4,513.5l11-26.9c-3.3-.8-6.3-1.2-8.9-1.1s-4.9.8-6.7,1.9c-1.8,1.1-3.2,2.8-4.1,5s-1.2,4.4-.8,6.5c.3,2.1,1.3,4.3,2.9,6.7,1.6,2.3,3.8,5,6.6,7.9h0Z"/>
    <rect class="cls-4" x="174.6" y="30.1" width="407.5" height="689" rx="18.6" ry="18.6"/>
    <rect class="cls-7" x="216.1" y="111.7" width="324.5" height="324.5"/>
    <polygon class="cls-4" points="424 69.7 332.6 69.7 323.3 29.6 433.3 29.6 424 69.7"/>
    <circle class="cls-1" cx="378.3" cy="242.7" r="55.5"/>
    <path class="cls-1" d="M276.2,436.2c0-65.7,45.7-118.9,102.1-118.9s102.1,53.2,102.1,118.9h-204.2Z"/>
    <line class="cls-6" x1="347.5" y1="677.7" x2="409.1" y2="677.7"/>
    <circle class="cls-1" cx="500.5" cy="71.1" r="10.7"/>
    <circle class="cls-1" cx="541.1" cy="71.6" r="10.7"/>
    <line class="cls-5" x1="216.1" y1="617.5" x2="359.7" y2="617.5"/>
    <line class="cls-5" x1="397" y1="618" x2="540.6" y2="618"/>
    <line class="cls-5" x1="397" y1="575.1" x2="540.6" y2="575.1"/>
    <path class="cls-1" d="M282.8,494.9c-7.3-1.4-13.8.4-19.4,5.4-1.5,1.3-2.8,2.7-4.2,4.2-.3.3-.5.4-.7.4-.2,0-.4,0-.7-.4-1.4-1.4-2.7-2.9-4.2-4.2-5.6-5-12.1-6.8-19.4-5.4-11.2,2.1-18.4,12.3-18.2,23.1,0,6,2.3,11.1,6.5,15.4,11.2,11.4,22.5,22.8,33.7,34.2.7.7,1.5,1.1,2.2,1.1.7,0,1.5-.3,2.2-1.1,11.2-11.4,22.5-22.8,33.7-34.2,4.2-4.3,6.4-9.4,6.5-15.4.2-10.8-6.9-21-18.2-23.1h0Z"/>
  </g>
</svg>